<svg id="outputsvg" xmlns="http://www.w3.org/2000/svg" style="transform: none; transform-origin: 50% 50%; cursor: move; display: inline;" width="360" height="520" viewBox="0 0 7360 10620" preserveAspectRatio="xMidYMid meet" title="4b6d046d04f8dfec6b6b108f97c736ff--hd-quotes-islamic-quotes.svg (93KB)"><g id="layer101" fill="#040404" stroke="none">  <path d="M3670 10070 c0 -10 5 -22 12 -26 7 -5 9 -2 5 9 -3 9 -1 17 6 20 6 2 4 6 -6 10 -12 5 -17 1 -17 -13z"></path>  <path d="M3508 10058 c-20 -20 -22 -28 -8 -28 9 0 35 39 28 44 -2 2 -11 -6 -20 -16z"></path>  <path d="M4050 10056 c0 -2 18 -16 39 -31 33 -22 43 -25 58 -15 16 10 16 11 -4 7 -13 -3 -35 5 -54 19 -33 24 -39 27 -39 20z"></path>  <path d="M3125 10038 c-26 -15 -35 -28 -34 -53 0 -17 2 -16 15 8 12 22 21 27 55 27 22 0 53 -7 69 -15 17 -9 30 -11 30 -6 0 27 -104 57 -135 39z"></path>  <path d="M3270 10045 c0 -3 24 -16 53 -31 28 -14 45 -19 37 -11 -15 15 -90 50 -90 42z"></path>  <path d="M3540 10030 c0 -7 3 -10 7 -7 3 4 3 10 0 14 -4 3 -7 0 -7 -7z"></path>  <path d="M3820 10035 c0 -3 2 -5 5 -5 3 0 5 2 5 5 0 3 -2 5 -5 5 -3 0 -5 -2 -5 -5z"></path>  <path d="M3949 10022 c-11 -17 -15 -18 -52 -5 -67 23 -58 10 22 -30 65 -33 73 -35 53 -14 -20 22 -21 25 -7 37 14 11 23 10 61 -8 24 -12 44 -26 44 -32 0 -5 -3 -9 -7 -9 -23 4 -33 -3 -33 -21 0 -27 29 -38 44 -18 15 20 135 16 148 -4 6 -10 8 -9 8 2 0 29 -15 38 -65 38 -77 -1 -83 1 -89 20 -7 20 -74 62 -100 62 -9 0 -21 -8 -27 -18z m108 -89 c-4 -3 -10 -3 -14 0 -3 4 0 7 7 7 7 0 10 -3 7 -7z"></path>  <path d="M3743 10015 c10 -7 25 -22 32 -32 9 -10 14 -13 15 -5 0 16 -36 52 -52 52 -8 -1 -5 -6 5 -15z"></path>  <path d="M3645 10013 c6 -4 25 -22 44 -38 26 -23 31 -25 23 -9 -6 11 -17 25 -24 31 -16 12 -57 28 -43 16z"></path>  <path d="M3445 9980 c16 -16 31 -28 33 -25 7 7 -39 55 -52 55 -5 0 3 -13 19 -30z"></path>  <path d="M4173 10003 c4 -3 10 -3 14 0 3 4 0 7 -7 7 -7 0 -10 -3 -7 -7z"></path>  <path d="M3150 9980 c0 -7 3 -10 7 -7 3 4 3 10 0 14 -4 3 -7 0 -7 -7z"></path>  <path d="M3256 9965 c-3 -9 -6 -24 -6 -33 0 -12 3 -13 12 -4 8 8 18 5 40 -13 30 -25 62 -32 72 -17 11 18 -26 51 -62 58 -20 4 -40 11 -43 16 -3 5 -9 2 -13 -7z m99 -46 c16 -16 -30 -10 -51 7 -18 15 -18 15 11 9 17 -4 34 -11 40 -16z"></path>  <path d="M3492 9953 c-6 -15 -13 -50 -16 -78 -5 -46 -4 -47 5 -15 6 19 13 46 17 59 9 31 34 46 58 36 18 -8 17 -9 -3 -12 -26 -5 -31 -23 -7 -23 26 0 94 22 94 30 0 5 -16 11 -35 14 -19 3 -50 9 -68 12 -30 5 -35 3 -45 -23z"></path>  <path d="M3865 9959 c-9 -13 -7 -15 28 -23 31 -7 30 7 -3 24 -13 7 -21 7 -25 -1z"></path>  <path d="M3104 9929 c-3 -6 -1 -16 5 -22 8 -8 11 -8 11 2 0 7 4 9 10 6 6 -3 7 1 4 9 -7 19 -20 21 -30 5z"></path>  <path d="M3442 9915 c-8 -17 -20 -25 -37 -25 -18 0 -25 -5 -25 -20 0 -11 6 -20 14 -20 17 0 66 56 66 76 0 20 -5 17 -18 -11z"></path>  <path d="M3782 9887 c-6 -29 -12 -61 -12 -72 0 -18 0 -18 14 1 8 10 10 21 5 22 -5 2 -6 9 -2 15 7 12 17 87 11 87 -2 0 -9 -24 -16 -53z"></path>  <path d="M3680 9910 c-6 -11 -22 -23 -35 -26 -26 -7 -35 -34 -11 -34 15 0 66 55 66 71 0 15 -9 10 -20 -11z"></path>  <path d="M3870 9912 c9 -19 8 -27 -4 -41 -22 -25 -20 -38 3 -17 18 17 20 17 30 -1 10 -15 10 -14 5 8 -3 15 -1 30 5 33 6 4 11 12 11 18 0 6 -6 6 -15 -2 -13 -11 -18 -10 -31 6 -14 18 -14 18 -4 -4z"></path>  <path d="M3976 9914 c-9 -24 -7 -34 7 -34 6 0 12 11 12 25 0 28 -10 33 -19 9z"></path>  <path d="M3711 9879 c-6 -18 -11 -41 -11 -52 0 -17 2 -18 16 -6 10 8 12 15 5 17 -6 2 -8 9 -4 15 7 12 14 57 8 57 -2 0 -8 -14 -14 -31z"></path>  <path d="M3535 9879 c-4 -6 -5 -13 -2 -16 7 -7 27 6 27 18 0 12 -17 12 -25 -2z"></path>  <path d="M4115 9865 c17 -13 34 -24 39 -25 6 0 -5 11 -24 25 -44 32 -54 32 -15 0z"></path>  <path d="M3196 9865 c4 -8 10 -12 15 -9 14 8 10 24 -6 24 -9 0 -12 -6 -9 -15z"></path>  <path d="M3260 9870 c0 -7 3 -10 7 -7 3 4 3 10 0 14 -4 3 -7 0 -7 -7z"></path>  <path d="M4051 9841 c-13 -10 -19 -21 -14 -24 10 -7 50 29 42 37 -2 3 -15 -3 -28 -13z"></path>  <path d="M3180 9815 c-8 -9 -8 -15 -2 -15 12 0 26 19 19 26 -2 2 -10 -2 -17 -11z"></path>  <path d="M4160 9815 c-11 -13 -11 -18 0 -28 10 -9 12 -9 8 3 -3 8 2 20 11 27 9 7 11 13 5 13 -6 0 -17 -7 -24 -15z"></path>  <path d="M3333 9808 c4 -12 1 -18 -9 -18 -8 0 -12 -4 -9 -10 7 -12 55 -13 55 -2 0 5 -10 17 -22 28 -19 17 -21 17 -15 2z"></path>  <path d="M3970 9806 c12 -16 118 -61 125 -54 3 2 -27 18 -66 36 -39 17 -66 25 -59 18z"></path>  <path d="M3552 9789 c-11 -17 -9 -19 18 -19 21 0 28 4 24 14 -9 23 -30 25 -42 5z"></path>  <path d="M3857 9803 c-12 -12 -7 -25 7 -20 7 3 18 1 24 -5 12 -12 35 -1 26 13 -3 5 -10 7 -15 3 -5 -3 -16 -1 -23 5 -7 6 -16 8 -19 4z"></path>  <path d="M4080 9805 c0 -3 2 -5 5 -5 3 0 5 2 5 5 0 3 -2 5 -5 5 -3 0 -5 -2 -5 -5z"></path>  <path d="M3213 9793 c4 -3 10 -3 14 0 3 4 0 7 -7 7 -7 0 -10 -3 -7 -7z"></path>  <path d="M3420 9792 c0 -10 100 -65 106 -59 3 3 -20 18 -50 35 -31 17 -56 27 -56 24z"></path>  <path d="M3956 9745 c-11 -8 -17 -17 -14 -20 2 -3 13 4 23 15 21 23 18 25 -9 5z"></path>  <path d="M3398 9736 c-19 -14 -23 -26 -10 -26 4 0 13 9 20 20 14 23 13 24 -10 6z"></path>  <path d="M3856 9725 c-18 -14 -14 -36 7 -34 8 0 8 2 -1 6 -10 4 -8 8 5 18 10 7 16 16 13 18 -3 3 -13 -1 -24 -8z"></path>  <path d="M3640 9725 c0 -3 2 -5 5 -5 3 0 5 2 5 5 0 3 -2 5 -5 5 -3 0 -5 -2 -5 -5z"></path>  <path d="M3735 9720 c3 -5 -1 -10 -9 -10 -9 0 -16 -4 -16 -10 0 -5 14 -10 30 -10 28 0 30 2 20 20 -6 11 -15 20 -21 20 -6 0 -7 -4 -4 -10z"></path>  <path d="M3980 9719 c0 -5 5 -7 10 -4 6 3 10 8 10 11 0 2 -4 4 -10 4 -5 0 -10 -5 -10 -11z"></path>  <path d="M3425 9710 c-3 -5 -1 -10 4 -10 6 0 11 5 11 10 0 6 -2 10 -4 10 -3 0 -8 -4 -11 -10z"></path>  <path d="M3927 9252 c-23 -25 -21 -86 4 -167 27 -90 34 -78 8 15 -15 56 -18 80 -10 97 13 29 39 30 52 1 8 -19 9 -18 4 11 -5 34 -21 61 -35 61 -4 0 -14 -8 -23 -18z"></path>  <path d="M3425 9251 c-35 -15 -58 -50 -75 -115 l-16 -64 -84 34 c-106 43 -227 68 -283 60 -23 -4 -60 -19 -82 -34 -89 -62 -110 -142 -70 -269 13 -43 31 -87 39 -98 25 -33 19 -38 -36 -32 -89 11 -167 35 -313 98 -163 71 -226 82 -266 50 -60 -47 -78 -165 -38 -248 29 -60 108 -127 206 -175 l84 -40 -5 -37 c-3 -20 -11 -72 -17 -116 l-12 -80 -20 59 c-24 72 -79 130 -138 146 -55 15 -117 -7 -158 -57 l-29 -35 -38 36 c-21 20 -59 46 -84 59 -148 73 -531 -50 -660 -213 -101 -128 -94 -266 22 -384 84 -87 88 -122 17 -150 -64 -26 -136 -20 -245 19 -109 40 -152 43 -185 16 -20 -16 -24 -28 -23 -68 0 -27 9 -65 21 -88 24 -46 109 -129 168 -165 22 -13 42 -25 44 -26 2 -2 -13 -22 -33 -44 -69 -77 -72 -119 -15 -214 l40 -67 -68 -68 c-64 -64 -71 -68 -124 -74 -73 -7 -123 -33 -200 -104 -186 -173 -271 -378 -197 -475 63 -83 193 -104 403 -66 95 17 92 31 -5 21 -129 -12 -186 -8 -237 19 -119 61 -103 185 50 388 130 172 254 253 197 129 -36 -80 -19 -154 40 -179 42 -17 131 -7 175 20 29 18 35 27 35 56 0 46 -21 85 -66 122 l-37 31 50 52 51 53 41 -36 c69 -59 173 -81 219 -45 37 29 -13 132 -85 173 -48 29 -121 37 -173 21 -23 -7 -28 -4 -43 28 -22 45 -21 57 2 104 36 69 220 221 269 221 15 0 72 -116 72 -145 -1 -15 -19 -28 -76 -54 -115 -53 -120 -65 -12 -27 54 19 99 32 102 28 2 -4 13 -41 24 -82 11 -41 23 -82 27 -91 4 -12 -5 -20 -40 -34 -58 -22 -53 -31 6 -11 24 8 44 14 45 13 0 -1 29 -60 62 -132 52 -110 68 -134 102 -158 l41 -29 -8 39 c-12 57 -7 131 15 198 18 58 20 59 30 34 7 -17 7 -40 1 -65 -13 -59 -11 -114 5 -120 17 -6 83 20 109 44 29 26 50 73 39 84 -16 16 -51 0 -46 -20 3 -9 -8 -32 -25 -52 -25 -29 -32 -33 -41 -20 -5 8 -8 21 -5 28 2 7 7 40 11 75 5 53 3 66 -13 86 -18 22 -24 24 -54 15 -31 -9 -35 -15 -59 -93 l-25 -83 -19 38 c-30 64 -57 147 -49 155 11 9 188 57 242 65 l44 7 -6 -37 c-5 -29 -2 -41 14 -57 24 -24 70 -25 100 0 22 18 23 19 5 45 -9 15 -28 32 -42 38 -17 8 -24 19 -24 38 0 23 -26 60 -42 60 -3 0 -5 -16 -4 -36 l1 -37 -58 -2 c-31 -2 -98 -15 -147 -31 -50 -15 -93 -24 -96 -21 -7 7 -44 154 -44 173 0 14 20 23 78 33 l42 8 0 -33 c0 -35 21 -64 48 -64 10 0 28 -7 40 -16 55 -38 85 2 62 85 -15 56 -47 90 -92 98 -36 5 -38 4 -44 -26 -6 -28 -10 -31 -43 -31 -20 0 -51 -4 -68 -9 -32 -9 -33 -8 -60 42 -35 64 -97 112 -162 126 -62 13 -95 3 -177 -55 l-61 -43 -46 29 c-98 62 -160 154 -142 211 18 56 80 60 227 14 129 -41 286 -28 303 25 3 10 -1 45 -10 78 -20 77 -19 87 6 139 22 46 76 83 122 83 30 0 64 -36 274 -290 94 -113 189 -223 212 -245 22 -21 41 -45 41 -51 0 -13 87 -51 96 -42 8 8 -100 221 -114 226 -9 3 -11 -7 -6 -40 8 -53 18 -63 -158 152 -169 206 -235 272 -310 309 -84 43 -135 48 -187 21 -52 -26 -87 -92 -78 -147 7 -44 -9 -34 -34 21 -42 93 -16 206 68 290 118 118 349 217 512 220 l85 1 24 -35 c13 -19 30 -61 39 -92 13 -47 23 -62 54 -83 21 -14 40 -25 43 -25 2 0 -1 21 -6 46 -9 40 -7 50 9 73 37 49 82 72 137 69 50 -3 50 -3 59 -43 8 -38 3 -233 -7 -242 -2 -2 -36 5 -76 17 -95 28 -100 20 -8 -12 l73 -25 -3 -59 c-1 -32 -14 -109 -28 -171 -21 -97 -23 -118 -13 -157 6 -26 15 -49 19 -51 5 -3 20 20 34 50 23 51 137 185 157 185 16 0 -11 -62 -45 -102 -38 -44 -46 -82 -20 -92 31 -12 89 -6 131 15 44 21 52 36 31 57 -19 19 -38 14 -38 -8 0 -27 -83 -69 -88 -45 -4 18 28 73 58 100 13 12 20 31 20 55 0 74 -52 81 -118 18 -25 -24 -42 -36 -39 -28 3 8 18 54 34 102 15 48 34 88 40 88 23 0 202 -60 208 -70 4 -6 -3 -22 -14 -36 -27 -34 -26 -55 2 -82 22 -21 43 -27 80 -24 22 2 23 51 2 93 -12 22 -13 34 -5 49 11 21 4 70 -11 70 -5 0 -9 -6 -9 -12 0 -7 -7 -21 -14 -31 -14 -18 -16 -17 -53 6 -21 13 -69 35 -108 48 -38 13 -72 24 -74 26 -5 3 34 249 54 346 8 38 22 84 31 102 17 37 66 65 111 65 34 0 110 -34 141 -62 12 -12 22 -17 22 -12 0 21 -128 134 -173 154 -41 18 -53 20 -82 10 -40 -13 -78 -55 -96 -105 -7 -19 -19 -35 -26 -35 -26 0 -122 53 -179 98 -72 58 -107 120 -100 176 6 53 34 78 93 83 41 4 69 -3 188 -50 243 -95 368 -124 490 -115 l65 6 5 -32 c3 -17 12 -74 21 -126 16 -99 63 -314 89 -410 8 -30 15 -67 15 -81 0 -15 14 -42 35 -65 l34 -39 0 125 c1 69 -2 135 -5 147 -7 26 -24 21 -24 -8 0 -10 -4 -19 -8 -19 -10 0 -54 209 -83 387 l-21 133 41 68 c47 77 50 109 19 160 l-22 35 -16 -39 c-34 -80 -131 -154 -201 -154 -33 0 -79 110 -79 186 0 61 43 109 118 130 64 19 131 14 244 -17 72 -20 235 -92 272 -121 19 -15 19 -15 -2 -36 -12 -12 -49 -29 -83 -39 -62 -17 -109 -56 -109 -92 0 -30 51 -120 80 -141 47 -34 87 -37 117 -9 40 37 73 116 73 177 0 108 -48 192 -153 268 -29 20 -29 20 -13 57 33 79 119 67 277 -39 105 -70 236 -192 244 -227 7 -27 -49 -191 -116 -340 -41 -91 -48 -116 -43 -146 14 -77 20 -71 92 79 78 162 116 271 132 374 6 38 17 81 26 97 15 31 60 59 94 59 18 0 20 -6 21 -77 l2 -78 8 74 c5 41 11 77 14 80 8 8 76 -31 82 -47 6 -15 2 -36 -62 -317 -25 -110 -56 -266 -70 -347 -14 -82 -30 -159 -37 -173 -8 -19 -8 -35 1 -65 6 -22 15 -40 20 -40 9 0 86 164 97 203 8 33 -10 36 -26 6 -7 -11 -13 -19 -15 -17 -4 3 34 187 95 468 46 214 41 331 -17 400 l-26 31 24 25 c72 77 202 39 315 -92 71 -82 155 -201 178 -252 26 -58 11 -74 -36 -39 -77 57 -134 71 -175 42 -47 -33 -53 -156 -12 -224 14 -24 26 -31 49 -31 39 0 98 24 128 53 18 16 27 19 39 11 30 -19 75 -82 68 -94 -4 -7 -37 -25 -72 -41 -36 -16 -82 -42 -102 -57 -20 -16 -43 -31 -52 -34 -15 -6 -47 -84 -37 -93 4 -4 103 27 162 51 17 7 17 8 2 19 -14 11 -13 14 16 25 84 34 127 94 128 178 0 49 -11 74 -48 114 -24 26 -26 35 -27 130 -3 125 14 187 58 224 40 34 87 28 134 -18 34 -33 61 -93 130 -293 19 -55 49 -126 66 -159 30 -57 112 -149 152 -172 19 -12 19 -13 -11 -45 -58 -64 -246 -313 -323 -429 -24 -36 -55 -77 -69 -92 -16 -17 -26 -43 -29 -72 -3 -25 -3 -46 -1 -46 3 0 50 42 104 94 92 88 116 124 64 96 -18 -10 -21 -10 -14 2 29 49 245 327 296 382 59 63 67 68 118 75 87 12 117 32 135 93 8 28 14 53 12 54 -1 1 -29 -7 -62 -18 -83 -28 -168 -13 -228 40 -16 14 -16 17 -1 41 83 130 200 157 285 64 40 -42 129 -235 129 -278 0 -7 -19 -45 -42 -84 -28 -50 -44 -69 -52 -61 -13 13 -59 13 -88 -1 -56 -25 -90 -169 -53 -225 16 -25 21 -26 76 -21 99 9 175 67 229 174 26 51 31 113 17 200 l-9 52 40 11 c54 17 78 2 110 -68 24 -53 26 -70 30 -222 3 -102 0 -189 -7 -231 l-12 -67 -67 -30 c-66 -30 -268 -95 -335 -107 -23 -5 -50 -22 -78 -52 l-44 -45 69 6 c146 14 312 67 474 152 57 30 114 54 128 54 65 0 124 -64 124 -133 0 -65 -50 -100 -498 -347 -146 -81 -234 -136 -254 -159 -20 -23 -27 -36 -19 -39 13 -4 144 59 398 192 164 86 237 107 289 82 43 -20 66 -56 62 -98 l-3 -33 -74 -1 c-67 0 -76 -2 -102 -29 -16 -15 -29 -32 -29 -37 0 -15 121 -9 156 8 58 28 123 92 134 134 22 81 -36 150 -126 150 -25 0 -23 4 31 58 75 74 115 137 115 179 0 30 5 36 43 53 56 26 83 25 112 -5 42 -42 35 -94 -49 -347 -93 -277 -102 -352 -60 -463 4 -9 -6 -15 -28 -20 -108 -21 -302 -66 -310 -71 -12 -8 -2 27 19 69 8 16 12 31 9 34 -2 3 -18 -21 -34 -53 l-30 -59 -123 -37 c-68 -20 -132 -36 -141 -36 -17 1 -86 -51 -87 -66 -1 -13 258 -1 272 13 8 8 2 13 -22 17 -18 4 -29 10 -24 14 7 6 83 30 96 30 8 0 -56 -149 -85 -202 l-21 -37 -34 30 c-25 22 -41 28 -56 23 -62 -18 -93 -97 -43 -110 13 -3 41 -1 62 5 29 8 42 7 53 -3 24 -20 49 -26 72 -17 21 7 20 9 -14 30 l-36 22 43 65 c24 35 57 96 72 134 16 39 36 72 44 75 34 10 289 63 331 69 38 6 56 2 110 -24 35 -16 73 -30 84 -30 11 0 40 13 64 30 46 30 45 32 -11 44 -30 7 -122 77 -137 104 -5 9 -12 33 -15 52 -7 35 -6 36 69 84 65 42 83 49 140 54 58 4 68 2 89 -17 32 -30 37 -63 19 -135 -34 -138 -177 -389 -230 -402 -44 -12 -221 5 -335 32 -106 24 -112 24 -159 9 -59 -20 -66 -29 -34 -43 81 -37 291 -72 433 -72 90 0 216 -16 245 -32 27 -14 10 -28 -34 -28 -74 0 -157 -51 -184 -114 -20 -46 -9 -62 58 -87 61 -23 127 -71 127 -93 0 -6 -23 -24 -51 -39 -85 -49 -206 -145 -242 -195 -68 -92 -72 -163 -13 -251 l33 -49 -48 -37 -49 -37 -142 45 c-328 105 -342 108 -386 101 -23 -3 -39 -10 -36 -15 8 -14 198 -117 229 -125 l30 -7 -24 27 c-14 14 -21 26 -16 26 10 0 278 -91 284 -96 12 -10 -104 -104 -128 -104 -6 0 -14 12 -17 28 -10 42 -23 52 -65 52 -37 0 -79 -26 -79 -48 0 -17 36 -40 73 -47 22 -4 41 -15 44 -24 10 -27 35 -51 55 -51 17 0 18 2 3 30 -21 41 -20 45 23 58 20 6 59 30 86 52 36 30 56 40 70 36 117 -33 228 -30 310 9 28 14 42 15 68 6 78 -26 151 -118 128 -161 -18 -34 -69 -40 -182 -20 -57 10 -123 23 -148 30 -91 24 -258 9 -247 -23 2 -7 19 -22 37 -35 30 -20 64 -32 222 -76 34 -10 73 -30 95 -49 35 -31 81 -113 69 -124 -3 -4 -97 30 -208 74 -112 44 -286 113 -388 153 -102 40 -212 86 -246 102 -58 27 -141 38 -157 21 -7 -6 149 -126 191 -146 30 -14 39 -2 17 23 -24 26 -20 26 66 -11 107 -46 564 -223 629 -244 30 -9 58 -21 63 -24 11 -11 -26 -41 -70 -57 -89 -31 -170 -6 -300 92 -65 49 -77 54 -123 54 -27 0 -50 -4 -50 -9 0 -16 120 -110 188 -147 127 -69 171 -102 193 -145 25 -50 20 -95 -17 -139 -40 -47 -60 -40 -154 56 -47 47 -117 110 -157 140 -39 29 -73 58 -75 63 -1 5 -25 12 -52 16 -59 9 -59 9 10 -90 48 -68 49 -69 54 -40 5 29 6 28 110 -74 59 -58 124 -112 148 -123 138 -63 259 -7 249 114 -5 61 -45 121 -102 156 -44 27 -61 50 -27 37 35 -13 148 -17 190 -6 23 7 57 24 75 40 30 26 37 27 102 23 80 -5 81 0 4 26 -52 18 -54 21 -61 62 -9 53 -45 109 -93 145 -34 27 -151 75 -180 75 -24 0 -125 41 -125 51 0 18 101 8 227 -22 140 -34 250 -42 276 -20 21 17 22 63 1 107 -22 47 -103 117 -153 134 -23 7 -41 17 -41 22 0 5 12 27 26 49 37 60 69 150 93 266 25 119 27 201 7 267 -14 46 -14 48 7 56 22 9 22 9 -2 9 -13 1 -37 13 -52 28 -14 15 -58 43 -95 63 -82 42 -90 61 -43 114 38 43 67 53 105 33 28 -14 128 -111 157 -151 11 -15 22 -18 57 -13 23 3 47 10 53 16 15 15 -36 95 -111 173 -74 77 -117 96 -234 105 -79 6 -92 16 -37 28 129 28 347 439 289 542 -26 46 -63 66 -122 66 -74 0 -119 -15 -221 -73 -48 -27 -89 -50 -90 -50 -6 0 11 115 24 165 7 28 33 102 57 165 93 243 100 295 41 344 -50 43 -137 38 -231 -12 -4 -2 -14 10 -22 26 -8 16 -32 36 -55 47 -55 25 -117 16 -203 -29 -38 -20 -71 -36 -74 -36 -3 0 9 17 25 38 17 20 37 57 46 81 35 102 44 374 15 474 -6 21 -24 52 -40 70 -25 28 -34 32 -82 32 -41 0 -63 -7 -95 -28 -49 -31 -53 -32 -53 -12 0 20 -53 173 -75 216 -65 125 -151 159 -263 103 -55 -28 -106 -81 -143 -153 l-22 -43 -18 23 c-42 54 -99 182 -134 300 -56 190 -89 236 -176 246 -35 4 -51 0 -79 -19 -40 -27 -83 -87 -101 -140 l-12 -37 -60 90 c-124 189 -236 277 -335 266 -55 -6 -86 -29 -135 -98 -32 -45 -43 -54 -72 -56 -85 -5 -134 -55 -159 -161 l-13 -57 -12 30 c-38 98 -138 213 -256 295 -112 77 -187 102 -240 81z m3 -557 c-33 -30 -40 -33 -63 -22 -19 9 -22 14 -14 25 12 14 101 44 109 36 3 -3 -12 -20 -32 -39z m1145 -71 c38 -19 34 -33 -11 -33 -41 0 -80 29 -67 50 7 12 33 6 78 -17z m1132 -448 c24 -104 11 -124 -54 -91 -52 28 -54 37 -14 104 20 34 40 62 44 62 4 0 15 -34 24 -75z m-159 -150 l49 -35 -47 0 c-39 0 -50 4 -64 25 -15 23 -13 45 5 45 4 0 30 -16 57 -35z m-2786 -216 c0 -11 -10 -23 -22 -28 -35 -13 -40 -3 -16 29 23 31 38 31 38 -1z m-954 -520 c15 -30 15 -31 -1 -25 -9 3 -19 6 -21 6 -2 0 -4 11 -4 25 0 33 6 32 26 -6z m-6 -50 c14 -25 6 -49 -15 -49 -11 0 -15 10 -15 35 0 39 14 46 30 14z m220 -200 c0 -10 -9 -23 -20 -29 -18 -10 -20 -8 -20 23 0 19 3 37 7 40 10 10 33 -13 33 -34z m-651 -62 c25 -52 25 -51 5 -71 -28 -28 -69 -20 -103 21 -17 21 -27 40 -23 44 10 10 85 49 93 49 4 0 17 -19 28 -43z m-269 -263 c0 -7 3 -19 6 -27 5 -14 -31 -57 -48 -57 -12 0 -10 62 4 100 10 31 12 32 25 15 7 -11 13 -24 13 -31z m4630 -231 c23 -30 15 -39 -25 -29 -24 6 -34 34 -18 49 11 12 21 8 43 -20z m884 -415 c10 -39 6 -120 -9 -193 -16 -76 -74 -207 -107 -242 -20 -22 -22 -22 -50 -5 -35 20 -84 91 -99 143 -21 68 -5 106 75 186 64 63 157 133 177 133 4 0 9 -10 13 -22z m-94 -504 c-6 -16 -23 -44 -37 -62 -23 -31 -28 -33 -67 -27 -58 9 -156 36 -161 45 -2 4 13 21 35 39 34 27 43 30 61 20 29 -15 85 -13 134 4 22 8 41 13 43 12 1 -1 -2 -15 -8 -31z m-550 -171 c0 -20 -3 -22 -19 -13 -25 13 -31 30 -18 54 9 19 10 19 23 1 8 -10 14 -29 14 -42z"></path>  <path d="M2606 8999 c2 -46 3 -90 4 -97 0 -21 81 -102 101 -102 23 0 39 29 39 69 0 41 -27 55 -59 30 -47 -38 -58 -28 -63 64 -2 45 -9 91 -15 101 -8 14 -10 -2 -7 -65z m94 -153 c0 -3 -4 -8 -10 -11 -5 -3 -10 -1 -10 4 0 6 5 11 10 11 6 0 10 -2 10 -4z"></path>  <path d="M4362 8928 c-6 -7 -13 -31 -17 -53 l-6 -40 16 28 c17 29 52 36 73 15 19 -19 15 -24 -33 -42 -45 -18 -45 -18 -44 -64 1 -34 3 -40 8 -24 4 15 23 32 51 45 39 19 45 26 48 58 5 62 -63 117 -96 77z"></path>  <path d="M7021 8901 c-8 -6 -9 -11 -3 -15 6 -3 14 -1 17 5 9 14 2 20 -14 10z"></path>  <path d="M5267 8859 c-29 -17 -44 -60 -50 -144 -4 -49 -3 -68 2 -50 5 17 9 49 10 71 1 49 29 91 54 81 10 -4 17 -17 18 -29 1 -21 1 -21 11 5 12 32 3 77 -15 77 -6 0 -20 -5 -30 -11z"></path>  <path d="M3672 8810 c-20 -33 -43 -54 -67 -64 -32 -14 -35 -18 -29 -43 4 -15 10 -32 14 -36 11 -13 59 32 90 87 l30 51 0 -53 c0 -72 23 -124 52 -120 27 4 54 48 44 73 -6 17 -8 17 -29 -4 -45 -41 -57 -25 -57 79 0 38 -4 71 -9 74 -4 3 -22 -17 -39 -44z"></path>  <path d="M4835 8817 c-12 -19 -14 -40 -9 -101 4 -42 11 -79 15 -82 5 -3 9 6 9 20 0 21 6 26 35 32 59 11 76 84 30 129 -30 31 -60 32 -80 2z m80 -55 c7 -20 -2 -28 -42 -37 -32 -6 -33 -6 -33 28 0 20 6 37 13 40 17 6 55 -13 62 -31z"></path>  <path d="M1987 8706 c-23 -71 -23 -73 23 -96 22 -11 40 -22 40 -25 0 -2 -9 -27 -20 -55 -11 -28 -20 -53 -20 -55 0 -6 77 -45 88 -45 9 0 52 101 52 121 0 5 -18 18 -40 29 -45 23 -45 23 -25 80 18 52 18 56 3 63 -7 3 -29 12 -49 21 l-36 15 -16 -53z"></path>  <path d="M2347 8723 c-4 -3 -7 -20 -7 -37 0 -23 11 -41 52 -79 28 -26 61 -53 72 -58 12 -6 -5 14 -37 43 -38 35 -57 61 -57 76 0 25 28 30 49 10 10 -11 11 -10 6 3 -3 8 -19 23 -34 32 -33 19 -35 20 -44 10z"></path>  <path d="M4289 8626 c-12 -26 -5 -121 11 -146 7 -10 8 6 4 46 -7 67 7 93 33 59 12 -18 13 -18 13 4 0 56 -41 81 -61 37z"></path>  <path d="M4006 8608 c-19 -27 -19 -102 -1 -173 16 -65 19 -20 4 58 -9 44 -9 60 1 72 19 22 28 19 45 -17 l15 -33 -6 40 c-7 45 -20 75 -34 75 -5 0 -16 -10 -24 -22z"></path>  <path d="M1787 8613 c-14 -13 -7 -40 16 -60 25 -23 107 -67 113 -60 3 2 -17 15 -43 29 -33 16 -49 31 -51 47 -3 21 -1 22 30 17 l33 -7 -35 20 c-37 22 -53 25 -63 14z"></path>  <path d="M3405 8512 c6 -5 45 -21 88 -37 95 -33 90 -45 -21 -54 l-80 -6 33 -40 c33 -39 35 -39 97 -37 142 5 160 31 73 110 -39 36 -67 53 -93 57 -98 16 -107 16 -97 7z"></path>  <path d="M2940 8470 c-14 -26 1 -82 35 -132 14 -21 35 -59 47 -85 11 -27 23 -42 25 -35 3 7 -16 50 -41 97 -25 47 -46 94 -46 104 0 31 21 37 42 11 12 -15 18 -18 18 -7 0 20 -39 67 -55 67 -8 0 -19 -9 -25 -20z"></path>  <path d="M4903 8467 c-23 -7 -45 -15 -48 -19 -4 -3 -3 -27 1 -53 6 -45 8 -47 35 -41 97 20 87 23 94 -28 4 -25 11 -48 15 -51 4 -2 32 3 63 12 l56 16 -6 46 c-3 25 -9 49 -12 54 -4 4 -29 0 -57 -8 -27 -8 -50 -15 -51 -15 -1 0 -5 23 -9 50 -7 55 -10 56 -81 37z"></path>  <path d="M4412 8455 c-11 -9 -24 -30 -26 -48 -10 -60 -12 -136 -4 -131 4 3 8 29 8 59 0 35 5 59 16 69 20 21 34 12 34 -21 0 -15 3 -24 6 -20 9 9 7 88 -3 98 -5 5 -19 2 -31 -6z"></path>  <path d="M4210 8444 c0 -8 148 -229 195 -290 36 -47 75 -116 75 -132 0 -5 -18 -14 -40 -21 -52 -15 -66 -41 -51 -92 12 -41 39 -63 66 -53 20 8 45 56 45 86 0 17 8 27 30 35 23 9 30 18 30 37 0 24 -2 26 -21 16 -28 -16 -45 -7 -52 27 -9 41 -61 122 -165 256 -51 65 -92 123 -92 128 0 5 -4 9 -10 9 -5 0 -10 -3 -10 -6z m270 -490 c0 -13 -21 -42 -34 -47 -9 -4 -23 1 -32 11 -16 15 -15 17 12 29 31 13 54 16 54 7z"></path>  <path d="M3256 8406 c-36 -30 -39 -35 -33 -72 4 -23 16 -48 30 -60 31 -27 355 -173 532 -240 159 -60 195 -70 195 -57 0 20 -38 43 -130 76 -225 82 -610 256 -610 276 0 5 16 22 35 37 33 25 45 56 27 68 -4 2 -25 -10 -46 -28z"></path>  <path d="M2748 8315 c-14 -31 1 -68 59 -143 42 -54 54 -62 32 -21 -8 16 -5 26 20 55 17 19 31 46 31 60 0 65 -116 105 -142 49z m111 -30 c2 -3 -10 -21 -29 -40 -31 -32 -34 -33 -46 -17 -17 22 -18 59 -1 66 13 6 67 -1 76 -9z"></path>  <path d="M3896 8273 c-29 -45 -46 -56 -99 -68 -25 -5 -28 -10 -25 -38 2 -19 9 -33 19 -35 19 -3 105 71 114 98 12 38 25 20 18 -27 -4 -34 -3 -44 5 -39 13 8 17 142 4 150 -4 2 -21 -16 -36 -41z"></path>  <path d="M4907 8251 c-15 -22 -55 -63 -89 -92 -35 -28 -67 -58 -72 -67 -4 -8 -10 -47 -12 -86 -4 -69 -5 -72 -46 -108 -35 -31 -51 -38 -85 -38 -28 0 -43 -4 -43 -12 0 -7 -3 -23 -6 -35 -5 -19 -2 -23 18 -23 25 0 110 48 123 70 6 9 9 9 15 -1 6 -8 11 0 15 23 5 28 13 38 32 43 43 10 73 36 73 61 0 14 -6 24 -14 24 -8 0 -28 11 -43 25 l-28 25 30 27 c17 16 46 42 65 58 49 42 67 65 85 108 20 48 14 47 -18 -2z m-147 -272 c0 -6 -4 -7 -10 -4 -5 3 -10 11 -10 16 0 6 5 7 10 4 6 -3 10 -11 10 -16z"></path>  <path d="M1642 8205 c33 -117 33 -113 16 -149 -16 -32 -16 -35 1 -50 36 -33 51 -21 51 39 0 31 -7 71 -14 90 -16 37 -8 46 15 18 26 -31 92 -73 116 -73 21 0 24 4 21 31 -2 19 -12 38 -25 47 -22 14 -23 14 -17 -17 9 -45 -19 -41 -81 12 -86 73 -89 75 -83 52z"></path>  <path d="M1920 8181 c0 -10 -6 -37 -14 -59 l-14 -40 49 -20 c27 -12 50 -18 53 -14 12 21 35 117 29 123 -11 9 -73 29 -89 29 -8 0 -14 -8 -14 -19z"></path>  <path d="M5332 8155 c-21 -26 -67 -163 -58 -172 2 -3 14 26 25 65 22 71 41 99 62 87 6 -4 9 -18 6 -32 -3 -16 -1 -21 5 -15 5 5 12 28 15 51 5 37 3 41 -15 41 -11 0 -29 -11 -40 -25z"></path>  <path d="M3967 8143 c-16 -16 -19 -16 -27 -3 -8 12 -10 11 -10 -6 0 -11 6 -29 14 -39 14 -19 15 -19 35 -1 20 18 30 66 13 66 -4 0 -16 -8 -25 -17z"></path>  <path d="M4281 8136 c-16 -17 -23 -39 -26 -82 -4 -48 -3 -52 4 -22 8 41 38 81 52 72 5 -3 9 -17 9 -32 1 -22 2 -24 10 -10 12 19 0 90 -16 95 -6 2 -20 -7 -33 -21z"></path>  <path d="M3366 8124 c-3 -9 -6 -23 -6 -31 0 -23 51 -133 62 -133 5 0 -3 20 -17 43 -14 24 -25 51 -25 61 0 22 26 31 45 16 21 -18 19 -3 -6 31 -23 32 -44 37 -53 13z"></path>  <path d="M6192 8117 c-16 -19 16 -167 65 -305 22 -65 27 -72 40 -59 13 13 11 26 -16 109 -16 52 -38 133 -48 181 -9 48 -20 87 -24 87 -4 0 -11 -6 -17 -13z"></path>  <path d="M2564 8067 c24 -35 60 -41 484 -72 84 -6 97 -1 65 27 -13 11 -54 17 -153 22 -138 8 -346 30 -389 42 -23 7 -23 7 -7 -19z"></path>  <path d="M4262 7950 c0 -19 2 -27 5 -17 2 9 2 25 0 35 -3 9 -5 1 -5 -18z"></path>  <path d="M6087 7948 c-30 -40 -50 -78 -45 -84 3 -2 14 14 26 35 23 41 47 57 58 40 3 -5 3 -18 0 -27 -4 -11 1 -9 14 7 28 33 26 61 -4 61 -16 0 -33 -11 -49 -32z"></path>  <path d="M2905 7930 c-8 -26 14 -61 57 -91 l33 -22 -28 30 c-32 35 -33 70 -2 64 20 -3 20 -3 1 18 -24 27 -53 27 -61 1z"></path>  <path d="M1976 7908 c-66 -36 -61 -47 11 -25 27 9 63 19 82 22 l34 7 -23 -32 c-12 -17 -37 -41 -56 -53 -19 -12 -34 -25 -34 -29 0 -13 92 -38 109 -29 32 18 112 112 109 128 -4 21 -66 41 -128 42 -32 0 -63 -9 -104 -31z"></path>  <path d="M5130 7913 c-30 -25 -32 -30 -27 -72 3 -25 20 -91 37 -146 35 -108 194 -534 212 -569 11 -20 12 -20 21 7 7 23 3 44 -21 105 -77 193 -203 559 -217 631 -7 33 -7 34 21 26 49 -14 88 -12 92 6 2 11 -9 19 -36 27 -50 15 -45 16 -82 -15z"></path>  <path d="M5727 7883 c-27 -18 -127 -149 -127 -167 0 -13 7 -5 63 75 46 66 72 84 98 68 10 -6 10 -13 1 -35 -18 -37 -8 -41 17 -6 31 45 32 76 1 80 -14 1 -37 -6 -53 -15z"></path>  <path d="M5370 7885 c0 -2 11 -39 25 -81 14 -43 23 -79 21 -82 -8 -7 -63 36 -99 79 l-35 40 -6 -38 c-4 -21 -9 -46 -12 -55 -11 -36 143 -167 161 -137 4 6 10 48 12 93 5 79 4 84 -27 134 -29 47 -40 60 -40 47z"></path>  <path d="M1080 7859 c0 -34 51 -74 123 -98 38 -13 71 -21 73 -18 3 3 -25 15 -63 27 -71 23 -93 41 -93 73 0 16 5 18 32 15 28 -5 29 -4 13 9 -11 7 -34 13 -52 13 -27 0 -33 -4 -33 -21z"></path>  <path d="M4701 7824 c0 -11 3 -14 6 -6 3 7 2 16 -1 19 -3 4 -6 -2 -5 -13z"></path>  <path d="M4690 7768 c0 -41 10 -52 40 -43 13 4 20 15 20 31 0 20 -4 24 -19 19 -13 -4 -23 0 -30 12 -9 15 -10 12 -11 -19z"></path>  <path d="M1590 7774 c0 -28 20 -54 58 -73 61 -31 91 -34 37 -4 -34 19 -50 34 -50 48 0 15 6 19 25 18 l25 -3 -25 15 c-34 19 -70 19 -70 -1z"></path>  <path d="M3418 7745 c-35 -20 -44 -54 -28 -111 14 -49 74 -147 108 -178 12 -11 22 -23 22 -29 0 -12 -95 -1 -123 14 -24 14 -31 6 -23 -26 11 -42 40 -63 100 -70 76 -10 106 -1 106 30 0 41 -20 78 -69 130 -64 66 -94 112 -87 131 3 8 22 22 42 30 88 37 268 -40 392 -169 l44 -44 -34 -21 c-71 -44 -126 -121 -152 -212 -13 -47 -46 -274 -46 -319 0 -30 -17 5 -35 69 -20 75 -57 130 -147 216 -206 199 -442 343 -575 352 -82 6 -106 -1 -153 -44 -52 -47 -75 -120 -67 -214 6 -66 43 -214 72 -282 18 -44 8 -48 -32 -15 -44 36 -293 217 -300 217 -2 0 49 -57 114 -127 191 -205 186 -198 168 -233 -9 -16 -28 -44 -44 -62 -38 -44 -44 -68 -32 -132 18 -99 84 -168 145 -152 16 4 35 24 52 52 27 46 27 47 14 128 -7 44 -22 107 -35 138 -12 32 -17 55 -11 51 6 -4 56 -41 110 -82 93 -71 176 -158 176 -184 0 -7 -25 -25 -56 -41 -71 -38 -88 -63 -80 -119 13 -86 79 -149 133 -124 33 15 57 84 51 151 -4 49 -2 56 19 67 70 37 84 134 40 272 -20 61 -23 85 -16 111 19 70 66 71 99 3 l20 -42 -6 35 c-12 76 -36 131 -61 143 -23 10 -28 8 -54 -21 -41 -46 -42 -110 -3 -224 34 -100 32 -129 -11 -173 -20 -19 -40 -35 -45 -35 -5 0 -18 20 -29 45 -36 81 -99 151 -216 239 -42 31 -55 49 -79 109 -56 142 -45 297 25 333 81 41 251 -13 444 -141 95 -63 324 -254 343 -285 16 -26 12 -59 -26 -214 -23 -98 -29 -111 -55 -125 -67 -36 -148 -103 -186 -153 -83 -110 -141 -262 -141 -371 l0 -48 -56 60 c-111 120 -395 330 -532 393 -72 33 -169 58 -227 58 l-40 0 -27 103 c-37 138 -42 175 -28 227 15 56 36 80 70 80 31 0 62 -30 83 -80 l15 -35 1 30 c1 40 -21 121 -47 171 -36 72 -90 63 -140 -22 -21 -36 -23 -48 -18 -144 3 -77 13 -133 35 -210 17 -58 31 -108 31 -111 0 -4 -21 -12 -47 -19 -208 -52 -305 -242 -259 -507 16 -90 71 -256 115 -341 20 -39 21 -48 10 -106 -20 -115 22 -274 111 -427 71 -120 269 -379 291 -379 15 0 -6 34 -76 125 -99 129 -176 245 -208 315 -32 69 -46 174 -33 245 9 45 46 85 79 85 34 0 88 -44 119 -98 39 -67 35 -26 -7 77 -42 103 -74 150 -117 176 -41 24 -75 21 -105 -7 -13 -12 -25 -20 -27 -17 -14 14 -86 255 -92 305 -21 193 95 356 265 371 70 7 183 -21 303 -73 145 -63 554 -352 580 -410 6 -12 8 -38 4 -58 l-7 -35 -94 0 c-170 1 -267 -49 -295 -151 -36 -132 102 -340 225 -340 80 0 158 80 211 215 15 39 30 73 33 77 14 16 384 -76 417 -103 7 -5 17 -31 24 -57 14 -59 92 -256 135 -342 18 -36 47 -110 65 -165 18 -55 36 -104 41 -109 4 -5 10 9 13 30 6 39 36 165 63 259 8 28 12 76 10 110 -5 74 -56 209 -102 269 l-33 44 38 6 c56 9 127 42 183 84 95 72 139 181 117 286 -14 70 -63 166 -95 189 -76 54 -242 -7 -335 -124 -50 -64 -68 -97 -91 -169 -15 -50 -20 -55 -45 -55 -27 0 -29 -2 -26 -37 2 -21 2 -38 0 -38 -2 0 -51 16 -109 36 -57 19 -140 43 -184 53 l-80 17 -27 95 c-42 143 -35 229 29 351 35 68 110 155 153 178 27 15 28 21 -23 -120 l-35 -96 24 -98 c13 -54 25 -100 27 -102 8 -8 107 209 158 345 l53 144 111 -6 c81 -4 133 -12 195 -32 94 -30 266 -116 379 -190 l74 -48 -6 -171 c-3 -94 -15 -328 -27 -521 -15 -271 -24 -358 -36 -388 -17 -36 -16 -39 10 -106 31 -75 43 -98 49 -91 9 11 167 483 167 501 0 33 -24 21 -54 -26 -15 -25 -30 -44 -32 -43 -4 4 23 544 34 672 l7 89 92 -73 c51 -40 95 -81 98 -92 12 -37 -32 -1024 -51 -1138 -6 -34 43 -220 58 -220 11 0 36 91 47 170 22 162 46 507 72 1030 13 284 22 341 62 420 54 108 138 150 263 130 72 -12 190 -69 234 -115 31 -32 31 -34 15 -58 -25 -38 -86 -57 -210 -66 -129 -8 -165 -24 -195 -86 -23 -48 -25 -91 -6 -160 29 -110 107 -215 171 -231 76 -19 168 53 230 180 113 231 94 490 -45 620 -72 68 -141 98 -231 104 -129 8 -219 -38 -287 -145 -42 -67 -60 -134 -74 -284 -6 -71 -15 -126 -18 -122 -4 5 -19 40 -34 79 -26 70 -57 108 -167 206 l-27 23 13 238 c7 131 14 239 16 241 7 6 304 104 379 125 41 11 122 29 179 40 57 11 106 23 110 26 3 4 -12 41 -34 83 l-40 77 -60 7 c-58 7 -208 50 -231 65 -20 14 -66 144 -59 170 8 35 34 41 57 12 l19 -24 -7 25 c-12 44 -34 80 -49 80 -8 0 -22 -11 -31 -25 -21 -32 -14 -92 20 -169 14 -31 22 -56 19 -56 -3 0 -65 28 -137 63 l-132 64 -21 129 c-12 71 -32 156 -45 189 l-23 60 -3 -162 c-1 -101 -6 -163 -13 -163 -5 0 -31 11 -57 24 -26 13 -81 38 -123 55 -74 31 -77 33 -89 76 -21 74 3 142 47 133 9 -2 28 -19 41 -38 l24 -35 -7 35 c-28 149 -102 176 -136 50 -10 -37 -9 -56 5 -109 9 -35 15 -65 13 -67 -2 -2 -25 3 -52 11 -26 8 -64 15 -83 15 -25 0 -35 5 -39 20 -7 25 -23 26 -23 1 0 -26 -69 -40 -82 -17 -5 9 -33 45 -63 80 -56 65 -145 136 -225 176 -57 29 -154 37 -192 15z m868 -524 c76 -27 147 -52 157 -56 16 -7 17 -21 15 -153 l-3 -146 -105 -34 c-129 -43 -239 -53 -303 -28 -48 18 -117 76 -117 98 0 7 15 59 34 113 29 87 39 127 62 244 5 23 8 23 63 18 32 -4 121 -29 197 -56z m-388 -73 c-57 -164 -54 -256 13 -363 72 -116 165 -175 275 -175 52 0 175 28 247 56 17 6 18 -2 11 -157 -4 -90 -10 -172 -13 -182 -6 -16 -11 -15 -51 15 -207 156 -399 239 -588 255 l-74 6 6 31 c4 28 13 94 46 361 12 98 55 191 108 235 20 16 42 30 48 30 8 0 -3 -42 -28 -112z m819 -105 c62 -26 112 -50 113 -53 0 -3 -59 -24 -130 -46 l-130 -41 0 99 c0 117 -17 112 147 41z m-1950 -221 c35 -48 63 -110 63 -142 0 -92 -80 -132 -141 -71 -16 16 -29 36 -29 44 0 8 16 34 35 57 34 41 52 96 41 125 -9 25 9 17 31 -13z m343 -351 c-13 -45 -29 -69 -50 -76 -24 -8 -73 20 -68 38 4 11 103 67 119 67 4 0 4 -13 -1 -29z m1054 -617 c28 -11 17 -41 -30 -87 -70 -70 -153 -109 -241 -115 -62 -4 -73 -2 -73 11 0 27 118 144 173 171 50 25 132 35 171 20z m1109 -54 c-73 -71 -96 -76 -150 -27 -64 59 -26 85 127 86 l85 1 -62 -60z m-2113 -259 c0 -5 -24 -35 -54 -67 -53 -55 -56 -57 -96 -51 -41 5 -90 39 -90 62 0 15 62 43 120 54 62 12 120 13 120 2z m808 -236 c18 -15 32 -36 32 -48 0 -12 -13 -67 -29 -122 l-29 -100 -17 40 c-10 22 -37 83 -60 135 -38 84 -65 160 -65 183 0 11 132 -58 168 -88z"></path>  <path d="M2142 7674 c-16 -29 0 -64 47 -104 25 -22 70 -60 99 -85 29 -25 58 -45 64 -45 11 0 -73 78 -101 94 -36 20 -81 71 -81 93 0 26 19 30 53 11 20 -10 21 -10 8 6 -13 16 -63 46 -75 46 -3 0 -9 -7 -14 -16z"></path>  <path d="M5038 7643 c-21 -24 -61 -104 -55 -110 3 -2 15 16 26 42 15 34 25 46 38 43 10 -2 17 -12 16 -22 -2 -29 16 -4 23 32 6 27 4 32 -13 32 -11 0 -27 -8 -35 -17z"></path>  <path d="M1720 7593 c0 -27 -3 -28 -53 -30 -28 -2 -122 -21 -207 -43 -124 -32 -143 -39 -94 -35 33 3 114 17 179 30 66 14 132 25 147 25 26 0 28 -3 28 -39 0 -29 6 -42 23 -53 55 -36 117 -27 117 16 0 25 -35 60 -71 71 -10 4 -19 14 -19 23 0 21 -27 62 -41 62 -5 0 -9 -12 -9 -27z m86 -84 c22 -24 10 -52 -25 -57 -17 -3 -21 2 -21 21 0 30 9 57 20 57 4 0 15 -9 26 -21z"></path>  <path d="M6030 7585 c0 -3 2 -5 5 -5 3 0 5 2 5 5 0 3 -2 5 -5 5 -3 0 -5 -2 -5 -5z"></path>  <path d="M5964 7554 c-33 -15 -82 -27 -140 -33 -84 -9 -90 -11 -122 -46 -26 -28 -32 -42 -28 -61 4 -14 2 -24 -4 -24 -5 0 -10 8 -10 18 -1 15 -2 15 -15 -2 -33 -44 -14 -66 55 -66 54 0 67 24 34 63 -28 34 -31 63 -6 75 9 5 48 12 85 15 68 6 175 46 198 73 14 17 15 17 -47 -12z"></path>  <path d="M6279 7529 c-16 -18 -39 -46 -50 -63 -13 -19 -5 -13 23 17 44 48 78 61 78 29 0 -10 -6 -24 -12 -32 -11 -12 -10 -12 5 0 22 17 49 65 40 74 -16 16 -57 4 -84 -25z"></path>  <path d="M6531 7435 c-13 -25 -22 -47 -20 -49 2 -2 26 -13 52 -25 l49 -21 -21 -34 c-12 -18 -21 -39 -21 -45 0 -13 100 -61 113 -54 9 6 49 84 45 88 -2 2 -25 13 -51 24 l-48 21 21 39 c11 22 20 43 20 45 0 6 -66 41 -95 50 -16 5 -25 -3 -44 -39z"></path>  <path d="M5400 7385 c-31 -37 28 -63 118 -51 51 6 51 7 -9 -37 -27 -21 -62 -75 -55 -86 9 -15 59 -14 74 1 19 19 14 28 -13 28 -41 0 -29 25 35 76 33 26 60 50 60 55 0 4 -27 5 -60 2 -45 -4 -65 -2 -84 11 -31 20 -50 20 -66 1z"></path>  <path d="M1935 7380 c-11 -17 15 -50 53 -66 66 -28 113 -44 108 -35 -3 4 -27 16 -53 26 -49 19 -63 30 -63 54 0 9 7 11 23 8 21 -6 21 -6 3 8 -23 17 -62 20 -71 5z"></path>  <path d="M972 7345 c6 -14 8 -28 4 -32 -3 -4 -35 -1 -69 7 -34 7 -75 15 -92 18 l-30 5 48 -51 c39 -43 47 -57 47 -91 0 -40 11 -51 50 -51 42 0 32 37 -35 125 -26 34 -31 45 -18 41 77 -24 153 -22 153 4 0 26 -22 50 -45 50 -23 0 -24 -2 -13 -25z"></path>  <path d="M2098 7220 c-73 -36 -82 -50 -30 -50 21 0 162 70 162 81 0 19 -59 6 -132 -31z"></path>  <path d="M5772 7128 c-16 -16 -15 -88 3 -218 8 -58 15 -111 15 -117 0 -22 19 -14 25 10 4 13 2 68 -4 123 -6 54 -12 125 -12 157 -2 59 -6 66 -27 45z"></path>  <path d="M711 7081 c-58 -16 -44 -78 24 -107 39 -16 217 -18 250 -4 13 6 -12 8 -70 4 -79 -5 -94 -3 -122 15 -52 33 -36 81 26 81 12 0 21 5 21 10 0 11 -91 12 -129 1z"></path>  <path d="M6083 7042 c-36 -20 -149 -122 -135 -122 5 0 15 7 22 15 17 21 27 19 62 -10 37 -32 68 -32 102 0 23 21 27 32 24 66 -4 57 -31 76 -75 51z m27 -31 c12 -24 13 -81 1 -81 -4 0 -24 13 -44 28 l-36 29 22 21 c27 27 43 28 57 3z"></path>  <path d="M5491 6960 c-52 -38 8 -68 115 -57 l55 6 -54 -40 c-65 -48 -86 -81 -67 -104 18 -21 34 -19 67 10 l28 24 -30 -2 c-54 -4 -42 26 35 83 38 28 70 54 70 57 0 3 -27 3 -60 -1 -50 -6 -65 -4 -88 12 -44 31 -47 31 -71 12z"></path>  <path d="M1302 6783 c-16 -3 -22 -9 -18 -20 3 -8 6 -35 6 -59 l0 -44 55 0 55 0 0 43 c0 72 -8 87 -44 86 -17 -1 -41 -4 -54 -6z"></path>  <path d="M1542 6738 c21 -55 21 -55 -29 -72 -26 -9 -80 -37 -118 -64 -84 -56 -275 -201 -275 -208 0 -9 44 18 206 126 138 93 215 140 226 140 2 0 3 -16 4 -36 0 -24 7 -42 20 -51 35 -26 114 6 114 47 0 21 -27 46 -60 53 -18 4 -29 16 -35 39 -7 24 -17 34 -34 36 -17 3 -22 0 -19 -10z m96 -122 c-2 -12 -9 -21 -17 -21 -15 0 -23 28 -14 51 8 22 35 -4 31 -30z"></path>  <path d="M4810 6728 c0 -7 9 -27 19 -44 16 -26 37 -38 138 -73 132 -48 446 -140 453 -134 2 2 -4 19 -14 37 -15 29 -27 36 -84 51 -95 25 -387 123 -451 151 -62 28 -61 28 -61 12z"></path>  <path d="M6300 6703 c-58 -23 -102 -44 -98 -48 3 -3 25 4 49 15 72 32 138 22 87 -14 -29 -20 -6 -21 32 -1 33 17 39 39 14 49 -19 7 -63 7 -84 -1z"></path>  <path d="M1894 6660 c-11 -4 -51 -49 -88 -99 -36 -51 -85 -112 -107 -136 -40 -44 -41 -45 -16 -45 17 0 37 15 69 53 53 62 177 239 166 236 -2 0 -12 -4 -24 -9z"></path>  <path d="M6718 6644 c-70 -40 -72 -67 -9 -94 21 -8 35 -9 49 -1 18 10 19 14 7 48 -17 48 -8 57 41 44 51 -14 154 -14 154 0 0 5 -4 8 -8 5 -7 -4 -41 0 -157 19 -21 4 -44 -3 -77 -21z m-8 -29 c0 -3 -2 -5 -5 -5 -3 0 -5 2 -5 5 0 3 2 5 5 5 3 0 5 -2 5 -5z"></path>  <path d="M1808 6643 c-9 -2 -36 -30 -59 -61 -24 -31 -72 -90 -107 -129 -59 -69 -64 -91 -13 -63 18 9 144 160 190 228 22 32 21 34 -11 25z"></path>  <path d="M4679 6594 c-39 -41 -34 -129 16 -279 22 -66 41 -111 43 -100 1 11 -11 60 -28 109 -33 97 -36 131 -18 171 12 26 48 42 68 30 7 -4 20 -21 31 -39 24 -40 24 -20 0 45 -35 91 -68 110 -112 63z"></path>  <path d="M833 6543 c-68 -93 -67 -93 -45 -93 13 0 40 27 76 76 31 41 56 77 56 80 0 2 -9 4 -19 4 -12 0 -37 -25 -68 -67z"></path>  <path d="M1414 6505 c-15 -39 42 -60 121 -46 l50 9 -53 -1 c-37 0 -58 4 -69 16 -15 15 -15 17 8 26 22 9 21 10 -14 10 -25 1 -40 -4 -43 -14z"></path>  <path d="M1593 6473 c4 -3 10 -3 14 0 3 4 0 7 -7 7 -7 0 -10 -3 -7 -7z"></path>  <path d="M5980 6443 c-51 -42 -244 -462 -305 -663 -7 -23 -7 -24 15 -9 15 10 42 65 86 178 72 185 190 431 229 476 25 29 26 30 40 10 42 -60 42 -59 63 -50 20 10 19 11 -4 48 -20 31 -30 37 -58 37 -23 0 -45 -9 -66 -27z"></path>  <path d="M6217 6417 c-30 -7 -46 -21 -82 -71 -77 -108 -310 -605 -292 -623 14 -14 38 25 83 130 105 250 268 547 301 547 6 0 21 -16 33 -35 20 -32 47 -45 63 -29 8 8 -32 73 -52 83 -9 4 -33 4 -54 -2z"></path>  <path d="M680 6386 c-25 -8 -36 -14 -25 -15 76 -4 260 -24 365 -41 164 -26 484 -67 585 -76 44 -3 87 -10 96 -15 17 -9 109 16 109 30 0 9 -250 91 -275 91 -17 -1 -16 -4 10 -25 17 -14 25 -25 19 -25 -6 0 -136 18 -290 40 -316 45 -522 58 -594 36z"></path>  <path d="M5733 6284 c-24 -14 -43 -28 -43 -31 0 -3 11 2 25 11 26 17 75 22 75 7 0 -5 -7 -14 -15 -21 -28 -23 -7 -22 24 1 34 25 39 44 15 53 -26 10 -37 7 -81 -20z"></path>  <path d="M3724 6267 c-45 -39 -41 -109 15 -260 24 -64 46 -115 48 -113 4 4 -8 55 -22 88 -5 13 3 22 37 39 88 44 101 74 78 173 -19 82 -101 120 -156 73z m122 -88 c13 -10 12 -15 -6 -34 -12 -12 -39 -31 -61 -41 -37 -16 -40 -20 -35 -48 4 -24 3 -27 -5 -14 -5 10 -13 40 -16 68 -8 67 14 94 70 87 21 -3 45 -11 53 -18z"></path>  <path d="M6967 6250 c-3 -8 -13 -39 -22 -68 -9 -29 -42 -87 -72 -130 -56 -77 -75 -112 -87 -165 -5 -22 -1 -33 20 -54 l26 -26 -45 -41 c-55 -50 -63 -70 -37 -96 18 -18 23 -19 48 -6 48 25 74 61 80 113 3 26 12 54 21 61 13 11 12 11 -7 2 -19 -9 -27 -8 -43 6 -36 33 -21 85 64 222 44 71 74 158 64 184 -3 10 -6 9 -10 -2z m-127 -480 c0 -25 -31 -81 -42 -78 -22 8 -21 39 3 64 24 25 39 31 39 14z"></path>  <path d="M1143 6233 c4 -3 10 -3 14 0 3 4 0 7 -7 7 -7 0 -10 -3 -7 -7z"></path>  <path d="M1079 6210 l-24 -20 24 -20 c30 -26 52 -25 172 6 110 28 139 27 206 -12 39 -23 80 -24 67 -2 -13 21 -91 48 -141 48 -29 0 -91 -11 -138 -25 -64 -18 -92 -22 -110 -15 -27 10 -32 29 -13 48 21 21 -17 14 -43 -8z"></path>  <path d="M6182 6182 c-10 -7 -8 -11 10 -15 12 -4 33 -7 44 -7 12 0 32 -9 45 -19 24 -19 24 -19 4 -41 -20 -22 -23 -22 -114 -4 -43 8 -34 -11 9 -21 39 -9 80 -42 80 -65 0 -31 -17 -32 -57 -5 -21 14 -49 25 -63 25 l-25 0 25 -20 c47 -37 88 -51 125 -44 44 8 55 36 28 72 l-20 26 31 16 c57 28 39 82 -32 94 -20 3 -46 8 -57 11 -11 3 -26 1 -33 -3z"></path>  <path d="M2529 6088 c-36 -73 -111 -177 -116 -161 -3 7 -19 5 -51 -4 -102 -31 -103 -32 -81 -119 7 -27 17 -44 26 -44 56 0 170 108 221 209 l30 60 4 -142 c5 -153 18 -206 58 -227 48 -26 109 54 102 131 -4 38 -6 41 -16 24 -19 -34 -66 -77 -78 -73 -7 3 -21 19 -31 36 -16 28 -19 53 -18 196 1 97 -3 167 -9 171 -5 3 -23 -23 -41 -57z"></path>  <path d="M1514 6095 c10 -8 24 -16 30 -18 35 -13 -23 -14 -214 -5 -277 13 -666 5 -736 -15 -28 -8 -60 -20 -70 -26 -15 -10 -9 -11 32 -6 59 8 947 -13 1074 -24 77 -7 89 -6 130 14 l45 23 -60 17 c-33 9 -90 25 -126 36 -36 10 -79 19 -95 19 -27 -1 -28 -1 -10 -15z"></path>  <path d="M1343 5965 c-12 -8 -28 -36 -37 -62 -9 -26 -26 -57 -38 -70 -25 -27 -18 -30 17 -7 23 15 26 15 51 -5 24 -19 28 -19 56 -5 31 16 62 73 48 87 -4 5 -17 6 -27 3 -15 -5 -18 -13 -15 -36 5 -37 -12 -39 -35 -4 -14 22 -15 33 -6 67 7 23 10 43 9 44 -1 1 -12 -4 -23 -12z"></path>  <path d="M1516 5951 c-4 -5 -15 -56 -26 -113 -19 -96 -71 -304 -86 -341 -7 -18 3 -22 24 -8 17 10 55 139 86 291 37 182 37 180 21 180 -7 0 -16 -4 -19 -9z"></path>  <path d="M675 5931 c-3 -5 3 -12 14 -16 26 -8 36 -37 17 -50 -8 -7 -51 -20 -96 -30 -44 -10 -80 -21 -80 -25 0 -4 28 -17 62 -31 54 -21 64 -29 72 -57 8 -30 12 -33 45 -30 76 6 29 69 -80 107 l-53 19 39 7 c62 12 143 44 149 61 12 32 -70 74 -89 45z"></path>  <path d="M943 5914 c-41 -20 -48 -40 -20 -59 29 -20 49 -19 137 9 41 13 91 28 110 34 27 8 30 10 12 11 -13 1 -57 -11 -98 -25 -82 -28 -127 -29 -132 -1 -2 12 7 22 30 32 23 10 27 14 13 14 -11 0 -34 -7 -52 -15z"></path>  <path d="M1641 5895 c-21 -18 -31 -36 -31 -55 0 -33 -43 -229 -72 -325 -35 -115 -55 -155 -78 -155 -17 0 -18 -3 -9 -18 9 -15 8 -24 -6 -46 -22 -33 -33 -30 -67 20 -20 28 -36 77 -57 171 -16 73 -39 154 -51 180 -58 131 -178 172 -332 113 -197 -75 -364 -371 -326 -580 18 -102 79 -179 173 -221 62 -28 202 -37 282 -19 30 6 57 9 60 6 3 -3 -6 -65 -20 -138 -39 -202 -41 -218 -22 -265 17 -42 60 -73 102 -73 47 0 128 35 189 81 62 47 68 49 112 44 40 -5 54 -2 93 22 48 29 260 223 223 205 -11 -6 -51 -39 -90 -75 -78 -72 -102 -87 -139 -87 -63 0 -84 43 -45 93 34 43 22 40 -34 -9 -54 -46 -80 -88 -74 -116 4 -18 -48 -63 -96 -83 -37 -16 -106 -20 -106 -7 0 21 114 302 136 335 l26 39 27 -26 c15 -14 36 -26 47 -26 44 0 94 81 63 101 -18 11 -70 11 -88 0 -9 -6 -22 -6 -34 1 -10 5 -31 7 -45 3 l-27 -7 24 -18 24 -18 -31 -40 c-39 -49 -75 -128 -103 -225 -11 -40 -23 -80 -26 -90 -9 -29 -31 -1 -38 46 -5 35 46 376 57 381 30 16 104 69 141 100 l48 40 52 -51 c116 -112 165 -142 283 -173 68 -19 84 -20 117 -9 20 7 37 16 37 20 0 4 -24 20 -52 36 -29 16 -63 35 -75 43 -27 17 -41 7 -22 -17 52 -63 -199 131 -265 205 -18 21 -18 22 4 57 26 41 17 45 120 -51 31 -28 66 -54 78 -58 49 -16 135 34 168 96 29 56 12 144 -81 408 -70 199 -92 254 -102 257 -6 2 -25 -8 -42 -22z m-583 -150 c83 -35 110 -82 158 -276 19 -78 41 -154 50 -170 14 -29 14 -30 -20 -50 -41 -24 -69 -78 -86 -164 -7 -33 -17 -66 -22 -72 -7 -9 -38 -13 -88 -13 -174 0 -284 68 -328 203 -12 37 -22 87 -22 112 0 90 76 280 151 376 51 66 129 86 207 54z m660 -210 c63 -185 79 -292 48 -322 -3 -3 -41 26 -84 65 -44 38 -90 73 -102 77 -24 8 -24 10 14 102 14 34 33 92 43 130 25 105 23 100 33 83 4 -8 26 -69 48 -135z m-372 -326 c19 -11 34 -24 34 -28 0 -12 -129 -135 -136 -129 -3 4 2 45 12 92 20 97 29 103 90 65z m128 -255 c16 -6 23 -44 8 -44 -5 0 -19 11 -32 25 -19 20 -20 25 -8 25 9 0 23 -3 32 -6z"></path>  <path d="M937 5650 c-84 -94 -105 -240 -34 -240 36 1 104 36 122 64 26 39 38 32 33 -18 -5 -45 -5 -45 17 -30 26 17 37 58 24 91 -13 35 -33 28 -100 -33 -49 -45 -63 -53 -75 -43 -35 29 -1 178 55 237 12 12 18 22 12 22 -5 0 -29 -23 -54 -50z"></path>  <path d="M981 5321 c-12 -8 -10 -12 12 -22 52 -24 28 -48 -83 -84 -30 -10 -59 -21 -63 -25 -5 -5 16 -15 47 -24 46 -14 61 -24 83 -57 27 -41 49 -45 81 -15 18 17 -21 51 -94 81 -47 19 -55 25 -39 31 83 29 145 65 145 85 0 30 -59 49 -89 30z"></path>  <path d="M6002 5912 c-15 -10 27 -72 79 -116 l34 -28 -51 7 c-58 7 -134 -9 -134 -29 0 -19 34 -46 58 -46 26 0 28 7 5 32 -15 17 -15 20 -3 28 8 5 22 8 30 5 8 -2 49 -7 90 -10 l75 -6 -44 39 c-26 23 -50 56 -60 83 -13 34 -22 45 -41 47 -14 1 -31 -2 -38 -6z"></path>  <path d="M5620 5541 c0 -18 90 -88 128 -99 22 -7 59 -12 83 -11 l44 1 -55 12 c-59 12 -106 40 -139 81 -18 24 -61 35 -61 16z"></path>  <path d="M6795 5534 l-40 -14 35 5 c19 2 44 7 56 10 13 4 27 0 39 -11 17 -17 16 -19 -5 -36 -27 -22 -21 -23 25 -4 59 25 39 67 -29 65 -23 -1 -59 -7 -81 -15z"></path>  <path d="M2570 5404 c-49 -38 -67 -69 -64 -111 1 -16 2 -41 3 -56 3 -64 116 -140 496 -330 228 -114 535 -239 535 -219 0 4 -8 21 -18 37 -16 26 -54 45 -248 127 -299 127 -731 359 -747 402 -3 7 18 31 49 56 52 42 55 46 52 87 -1 24 -4 43 -7 43 -3 0 -26 -16 -51 -36z"></path>  <path d="M5100 5360 c-46 -33 -85 -62 -87 -64 -3 -2 12 -36 32 -76 l36 -72 -26 -28 c-14 -15 -51 -45 -80 -66 -30 -22 -55 -45 -55 -52 0 -15 78 -152 87 -152 10 0 173 135 173 143 0 11 -39 87 -61 119 l-19 26 79 56 c44 30 82 60 86 66 6 9 -53 131 -74 152 -4 4 -44 -19 -91 -52z"></path>  <path d="M4135 5370 c11 -34 35 -70 47 -70 6 0 -4 -13 -21 -29 -32 -30 -32 -30 -16 -67 17 -40 38 -60 73 -70 32 -9 45 8 37 46 -7 30 -8 30 -25 15 -15 -13 -23 -14 -39 -5 -30 16 -26 25 20 45 39 18 41 18 85 -3 l45 -22 -3 22 c-2 16 -26 36 -80 68 -42 25 -89 56 -104 70 l-26 25 7 -25z"></path>  <path d="M3650 5330 c0 -82 -11 -354 -13 -357 -2 -1 -36 18 -75 42 -40 25 -75 45 -79 45 -3 0 31 -30 75 -66 l82 -66 -6 -197 c-4 -108 -9 -198 -11 -201 -2 -2 -44 -3 -93 -1 -204 6 -373 -96 -474 -288 -93 -178 -103 -382 -37 -759 46 -255 74 -443 67 -449 -2 -2 -22 17 -45 43 -89 101 -143 261 -195 579 -67 405 -154 652 -275 778 -104 110 -242 102 -368 -20 -173 -169 -293 -536 -293 -896 0 -189 55 -526 91 -562 23 -23 24 21 6 128 -25 139 -30 469 -9 587 42 233 149 440 276 532 74 53 173 34 245 -48 70 -79 150 -313 222 -649 94 -437 182 -645 343 -810 69 -70 96 -73 128 -12 21 38 23 54 21 172 -1 134 -15 229 -73 510 -71 343 -28 581 133 732 99 92 196 127 286 103 l43 -11 -6 -57 c-3 -31 -8 -158 -12 -282 -7 -284 -72 -2133 -94 -2695 -5 -143 -10 -313 -10 -377 0 -100 -3 -124 -21 -162 l-22 -44 63 -133 c79 -166 84 -172 97 -122 6 21 34 117 63 213 64 214 155 550 165 607 7 44 0 83 -16 83 -5 0 -19 -17 -32 -37 -13 -21 -42 -66 -63 -100 -21 -35 -41 -63 -44 -63 -3 0 -4 17 -3 37 2 21 10 252 18 513 16 478 33 976 60 1715 8 220 17 498 21 617 l7 217 29 -15 c48 -25 170 -147 222 -223 61 -88 92 -191 107 -355 22 -232 0 -481 -68 -759 -34 -144 -35 -149 -19 -190 21 -56 131 -252 140 -252 13 0 45 91 76 215 60 241 93 468 110 770 18 310 47 463 115 605 57 120 108 175 200 221 138 68 276 70 411 5 98 -47 97 -47 85 -118 -7 -34 -55 -211 -107 -395 -94 -329 -151 -563 -173 -708 -21 -138 -33 -180 -59 -201 l-25 -19 23 -62 c51 -145 102 -268 110 -268 4 0 18 24 30 53 13 28 71 154 131 279 59 125 111 243 114 262 11 55 -11 54 -71 -5 -29 -29 -56 -51 -58 -48 -7 7 28 135 137 504 81 272 97 350 97 462 0 144 -50 338 -115 449 -91 155 -259 221 -455 180 -208 -44 -354 -175 -436 -391 -29 -79 -69 -270 -80 -390 -7 -75 -8 -78 -17 -45 -72 260 -156 436 -283 592 -46 57 -103 119 -128 138 l-45 35 0 184 c-1 145 2 181 12 174 107 -82 277 -227 332 -283 l69 -73 -57 -28 c-79 -40 -93 -65 -78 -134 13 -56 54 -105 101 -120 56 -18 106 63 97 160 l-5 60 47 30 c46 30 46 30 49 90 l2 60 -21 -28 c-19 -25 -107 -84 -112 -76 -72 120 -206 253 -350 350 -80 53 -97 69 -101 94 -43 268 -78 407 -112 452 -12 16 -13 13 -14 -27z m585 -992 c-11 -47 -42 -88 -68 -88 -27 0 -67 26 -67 43 0 11 112 75 133 76 5 1 5 -14 2 -31z"></path>  <path d="M3325 5283 c-25 -25 -35 -59 -35 -122 0 -59 26 -176 55 -245 26 -62 26 -36 1 44 -38 117 -39 194 -3 235 27 32 51 26 73 -17 22 -42 26 -30 9 27 -28 90 -62 117 -100 78z"></path>  <path d="M5565 5146 c-49 -41 -103 -88 -119 -105 l-30 -31 25 0 c15 0 48 21 89 57 36 31 91 75 122 99 31 23 54 44 51 48 -18 17 -57 -2 -138 -68z"></path>  <path d="M5775 5160 c4 -6 24 -19 46 -31 31 -15 40 -25 37 -42 -4 -32 -48 -34 -84 -4 -56 46 -68 38 -20 -13 40 -43 45 -53 36 -70 -15 -29 -26 -25 -56 20 -15 22 -30 40 -35 40 -4 0 -15 3 -24 6 -29 11 46 -84 76 -96 56 -24 108 8 81 50 -16 27 -17 27 21 22 38 -4 62 17 52 47 -3 11 -30 33 -60 50 -56 32 -81 39 -70 21z"></path>  <path d="M6721 5149 c-65 -13 -61 -17 15 -16 71 2 92 -11 52 -32 -13 -7 -15 -9 -5 -6 10 3 26 5 35 5 9 0 24 5 32 10 13 9 12 13 -9 30 -25 21 -49 23 -120 9z"></path>  <path d="M1977 5075 c-33 -41 -72 -49 -62 -12 5 16 0 13 -16 -11 -24 -37 -15 -59 20 -47 21 6 97 92 90 100 -3 2 -17 -11 -32 -30z"></path>  <path d="M5560 5042 c0 -13 42 -77 69 -105 36 -40 107 -74 166 -81 l50 -6 -60 18 c-33 10 -73 26 -88 37 -27 17 -77 83 -89 116 -6 16 -48 34 -48 21z"></path>  <path d="M2845 4955 c-15 -44 -66 -148 -85 -175 -11 -15 -25 -27 -32 -27 -7 0 -37 -10 -65 -22 -49 -22 -53 -26 -53 -57 0 -160 128 -99 215 102 l33 76 6 -58 c22 -202 62 -275 129 -231 40 26 52 61 38 108 l-13 42 -30 -37 c-36 -44 -69 -48 -87 -9 -7 15 -17 84 -23 153 -11 131 -21 172 -33 135z"></path>  <path d="M5380 4963 c0 -15 167 -189 175 -181 3 3 1 16 -5 29 -19 34 -5 26 215 -132 370 -264 510 -349 628 -384 90 -26 89 -12 0 34 -90 47 -150 86 -485 322 -123 86 -269 186 -325 222 -55 37 -103 70 -105 76 -4 12 -98 26 -98 14z"></path>  <path d="M4100 4924 c0 -3 7 -20 15 -39 12 -31 29 -42 127 -90 111 -54 399 -167 407 -159 2 2 -8 18 -22 37 -20 27 -51 43 -163 87 -77 30 -190 80 -251 111 -62 31 -113 55 -113 53z"></path>  <path d="M906 4888 c-17 -10 -16 -12 13 -24 17 -7 31 -20 31 -28 0 -17 -50 -52 -125 -88 -25 -12 -45 -25 -45 -29 0 -3 30 -9 66 -12 59 -4 68 -8 94 -38 28 -34 29 -34 57 -17 15 9 28 22 28 29 0 20 -70 50 -130 56 l-56 6 53 30 c95 53 122 93 79 117 -25 13 -41 12 -65 -2z"></path>  <path d="M6532 4764 c4 -4 33 -9 64 -13 62 -7 94 -32 64 -51 -11 -7 -7 -10 17 -10 50 0 56 36 10 58 -25 12 -165 27 -155 16z"></path>  <path d="M6630 4695 c0 -3 2 -5 5 -5 3 0 5 2 5 5 0 3 -2 5 -5 5 -3 0 -5 -2 -5 -5z"></path>  <path d="M990 4525 c-19 -19 -40 -35 -46 -35 -20 0 -27 19 -14 35 8 10 9 15 2 15 -17 0 -51 -50 -45 -66 11 -29 54 -15 106 36 29 27 47 50 41 50 -5 0 -25 -16 -44 -35z"></path>  <path d="M1254 4410 c-62 -84 -86 -98 -144 -85 -35 8 -40 39 -13 83 l17 27 -21 -18 c-41 -35 -75 -94 -71 -123 2 -23 9 -30 36 -35 50 -10 96 7 134 49 45 50 132 172 126 178 -3 2 -31 -32 -64 -76z"></path>  <path d="M6310 4472 c0 -9 103 -32 142 -32 9 0 21 -7 29 -16 10 -13 10 -17 -1 -24 -7 -4 -20 -6 -28 -2 -10 3 -13 1 -8 -6 9 -14 65 -16 86 -2 13 8 11 13 -10 35 -21 21 -40 27 -108 35 -46 5 -87 12 -92 15 -6 3 -10 2 -10 -3z"></path>  <path d="M2819 4408 c-30 -49 -22 -128 26 -257 21 -58 40 -100 42 -95 2 6 -10 48 -27 93 -36 97 -38 148 -9 185 17 21 24 24 40 16 10 -6 26 -23 34 -38 l16 -27 -7 34 c-6 35 -40 101 -59 113 -20 15 -36 8 -56 -24z"></path>  <path d="M2377 3628 c-62 -125 -150 -253 -155 -225 -4 21 -16 22 -32 2 -7 -8 -31 -20 -54 -26 -22 -6 -47 -16 -53 -21 -21 -17 -17 -121 6 -149 17 -21 21 -22 49 -10 62 26 194 190 254 317 l33 69 3 -50 c13 -272 34 -361 91 -385 29 -12 35 -11 59 7 40 30 61 95 49 149 -11 49 -22 56 -31 21 -6 -27 -43 -77 -56 -77 -18 0 -51 45 -61 82 -5 21 -14 118 -19 214 -4 97 -12 180 -18 186 -6 6 -29 -31 -65 -104z"></path>  <path d="M4692 3697 c-69 -71 -78 -176 -38 -440 14 -89 28 -183 31 -209 3 -27 10 -48 15 -48 5 0 7 12 5 28 -30 174 -55 395 -50 437 9 68 39 127 75 149 28 16 33 16 54 3 12 -9 32 -39 44 -69 20 -50 21 -51 21 -20 1 36 -32 144 -55 180 -22 33 -63 29 -102 -11z"></path>  <path d="M2070 2972 c0 -16 78 -82 165 -138 50 -33 183 -115 298 -183 225 -136 382 -247 466 -331 55 -55 111 -134 111 -157 0 -7 -35 -30 -77 -52 -43 -21 -89 -51 -102 -65 -50 -53 -22 -184 52 -237 47 -34 75 -36 110 -9 45 35 71 105 72 193 l2 78 50 34 c74 50 103 107 88 177 -7 28 -8 29 -18 12 -16 -31 -59 -75 -99 -100 -46 -30 -54 -30 -62 -1 -11 43 -97 175 -157 240 -117 128 -194 178 -566 366 -111 56 -229 120 -263 142 -64 41 -70 44 -70 31z m1060 -945 c0 -36 -47 -122 -75 -137 -28 -15 -71 -2 -101 31 -16 17 -16 21 -3 35 16 15 158 93 172 94 4 0 7 -10 7 -23z"></path>  <path d="M2521 2339 c-40 -43 -50 -118 -27 -204 15 -58 94 -277 103 -285 11 -10 -10 68 -48 181 -44 130 -45 138 -23 185 28 58 71 56 105 -5 l20 -36 -6 45 c-3 25 -16 65 -28 90 -27 54 -62 65 -96 29z"></path>  <path d="M4161 2252 c-66 -33 -76 -58 -77 -200 0 -70 -4 -146 -8 -169 -12 -64 22 -150 38 -95 14 51 16 85 7 167 -11 110 -6 147 25 180 39 42 106 28 145 -31 23 -35 25 -112 5 -197 -11 -46 -11 -69 -2 -110 11 -46 13 -50 23 -32 6 11 20 68 31 125 25 132 45 182 88 220 27 23 44 30 77 30 24 0 52 -6 62 -14 19 -13 18 -16 -17 -92 -59 -130 -65 -154 -60 -242 2 -40 17 -35 26 8 3 17 28 79 56 139 56 120 62 168 31 236 -23 51 -41 66 -90 72 -64 9 -122 -31 -159 -108 l-29 -61 -7 39 c-12 65 -44 120 -80 137 -42 20 -43 20 -85 -2z"></path>  <path d="M4273 1549 c1 -152 -30 -246 -119 -361 -41 -53 -44 -59 -38 -102 4 -26 10 -45 14 -44 20 8 95 110 126 173 46 95 62 202 46 319 -17 131 -30 137 -29 15z"></path>  <path d="M3136 1580 c-34 -41 -42 -91 -27 -175 15 -88 73 -303 78 -288 2 6 -10 62 -27 124 -33 126 -37 176 -16 218 32 61 72 64 107 8 24 -40 24 -31 -1 54 -28 95 -67 114 -114 59z"></path>  </g> <g id="layer102" fill="#fefefe" stroke="none">  <path d="M0 5310 l0 -5310 3680 0 3680 0 0 5310 0 5310 -3680 0 -3680 0 0 -5310z m3693 4763 c-7 -3 -9 -11 -6 -20 4 -11 2 -14 -5 -9 -7 4 -12 16 -12 26 0 14 5 18 17 13 10 -4 12 -8 6 -10z m-173 -22 c-9 -19 -30 -29 -30 -16 0 7 34 42 38 39 2 -1 -1 -12 -8 -23z m569 -15 c19 -14 41 -22 54 -19 20 4 20 3 4 -7 -15 -10 -25 -7 -58 15 -35 25 -45 35 -36 35 2 0 18 -11 36 -24z m-856 -12 c15 -8 27 -19 27 -25 0 -5 -13 -3 -30 6 -16 8 -47 15 -69 15 -34 0 -43 -5 -55 -27 -13 -24 -15 -25 -15 -8 -1 59 65 77 142 39z m127 -21 c8 -8 -9 -3 -37 11 -29 15 -53 28 -53 31 0 8 75 -27 90 -42z m187 20 c-4 -3 -7 0 -7 7 0 7 3 10 7 7 3 -4 3 -10 0 -14z m283 12 c0 -3 -2 -5 -5 -5 -3 0 -5 2 -5 5 0 3 2 5 5 5 3 0 5 -2 5 -5z m201 -17 c21 -12 41 -30 45 -40 6 -19 12 -21 89 -20 50 0 65 -9 65 -38 0 -11 -2 -12 -8 -2 -13 20 -133 24 -148 4 -15 -20 -44 -9 -44 18 0 18 10 25 33 21 4 0 7 4 7 9 0 6 -20 20 -44 32 -38 18 -47 19 -61 8 -14 -12 -13 -15 7 -37 20 -21 12 -19 -53 14 -80 40 -89 53 -22 30 37 -13 41 -12 52 5 15 24 35 23 82 -4z m-261 -8 c11 -11 20 -26 20 -32 -1 -8 -6 -5 -15 5 -7 10 -22 25 -32 32 -10 9 -13 14 -5 15 6 0 21 -9 32 -20z m-82 -13 c7 -6 18 -20 24 -31 8 -16 3 -14 -23 9 -19 16 -38 34 -44 38 -14 12 27 -4 43 -16z m-228 -12 c13 -14 21 -27 18 -30 -2 -3 -17 9 -33 25 -16 17 -24 30 -19 30 6 0 21 -11 34 -25z m727 18 c-4 -3 -10 -3 -14 0 -3 4 0 7 7 7 7 0 10 -3 7 -7z m-1030 -30 c-4 -3 -7 0 -7 7 0 7 3 10 7 7 3 -4 3 -10 0 -14z m155 -17 c36 -7 73 -40 62 -58 -10 -15 -42 -8 -72 17 -22 18 -32 21 -40 13 -9 -9 -12 -8 -12 4 0 25 12 51 19 40 3 -5 23 -12 43 -16z m293 8 c19 -3 35 -9 35 -14 0 -8 -68 -30 -94 -30 -24 0 -19 18 7 23 20 3 21 4 3 12 -24 10 -49 -5 -58 -36 -4 -13 -11 -40 -17 -59 -9 -32 -10 -31 -5 15 3 28 10 63 16 78 10 26 15 28 45 23 18 -3 49 -9 68 -12z m310 -24 c4 -7 -3 -8 -22 -4 -35 8 -37 10 -28 23 7 12 39 -1 50 -19z m-781 -16 c3 -8 2 -12 -4 -9 -6 3 -10 1 -10 -6 0 -10 -3 -10 -11 -2 -11 11 -5 33 11 33 4 0 11 -7 14 -16z m326 2 c0 -20 -49 -76 -66 -76 -8 0 -14 9 -14 20 0 15 7 20 25 20 17 0 29 8 37 25 13 28 18 31 18 11z m337 -24 c-1 -20 -6 -43 -10 -49 -4 -6 -3 -13 2 -15 5 -1 3 -12 -5 -22 -14 -19 -14 -19 -14 -1 0 22 23 125 28 125 2 0 1 -17 -1 -38z m-97 19 c0 -16 -51 -71 -66 -71 -24 0 -15 27 11 34 13 3 29 15 35 26 11 21 20 26 20 11z m205 -11 c9 8 15 8 15 2 0 -6 -5 -14 -11 -18 -6 -3 -8 -18 -5 -33 5 -22 5 -23 -5 -8 -10 18 -12 18 -30 1 -23 -21 -25 -8 -3 17 12 14 13 22 4 41 -10 22 -10 22 4 4 13 -16 18 -17 31 -6z m90 -5 c0 -14 -6 -25 -12 -25 -14 0 -16 10 -7 34 9 24 19 19 19 -9z m-269 -18 c-1 -13 -5 -28 -9 -34 -4 -6 -2 -13 4 -15 7 -2 5 -9 -5 -17 -14 -12 -16 -11 -16 6 0 20 19 83 25 83 2 0 3 -10 1 -23z m-166 -6 c0 -12 -20 -25 -27 -18 -7 7 6 27 18 27 5 0 9 -4 9 -9z m570 -16 c19 -14 30 -25 24 -25 -10 1 -73 50 -63 50 3 0 20 -11 39 -25z m-910 6 c0 -17 -18 -21 -24 -6 -3 9 0 15 9 15 8 0 15 -4 15 -9z m47 -8 c-4 -3 -7 0 -7 7 0 7 3 10 7 7 3 -4 3 -10 0 -14z m798 -33 c-10 -11 -22 -17 -28 -13 -5 3 1 14 14 24 30 22 38 16 14 -11z m-870 -19 c-3 -6 -11 -11 -17 -11 -6 0 -6 6 2 15 14 17 26 13 15 -4z m984 6 c-9 -7 -14 -19 -11 -27 4 -12 2 -12 -8 -3 -11 10 -11 15 0 28 7 8 18 15 24 15 6 0 4 -6 -5 -13z m-809 -39 c0 -11 -48 -10 -55 2 -3 6 1 10 9 10 10 0 13 6 9 18 -6 15 -4 15 15 -2 12 -11 22 -23 22 -28z m725 -26 c-7 -7 -113 38 -125 54 -7 7 20 -1 59 -18 39 -18 69 -34 66 -36z m-501 32 c4 -10 -3 -14 -24 -14 -27 0 -29 2 -18 19 12 20 33 18 42 -5z m305 10 c5 4 12 2 15 -3 9 -14 -14 -25 -26 -13 -6 6 -17 8 -24 5 -8 -3 -14 -1 -14 4 0 17 13 23 26 12 7 -6 18 -8 23 -5z m191 11 c0 -3 -2 -5 -5 -5 -3 0 -5 2 -5 5 0 3 2 5 5 5 3 0 5 -2 5 -5z m-863 -12 c-4 -3 -10 -3 -14 0 -3 4 0 7 7 7 7 0 10 -3 7 -7z m299 -60 c-6 -6 -106 49 -106 59 0 3 25 -7 56 -24 30 -17 53 -32 50 -35z m439 7 c-10 -11 -21 -18 -23 -15 -3 3 3 12 14 20 27 20 30 18 9 -5z m-557 -10 c-12 -19 -28 -27 -28 -14 0 6 30 33 38 34 1 0 -3 -9 -10 -20z m459 -15 c-13 -10 -15 -14 -5 -18 9 -4 9 -6 1 -6 -21 -2 -25 20 -7 34 11 7 21 11 24 8 3 -2 -3 -11 -13 -18z m-217 10 c0 -3 -2 -5 -5 -5 -3 0 -5 2 -5 5 0 3 2 5 5 5 3 0 5 -2 5 -5z m110 -15 c10 -18 8 -20 -20 -20 -16 0 -30 5 -30 10 0 6 7 10 16 10 8 0 12 5 9 10 -3 6 -2 10 4 10 6 0 15 -9 21 -20z m240 16 c0 -3 -4 -8 -10 -11 -5 -3 -10 -1 -10 4 0 6 5 11 10 11 6 0 10 -2 10 -4z m-560 -16 c0 -5 -5 -10 -11 -10 -5 0 -7 5 -4 10 3 6 8 10 11 10 2 0 4 -4 4 -10z m529 -453 c6 -8 13 -29 16 -48 5 -29 4 -30 -4 -11 -13 29 -39 28 -52 -1 -8 -17 -5 -41 10 -97 26 -93 19 -105 -8 -15 -25 81 -27 142 -4 167 19 22 27 22 42 5z m-430 -16 c144 -55 330 -232 382 -366 l12 -30 13 57 c25 106 74 156 159 161 29 2 40 11 72 56 49 69 80 92 135 98 99 11 211 -77 335 -266 l60 -90 12 37 c18 53 61 113 101 140 28 19 44 23 79 19 87 -10 120 -56 176 -246 35 -118 92 -246 134 -300 l18 -23 22 43 c37 72 88 125 143 153 112 56 198 22 263 -103 22 -43 75 -196 75 -216 0 -20 4 -19 53 12 32 21 54 28 95 28 48 0 57 -4 82 -32 16 -18 34 -49 40 -70 29 -100 20 -372 -15 -474 -9 -24 -29 -61 -46 -81 -16 -21 -28 -38 -25 -38 3 0 36 16 74 36 86 45 148 54 203 29 23 -11 47 -31 55 -47 8 -16 18 -28 22 -26 94 50 181 55 231 12 59 -49 52 -101 -41 -344 -24 -63 -50 -137 -57 -165 -13 -50 -30 -165 -24 -165 1 0 42 23 90 50 102 58 147 73 221 73 59 0 96 -20 122 -66 58 -103 -160 -514 -289 -542 -55 -12 -42 -22 37 -28 117 -9 160 -28 234 -105 75 -78 126 -158 111 -173 -6 -6 -30 -13 -53 -16 -35 -5 -46 -2 -57 13 -29 40 -129 137 -157 151 -38 20 -67 10 -105 -33 -47 -53 -39 -72 43 -114 37 -20 81 -48 95 -63 15 -15 39 -27 52 -28 24 0 24 0 2 -9 -21 -8 -21 -10 -7 -56 20 -66 18 -148 -7 -267 -24 -116 -56 -206 -93 -266 -14 -22 -26 -44 -26 -49 0 -5 18 -15 41 -22 50 -17 131 -87 153 -134 21 -44 20 -90 -1 -107 -26 -22 -136 -14 -276 20 -126 30 -227 40 -227 22 0 -10 101 -51 125 -51 29 0 146 -48 180 -75 48 -36 84 -92 93 -145 7 -41 9 -44 61 -62 77 -26 76 -31 -4 -26 -65 4 -72 3 -102 -23 -18 -16 -52 -33 -75 -40 -42 -11 -155 -7 -190 6 -34 13 -17 -10 27 -37 57 -35 97 -95 102 -156 10 -121 -111 -177 -249 -114 -24 11 -89 65 -148 123 -104 102 -105 103 -110 74 -5 -29 -6 -28 -54 40 -69 99 -69 99 -10 90 27 -4 51 -11 52 -16 2 -5 36 -34 75 -63 40 -30 110 -93 157 -140 94 -96 114 -103 154 -56 37 44 42 89 17 139 -22 43 -66 76 -193 145 -68 37 -188 131 -188 147 0 5 23 9 50 9 46 0 58 -5 123 -54 130 -98 211 -123 300 -92 44 16 81 46 70 57 -5 3 -33 15 -63 24 -65 21 -522 198 -629 244 -86 37 -90 37 -66 11 22 -25 13 -37 -17 -23 -42 20 -198 140 -191 146 16 17 99 6 157 -21 34 -16 144 -62 246 -102 102 -40 276 -109 388 -153 111 -44 205 -78 208 -74 12 11 -34 93 -69 124 -22 19 -61 39 -95 49 -158 44 -192 56 -222 76 -18 13 -35 28 -37 35 -11 32 156 47 247 23 25 -7 91 -20 148 -30 113 -20 164 -14 182 20 23 43 -50 135 -128 161 -26 9 -40 8 -68 -6 -82 -39 -193 -42 -310 -9 -14 4 -34 -6 -70 -36 -27 -22 -66 -46 -86 -52 -43 -13 -44 -17 -23 -58 15 -28 14 -30 -3 -30 -20 0 -45 24 -55 51 -3 9 -22 20 -44 24 -37 7 -73 30 -73 47 0 22 42 48 79 48 42 0 55 -10 65 -52 3 -16 11 -28 17 -28 24 0 140 94 128 104 -6 5 -274 96 -284 96 -5 0 2 -12 16 -26 l24 -27 -30 7 c-31 8 -221 111 -229 125 -3 5 13 12 36 15 44 7 58 4 386 -101 l142 -45 49 37 48 37 -33 49 c-59 88 -55 159 13 251 36 50 157 146 242 195 28 15 51 33 51 39 0 22 -66 70 -127 93 -67 25 -78 41 -58 87 27 63 110 114 184 114 44 0 61 14 34 28 -29 16 -155 32 -245 32 -142 0 -352 35 -433 72 -32 14 -25 23 34 43 47 15 53 15 159 -9 114 -27 291 -44 335 -32 53 13 196 264 230 402 18 72 13 105 -19 135 -21 19 -31 21 -89 17 -57 -5 -75 -12 -140 -54 -75 -48 -76 -49 -69 -84 3 -19 10 -43 15 -52 15 -27 107 -97 137 -104 56 -12 57 -14 11 -44 -24 -17 -53 -30 -64 -30 -11 0 -49 14 -84 30 -54 26 -72 30 -110 24 -42 -6 -297 -59 -331 -69 -8 -3 -28 -36 -44 -75 -15 -38 -48 -99 -72 -134 l-43 -65 36 -22 c34 -21 35 -23 14 -30 -23 -9 -48 -3 -72 17 -11 10 -24 11 -53 3 -21 -6 -49 -8 -62 -5 -50 13 -19 92 43 110 15 5 31 -1 56 -23 l34 -30 21 37 c29 53 93 202 85 202 -13 0 -89 -24 -96 -30 -5 -4 6 -10 24 -14 24 -4 30 -9 22 -17 -14 -14 -273 -26 -272 -13 1 15 70 67 87 66 9 0 73 16 141 36 l123 37 30 59 c16 32 32 56 34 53 3 -3 -1 -18 -9 -34 -21 -42 -31 -77 -19 -69 8 5 202 50 310 71 22 5 32 11 28 20 -42 111 -33 186 60 463 84 253 91 305 49 347 -29 30 -56 31 -112 5 -38 -17 -43 -23 -43 -53 0 -42 -40 -105 -115 -179 -54 -54 -56 -58 -31 -58 90 0 148 -69 126 -150 -11 -42 -76 -106 -134 -134 -35 -17 -156 -23 -156 -8 0 5 13 22 29 37 26 27 35 29 102 29 l74 1 3 33 c4 42 -19 78 -62 98 -52 25 -125 4 -289 -82 -254 -133 -385 -196 -398 -192 -8 3 -1 16 19 39 20 23 108 78 254 159 448 247 498 282 498 347 0 69 -59 133 -124 133 -14 0 -71 -24 -128 -54 -162 -85 -328 -138 -474 -152 l-69 -6 44 45 c28 30 55 47 78 52 67 12 269 77 335 107 l67 30 12 67 c7 42 10 129 7 231 -4 152 -6 169 -30 222 -32 70 -56 85 -110 68 l-40 -11 9 -52 c14 -87 9 -149 -17 -200 -54 -107 -130 -165 -229 -174 -55 -5 -60 -4 -76 21 -37 56 -3 200 53 225 29 14 75 14 88 1 8 -8 24 11 52 61 23 39 42 77 42 84 0 43 -89 236 -129 278 -85 93 -202 66 -285 -64 -15 -24 -15 -27 1 -41 60 -53 145 -68 228 -40 33 11 61 19 62 18 2 -1 -4 -26 -12 -54 -18 -61 -48 -81 -135 -93 -51 -7 -59 -12 -118 -75 -51 -55 -267 -333 -296 -382 -7 -12 -4 -12 14 -2 52 28 28 -8 -64 -96 -54 -52 -101 -94 -104 -94 -2 0 -2 21 1 46 3 29 13 55 29 72 14 15 45 56 69 92 77 116 265 365 323 429 30 32 30 33 11 45 -40 23 -122 115 -152 172 -17 33 -47 104 -66 159 -69 200 -96 260 -130 293 -47 46 -94 52 -134 18 -44 -37 -61 -99 -58 -224 1 -95 3 -104 27 -130 37 -40 48 -65 48 -114 -1 -84 -44 -144 -128 -178 -29 -11 -30 -14 -16 -25 15 -11 15 -12 -2 -19 -59 -24 -158 -55 -162 -51 -10 9 22 87 37 93 9 3 32 18 52 34 20 15 66 41 102 57 35 16 68 34 72 41 7 12 -38 75 -68 94 -12 8 -21 5 -39 -11 -30 -29 -89 -53 -128 -53 -23 0 -35 7 -49 31 -41 68 -35 191 12 224 41 29 98 15 175 -42 47 -35 62 -19 36 39 -23 51 -107 170 -178 252 -113 131 -243 169 -315 92 l-24 -25 26 -31 c58 -69 63 -186 17 -400 -61 -281 -99 -465 -95 -468 2 -2 8 6 15 17 16 30 34 27 26 -6 -11 -39 -88 -203 -97 -203 -5 0 -14 18 -20 40 -9 30 -9 46 -1 65 7 14 23 91 37 173 14 81 45 237 70 347 64 281 68 302 62 317 -6 16 -74 55 -82 47 -3 -3 -9 -39 -14 -80 l-8 -74 -2 78 c-1 71 -3 77 -21 77 -34 0 -79 -28 -94 -59 -9 -16 -20 -59 -26 -97 -16 -103 -54 -212 -132 -374 -72 -150 -78 -156 -92 -79 -5 30 2 55 43 146 67 149 123 313 116 340 -8 35 -139 157 -244 227 -158 106 -244 118 -277 39 -16 -37 -16 -37 13 -57 105 -76 153 -160 153 -268 0 -61 -33 -140 -73 -177 -30 -28 -70 -25 -117 9 -29 21 -80 111 -80 141 0 36 47 75 109 92 34 10 71 27 83 39 21 21 21 21 2 36 -37 29 -200 101 -272 121 -113 31 -180 36 -244 17 -75 -21 -118 -69 -118 -130 0 -76 46 -186 79 -186 70 0 167 74 201 154 l16 39 22 -35 c31 -51 28 -83 -19 -160 l-41 -68 21 -133 c29 -178 73 -387 83 -387 4 0 8 9 8 19 0 29 17 34 24 8 3 -12 6 -78 5 -147 l0 -125 -34 39 c-21 23 -35 50 -35 65 0 14 -7 51 -15 81 -26 96 -73 311 -89 410 -9 52 -18 109 -21 126 l-5 32 -65 -6 c-122 -9 -247 20 -490 115 -119 47 -147 54 -188 50 -59 -5 -87 -30 -93 -83 -7 -56 28 -118 100 -176 57 -45 153 -98 179 -98 7 0 19 16 26 35 18 50 56 92 96 105 29 10 41 8 82 -10 45 -20 173 -133 173 -154 0 -5 -10 0 -22 12 -31 28 -107 62 -141 62 -45 0 -94 -28 -111 -65 -9 -18 -23 -64 -31 -102 -20 -97 -59 -343 -54 -346 2 -2 36 -13 74 -26 39 -13 87 -35 108 -48 37 -23 39 -24 53 -6 7 10 14 24 14 31 0 6 4 12 9 12 15 0 22 -49 11 -70 -8 -15 -7 -27 5 -49 21 -42 20 -91 -2 -93 -37 -3 -58 3 -80 24 -28 27 -29 48 -2 82 11 14 18 30 14 36 -6 10 -185 70 -208 70 -6 0 -25 -40 -40 -88 -16 -48 -31 -94 -34 -102 -3 -8 14 4 39 28 66 63 118 56 118 -18 0 -24 -7 -43 -20 -55 -30 -27 -62 -82 -58 -100 5 -24 88 18 88 45 0 22 19 27 38 8 21 -21 13 -36 -31 -57 -42 -21 -100 -27 -131 -15 -26 10 -18 48 20 92 34 40 61 102 45 102 -20 0 -134 -134 -157 -185 -14 -30 -29 -53 -34 -50 -4 2 -13 25 -19 51 -10 39 -8 60 13 157 14 62 27 139 28 171 l3 59 -73 25 c-92 32 -87 40 8 12 40 -12 74 -19 76 -17 10 9 15 204 7 242 -9 40 -9 40 -59 43 -55 3 -100 -20 -137 -69 -16 -23 -18 -33 -9 -73 5 -25 8 -46 6 -46 -3 0 -22 11 -43 25 -31 21 -41 36 -54 83 -9 31 -26 73 -39 92 l-24 35 -85 -1 c-163 -3 -394 -102 -512 -220 -84 -84 -110 -197 -68 -290 25 -55 41 -65 34 -21 -9 55 26 121 78 147 52 27 103 22 187 -21 75 -37 141 -103 310 -309 176 -215 166 -205 158 -152 -5 33 -3 43 6 40 14 -5 122 -218 114 -226 -9 -9 -96 29 -96 42 0 6 -19 30 -41 51 -23 22 -118 132 -212 245 -210 254 -244 290 -274 290 -46 0 -100 -37 -122 -83 -25 -52 -26 -62 -6 -139 9 -33 13 -68 10 -78 -17 -53 -174 -66 -303 -25 -147 46 -209 42 -227 -14 -18 -57 44 -149 142 -211 l46 -29 61 43 c82 58 115 68 177 55 65 -14 127 -62 162 -126 27 -50 28 -51 60 -42 17 5 48 9 68 9 33 0 37 3 43 31 6 30 8 31 44 26 45 -8 77 -42 92 -98 23 -83 -7 -123 -62 -85 -12 9 -30 16 -40 16 -27 0 -48 29 -48 64 l0 33 -42 -8 c-58 -10 -78 -19 -78 -33 0 -19 37 -166 44 -173 3 -3 46 6 96 21 49 16 116 29 147 31 l58 2 -1 37 c-1 20 1 36 4 36 16 0 42 -37 42 -60 0 -19 7 -30 24 -38 14 -6 33 -23 42 -38 18 -26 17 -27 -5 -45 -30 -25 -76 -24 -100 0 -16 16 -19 28 -14 57 l6 37 -44 -7 c-54 -8 -231 -56 -242 -65 -8 -8 19 -91 49 -155 l19 -38 25 83 c24 78 28 84 59 93 30 9 36 7 54 -15 16 -20 18 -33 13 -86 -4 -35 -9 -68 -11 -75 -3 -7 0 -20 5 -28 9 -13 16 -9 41 20 17 20 28 43 25 52 -5 20 30 36 46 20 11 -11 -10 -58 -39 -84 -26 -24 -92 -50 -109 -44 -16 6 -18 61 -5 120 6 25 6 48 -1 65 -10 25 -12 24 -30 -34 -22 -67 -27 -141 -15 -198 l8 -39 -41 29 c-34 24 -50 48 -102 158 -33 72 -62 131 -62 132 -1 1 -21 -5 -45 -13 -59 -20 -64 -11 -6 11 35 14 44 22 40 34 -4 9 -16 50 -27 91 -11 41 -22 78 -24 82 -3 4 -48 -9 -102 -28 -108 -38 -103 -26 12 27 57 26 75 39 76 54 0 29 -57 145 -72 145 -49 0 -233 -152 -269 -221 -23 -47 -24 -59 -2 -104 15 -32 20 -35 43 -28 52 16 125 8 173 -21 72 -41 122 -144 85 -173 -46 -36 -150 -14 -219 45 l-41 36 -51 -53 -50 -52 37 -31 c45 -37 66 -76 66 -122 0 -29 -6 -38 -35 -56 -44 -27 -133 -37 -175 -20 -59 25 -76 99 -40 179 36 79 5 82 -76 9 -72 -67 -176 -204 -215 -284 -58 -123 -45 -197 44 -242 51 -27 108 -31 237 -19 97 10 100 -4 5 -21 -210 -38 -340 -17 -403 66 -74 97 11 302 197 475 77 71 127 97 200 104 53 6 60 10 124 74 l68 68 -40 67 c-57 95 -54 137 15 214 20 22 35 42 33 44 -2 1 -22 13 -44 26 -59 36 -144 119 -168 165 -12 23 -21 61 -21 88 -1 40 3 52 23 68 33 27 76 24 185 -16 109 -39 181 -45 245 -19 71 28 67 63 -17 150 -116 118 -123 256 -22 384 129 163 512 286 660 213 25 -13 63 -39 84 -59 l38 -36 29 35 c41 50 103 72 158 57 59 -16 114 -74 138 -146 l20 -59 12 80 c6 44 14 96 17 116 l5 37 -84 40 c-98 48 -177 115 -206 175 -40 83 -22 201 38 248 40 32 103 21 266 -50 146 -63 224 -87 313 -98 55 -6 61 -1 36 32 -8 11 -26 55 -39 98 -40 127 -19 207 70 269 22 15 59 30 82 34 56 8 177 -17 283 -60 l84 -34 16 64 c29 115 83 145 189 105z m-911 -278 c5 -92 16 -102 63 -64 32 25 59 11 59 -30 0 -40 -16 -69 -39 -69 -20 0 -101 81 -101 102 -1 7 -2 51 -4 97 -3 63 -1 79 7 65 6 -10 13 -56 15 -101z m1812 -50 c14 -19 20 -38 18 -62 -3 -32 -9 -39 -48 -58 -28 -13 -47 -30 -51 -45 -5 -16 -7 -10 -8 24 -1 46 -1 46 44 64 48 18 52 23 33 42 -21 21 -56 14 -73 -15 l-16 -28 6 40 c4 22 11 46 17 53 18 21 55 14 78 -15z m2595 -22 c-3 -6 -11 -8 -17 -5 -6 4 -5 9 3 15 16 10 23 4 14 -10z m-1719 -46 c3 -13 1 -37 -4 -52 -10 -26 -10 -26 -11 -5 -1 12 -8 25 -18 29 -25 10 -53 -32 -54 -81 -1 -22 -5 -54 -10 -71 -5 -18 -6 1 -2 50 6 84 21 127 50 144 29 17 42 13 49 -14z m-1596 -65 c0 -104 12 -120 57 -79 21 21 23 21 29 4 10 -25 -17 -69 -44 -73 -29 -4 -52 48 -52 120 l0 53 -30 -51 c-31 -55 -79 -100 -90 -87 -4 4 -10 21 -14 36 -6 25 -3 29 29 43 24 10 47 31 67 64 17 27 35 47 39 44 5 -3 9 -36 9 -74z m1195 35 c46 -45 29 -118 -30 -129 -29 -6 -35 -11 -35 -32 0 -14 -4 -23 -9 -20 -4 3 -11 40 -15 82 -5 61 -3 82 9 101 20 30 50 29 80 -2z m-2827 -92 c15 -7 15 -11 -3 -63 -20 -57 -20 -57 25 -80 22 -11 40 -24 40 -29 0 -20 -43 -121 -52 -121 -11 0 -88 39 -88 45 0 2 9 27 20 55 11 28 20 53 20 55 0 3 -18 14 -40 25 -46 23 -46 25 -23 96 l16 53 36 -15 c20 -9 42 -18 49 -21z m303 -10 c15 -9 31 -24 34 -32 5 -13 4 -14 -6 -3 -21 20 -49 15 -49 -10 0 -15 19 -41 57 -76 32 -29 49 -49 37 -43 -11 5 -44 32 -72 58 -41 38 -52 56 -52 79 0 48 8 52 51 27z m1949 -82 c5 -11 10 -30 10 -42 0 -22 -1 -22 -13 -4 -26 34 -40 8 -33 -59 7 -76 -10 -56 -20 22 -7 58 6 102 30 102 9 0 20 -9 26 -19z m-291 -19 c5 -9 12 -35 15 -57 l6 -40 -15 33 c-17 36 -26 39 -45 17 -10 -12 -10 -28 -1 -72 15 -78 12 -123 -4 -58 -18 71 -18 146 1 173 18 27 30 28 43 4z m-2199 -13 l35 -20 -33 7 c-31 5 -33 4 -30 -17 2 -16 18 -31 51 -47 26 -14 46 -27 43 -29 -6 -7 -88 37 -113 60 -31 28 -30 68 1 67 6 -1 27 -10 46 -21z m1652 -94 c26 -4 54 -21 93 -57 87 -79 69 -105 -73 -110 -62 -2 -64 -2 -97 37 l-33 40 80 6 c111 9 116 21 21 54 -43 16 -82 32 -88 37 -10 9 -1 9 97 -7z m-503 -41 c12 -15 21 -33 21 -41 0 -11 -6 -8 -18 7 -21 26 -42 20 -42 -11 0 -10 21 -57 46 -104 25 -47 44 -90 41 -97 -2 -7 -14 8 -25 35 -12 26 -33 64 -47 85 -34 50 -49 106 -35 132 15 27 35 25 59 -6z m1985 -34 c4 -27 8 -50 9 -50 1 0 24 7 51 15 28 8 53 12 57 8 3 -5 9 -29 12 -54 l6 -46 -56 -16 c-31 -9 -59 -14 -63 -12 -4 3 -11 26 -15 51 -7 51 3 48 -94 28 -27 -6 -29 -4 -35 41 -4 26 -5 50 -1 53 7 8 82 30 106 31 12 1 18 -12 23 -49z m-532 -19 c0 -23 -2 -45 -6 -48 -3 -4 -6 5 -6 20 0 33 -14 42 -34 21 -11 -10 -16 -34 -16 -69 0 -30 -4 -56 -8 -59 -8 -5 -6 71 4 131 5 34 42 69 57 54 4 -4 8 -27 9 -50z m-222 30 c0 -5 41 -63 92 -128 104 -134 156 -215 165 -256 7 -34 24 -43 52 -27 19 10 21 8 21 -16 0 -19 -7 -28 -30 -37 -22 -8 -30 -18 -30 -35 0 -30 -25 -78 -45 -86 -27 -10 -54 12 -66 53 -15 51 -1 77 51 92 22 7 40 16 40 21 0 16 -39 85 -75 132 -47 61 -195 282 -195 290 0 3 5 6 10 6 6 0 10 -4 10 -9z m-920 -30 c0 -10 -16 -31 -35 -45 -19 -15 -35 -32 -35 -37 0 -20 385 -194 610 -276 92 -33 130 -56 130 -76 0 -13 -36 -3 -195 57 -177 67 -501 213 -532 240 -14 12 -26 37 -30 60 -6 37 -3 42 33 72 40 34 54 35 54 5z m-445 -96 c33 -32 31 -67 -6 -109 -25 -29 -28 -39 -20 -55 22 -41 10 -33 -32 21 -58 75 -73 112 -59 143 16 35 83 35 117 0z m1075 -75 c0 -41 -5 -72 -12 -76 -8 -5 -9 5 -5 39 7 47 -6 65 -18 27 -9 -27 -95 -101 -114 -98 -10 2 -17 16 -19 35 -3 28 0 33 25 38 53 12 70 23 99 68 15 25 32 43 36 41 4 -3 8 -36 8 -74z m985 13 c-18 -43 -36 -66 -85 -108 -19 -16 -48 -42 -65 -58 l-30 -27 28 -25 c15 -14 35 -25 43 -25 8 0 14 -10 14 -24 0 -25 -30 -51 -73 -61 -19 -5 -27 -15 -32 -43 -4 -23 -9 -31 -15 -23 -6 10 -9 10 -15 1 -13 -22 -98 -70 -123 -70 -20 0 -23 4 -18 23 3 12 6 28 6 35 0 8 15 12 43 12 34 0 50 7 85 38 41 36 42 39 46 108 2 39 8 78 12 86 5 9 37 39 72 67 34 29 74 70 89 92 32 49 38 50 18 2z m-3200 -100 c62 -53 90 -57 81 -12 -6 31 -5 31 17 17 13 -9 23 -28 25 -47 3 -27 0 -31 -21 -31 -24 0 -90 42 -116 73 -23 28 -31 19 -15 -18 7 -19 14 -59 14 -90 0 -60 -15 -72 -51 -39 -17 15 -17 18 -1 50 17 36 17 32 -16 149 -6 23 -3 21 83 -52z m256 36 c19 -7 37 -15 42 -18 6 -6 -17 -102 -29 -123 -3 -4 -26 2 -53 14 l-49 20 14 40 c8 22 14 49 14 59 0 22 13 24 61 8z m3406 -50 c-3 -23 -10 -46 -15 -51 -6 -6 -8 -1 -5 15 3 14 0 28 -6 32 -21 12 -40 -16 -62 -87 -11 -39 -23 -68 -25 -65 -9 9 37 146 58 172 11 14 29 25 40 25 18 0 20 -4 15 -41z m-1387 -2 c0 -13 -9 -32 -21 -43 -20 -18 -21 -18 -35 1 -8 10 -14 28 -14 39 0 17 2 18 10 6 8 -13 11 -13 27 3 23 23 33 22 33 -6z m332 -21 c5 -22 4 -45 -2 -54 -8 -14 -9 -12 -10 10 0 15 -4 29 -9 32 -14 9 -44 -31 -52 -72 -7 -30 -8 -26 -4 22 3 43 10 65 26 82 29 31 42 26 51 -20z m-913 -5 c25 -34 27 -49 6 -31 -19 15 -45 6 -45 -16 0 -10 11 -37 25 -61 14 -23 22 -43 17 -43 -11 0 -62 110 -62 133 0 52 29 61 59 18z m2814 -68 c10 -48 32 -129 48 -181 27 -83 29 -96 16 -109 -13 -13 -18 -6 -40 59 -49 138 -81 286 -65 305 6 7 13 13 17 13 4 0 15 -39 24 -87z m-3523 22 c63 -7 176 -17 250 -21 99 -5 140 -11 153 -22 32 -28 19 -33 -65 -27 -424 31 -460 37 -484 72 -16 26 -16 26 7 19 13 -4 76 -13 139 -21z m1557 -132 c-3 -10 -5 -2 -5 17 0 19 2 27 5 18 2 -10 2 -26 0 -35z m1893 28 c0 -10 -9 -29 -20 -42 -13 -16 -18 -18 -14 -7 3 9 3 22 0 27 -11 17 -35 1 -58 -40 -23 -41 -38 -47 -18 -7 28 54 61 88 86 88 17 0 24 -6 24 -19z m-3194 -32 c19 -21 19 -21 -1 -18 -31 6 -30 -29 2 -64 l28 -30 -33 22 c-43 30 -65 65 -57 91 8 26 37 26 61 -1z m-801 -3 c23 -7 41 -19 43 -29 3 -16 -77 -110 -109 -128 -17 -9 -109 16 -109 29 0 4 15 17 34 29 19 12 44 36 56 53 l23 32 -34 -7 c-19 -3 -55 -13 -82 -22 -72 -22 -77 -11 -11 25 65 34 119 40 189 18z m3047 2 c27 -8 38 -16 36 -27 -4 -18 -43 -20 -92 -6 -28 8 -28 7 -21 -26 14 -72 140 -438 217 -631 24 -61 28 -82 21 -105 -9 -27 -10 -27 -21 -7 -18 35 -177 461 -212 569 -17 55 -34 121 -37 146 -5 42 -3 47 27 72 37 31 32 30 82 15z m590 -57 c-2 -24 -41 -86 -48 -78 -3 2 1 17 8 31 9 22 9 29 -1 35 -26 16 -52 -2 -98 -68 -56 -80 -63 -88 -63 -75 0 18 100 149 127 167 16 9 39 16 53 15 20 -2 24 -8 22 -27z m-392 -33 c31 -50 32 -55 27 -134 -2 -45 -8 -87 -12 -93 -18 -30 -172 101 -161 137 3 9 8 34 12 55 l6 38 35 -40 c36 -43 91 -86 99 -79 2 3 -7 39 -21 82 -35 108 -33 113 15 34z m-4245 29 c16 -13 15 -14 -13 -9 -27 3 -32 1 -32 -15 0 -32 22 -50 93 -73 38 -12 66 -24 63 -27 -2 -3 -35 5 -73 18 -72 24 -123 64 -123 98 0 17 6 21 33 21 18 0 41 -6 52 -13z m3542 -49 c-3 -8 -6 -5 -6 6 -1 11 2 17 5 13 3 -3 4 -12 1 -19z m24 -43 c15 5 19 1 19 -19 0 -16 -7 -27 -20 -31 -30 -9 -40 2 -40 43 1 31 2 34 11 19 7 -12 17 -16 30 -12z m-3071 0 l25 -15 -25 3 c-19 1 -25 -3 -25 -18 0 -14 16 -29 50 -48 54 -30 24 -27 -37 4 -38 19 -58 45 -58 73 0 20 36 20 70 1z m1950 -45 c80 -40 169 -111 225 -176 30 -35 58 -71 63 -80 13 -23 82 -9 82 17 0 25 16 24 23 -1 4 -15 14 -20 39 -20 19 0 57 -7 83 -15 27 -8 50 -13 52 -11 2 2 -4 32 -13 67 -14 53 -15 72 -5 109 34 126 108 99 136 -50 l7 -35 -24 35 c-13 19 -32 36 -41 38 -44 9 -68 -59 -47 -133 12 -43 15 -45 89 -76 42 -17 97 -42 123 -55 26 -13 52 -24 57 -24 7 0 12 62 13 163 l3 162 23 -60 c13 -33 33 -118 45 -189 l21 -129 132 -64 c72 -35 134 -63 137 -63 3 0 -5 25 -19 56 -34 77 -41 137 -20 169 9 14 23 25 31 25 15 0 37 -36 49 -80 l7 -25 -19 24 c-23 29 -49 23 -57 -12 -7 -26 39 -156 59 -170 23 -15 173 -58 231 -65 l60 -7 40 -77 c22 -42 37 -79 34 -83 -4 -3 -53 -15 -110 -26 -57 -11 -138 -29 -179 -40 -75 -21 -372 -119 -379 -125 -2 -2 -9 -110 -16 -241 l-13 -238 27 -23 c110 -98 141 -136 167 -206 15 -39 30 -74 34 -79 3 -4 12 51 18 122 14 150 32 217 74 284 68 107 158 153 287 145 174 -11 310 -138 342 -323 30 -177 -35 -406 -151 -523 -77 -78 -137 -82 -211 -15 -45 41 -85 112 -105 188 -19 69 -17 112 6 160 30 62 66 78 195 86 124 9 185 28 210 66 16 24 16 26 -15 58 -18 19 -65 50 -104 70 -179 90 -321 59 -393 -85 -40 -79 -49 -136 -62 -420 -26 -523 -50 -868 -72 -1030 -11 -79 -36 -170 -47 -170 -15 0 -64 186 -58 220 19 114 63 1101 51 1138 -3 11 -47 52 -98 92 l-92 73 -7 -89 c-11 -128 -38 -668 -34 -672 2 -1 17 18 32 43 30 47 54 59 54 26 0 -18 -158 -490 -167 -501 -6 -7 -18 16 -49 91 -26 67 -27 70 -10 106 12 30 21 117 36 388 12 193 24 427 27 521 l6 171 -74 48 c-113 74 -285 160 -379 190 -62 20 -114 28 -195 32 l-111 6 -53 -144 c-51 -136 -150 -353 -158 -345 -2 2 -14 48 -27 102 l-24 98 35 96 c51 141 50 135 23 120 -43 -23 -118 -110 -153 -178 -64 -122 -71 -208 -29 -351 l27 -95 80 -17 c44 -10 127 -34 184 -53 58 -20 107 -36 109 -36 2 0 2 17 0 38 -3 35 -1 37 26 37 25 0 30 5 45 55 59 187 213 317 369 312 46 -2 78 -28 111 -95 61 -120 61 -223 1 -317 -49 -77 -165 -151 -260 -166 l-38 -6 33 -44 c46 -60 97 -195 102 -269 2 -34 -2 -82 -10 -110 -27 -94 -57 -220 -63 -259 -3 -21 -9 -35 -13 -30 -5 5 -23 54 -41 109 -18 55 -47 129 -65 165 -43 86 -121 283 -135 342 -7 26 -17 52 -24 57 -33 27 -403 119 -417 103 -3 -4 -18 -38 -33 -77 -96 -248 -266 -286 -387 -86 -73 122 -74 219 0 292 50 50 124 71 246 70 l94 0 7 35 c4 20 2 46 -4 58 -26 58 -435 347 -580 410 -120 52 -233 80 -303 73 -170 -15 -286 -178 -265 -371 6 -50 78 -291 92 -305 2 -3 14 5 27 17 30 28 64 31 105 7 43 -26 75 -73 117 -176 42 -103 46 -144 7 -77 -31 54 -85 98 -119 98 -33 0 -70 -40 -79 -85 -13 -71 1 -176 33 -245 32 -70 109 -186 208 -315 70 -91 91 -125 76 -125 -22 0 -220 259 -291 379 -89 153 -131 312 -111 427 11 58 10 67 -10 106 -44 85 -99 251 -115 341 -46 265 51 455 259 507 26 7 47 15 47 19 0 3 -14 53 -31 111 -22 77 -32 133 -35 210 -5 96 -3 108 18 144 50 85 104 94 140 22 26 -50 48 -131 47 -171 l-1 -30 -15 35 c-21 50 -52 80 -83 80 -34 0 -55 -24 -70 -80 -14 -52 -9 -89 28 -227 l27 -103 40 0 c58 0 155 -25 227 -58 137 -63 421 -273 532 -393 l56 -60 0 48 c0 109 58 261 141 371 38 50 119 117 186 153 26 14 32 27 55 125 38 155 42 188 26 214 -19 31 -248 222 -343 285 -193 128 -363 182 -444 141 -70 -36 -81 -191 -25 -333 24 -60 37 -78 79 -109 117 -88 180 -158 216 -239 11 -25 24 -45 29 -45 5 0 25 16 45 35 43 44 45 73 11 173 -39 114 -38 178 3 224 26 29 31 31 54 21 25 -12 49 -67 61 -143 l6 -35 -20 42 c-33 68 -80 67 -99 -3 -7 -26 -4 -50 16 -111 44 -138 30 -235 -40 -272 -21 -11 -23 -18 -19 -67 6 -67 -18 -136 -51 -151 -54 -25 -120 38 -133 124 -8 56 9 81 80 119 31 16 56 34 56 41 0 26 -83 113 -176 184 -54 41 -104 78 -110 82 -6 4 -1 -19 11 -51 13 -31 28 -94 35 -138 13 -81 13 -82 -14 -128 -17 -28 -36 -48 -52 -52 -61 -16 -127 53 -145 152 -12 64 -6 88 32 132 16 18 35 46 44 62 18 35 23 28 -168 233 -65 70 -116 127 -114 127 7 0 256 -181 300 -217 40 -33 50 -29 32 15 -29 68 -66 216 -72 282 -8 94 15 167 67 214 47 43 71 50 153 44 133 -9 369 -153 575 -352 90 -86 127 -141 147 -216 18 -64 35 -99 35 -69 0 45 33 272 46 319 26 91 81 168 152 212 l34 21 -44 44 c-124 129 -304 206 -392 169 -20 -8 -39 -22 -42 -30 -7 -19 23 -65 87 -131 49 -52 69 -89 69 -130 0 -31 -30 -40 -106 -30 -60 7 -89 28 -100 70 -8 32 -1 40 23 26 28 -15 123 -26 123 -14 0 6 -10 18 -22 29 -34 31 -94 129 -108 178 -25 90 11 129 115 123 36 -3 79 -13 105 -27z m-1421 -54 c15 -8 34 -22 42 -32 13 -16 12 -16 -8 -6 -34 19 -53 15 -53 -11 0 -22 45 -73 81 -93 28 -16 112 -94 101 -94 -6 0 -35 20 -64 45 -29 25 -74 63 -99 85 -47 40 -63 75 -47 104 11 20 12 20 47 2z m2897 -48 c-7 -36 -25 -61 -23 -32 1 10 -6 20 -16 22 -13 3 -23 -9 -38 -43 -11 -26 -23 -44 -26 -42 -6 6 34 86 55 110 8 9 24 17 35 17 17 0 19 -5 13 -32z m-3332 -30 c9 -12 16 -30 16 -40 0 -9 9 -19 19 -23 36 -11 71 -46 71 -71 0 -43 -62 -52 -117 -16 -17 11 -23 24 -23 53 0 36 -2 39 -28 39 -15 0 -81 -11 -147 -25 -65 -13 -146 -27 -179 -30 -49 -4 -30 3 94 35 85 22 179 41 207 43 50 2 53 3 53 30 0 33 13 35 34 5z m4286 -13 c0 -3 -2 -5 -5 -5 -3 0 -5 2 -5 5 0 3 2 5 5 5 3 0 5 -2 5 -5z m-29 -19 c-23 -27 -130 -67 -198 -73 -37 -3 -76 -10 -85 -15 -25 -12 -22 -41 6 -75 33 -39 20 -63 -34 -63 -69 0 -88 22 -55 66 13 17 14 17 15 2 0 -10 5 -18 10 -18 6 0 8 10 4 24 -4 19 2 33 28 61 32 35 38 37 122 46 58 6 107 18 140 33 62 29 61 29 47 12z m352 -12 c9 -9 -18 -57 -40 -74 -15 -12 -16 -12 -5 0 6 8 12 22 12 32 0 32 -34 19 -78 -29 -28 -30 -36 -36 -23 -17 37 57 78 94 103 94 14 0 27 -3 31 -6z m270 -105 c20 -11 37 -22 37 -25 0 -2 -9 -23 -20 -45 l-21 -39 48 -21 c26 -11 49 -22 51 -24 4 -4 -36 -82 -45 -88 -13 -7 -113 41 -113 54 0 6 9 27 21 45 l21 34 -49 21 c-26 12 -50 23 -52 25 -2 2 7 24 20 49 26 49 30 50 102 14z m-1167 -65 c19 -13 39 -15 84 -11 33 3 60 2 60 -2 0 -5 -27 -29 -60 -55 -64 -51 -76 -76 -35 -76 27 0 32 -9 13 -28 -15 -15 -65 -16 -74 -1 -7 11 28 65 55 86 60 44 60 43 9 37 -90 -12 -149 14 -118 51 16 19 35 19 66 -1z m-3460 -9 c18 -14 18 -14 -3 -8 -16 3 -23 1 -23 -8 0 -24 14 -35 63 -54 26 -10 50 -22 53 -26 5 -9 -42 7 -108 35 -38 16 -64 49 -53 66 9 15 48 12 71 -5z m-986 -24 c15 -29 12 -41 -12 -50 -19 -7 -85 0 -131 15 -13 4 -8 -7 18 -41 67 -88 77 -125 35 -125 -39 0 -50 11 -50 51 0 34 -8 48 -47 91 l-48 51 30 -5 c17 -3 58 -11 92 -18 34 -8 66 -11 69 -7 4 4 2 18 -4 32 -11 23 -10 25 13 25 14 0 29 -8 35 -19z m1210 -100 c0 -11 -141 -81 -162 -81 -52 0 -43 14 30 50 73 37 132 50 132 31z m3569 -168 c0 -32 6 -103 12 -157 6 -55 8 -110 4 -123 -6 -24 -25 -32 -25 -10 0 6 -7 59 -15 117 -18 130 -19 202 -3 218 21 21 25 14 27 -45z m-4959 -3 c0 -5 -9 -10 -21 -10 -62 0 -78 -48 -26 -81 28 -18 43 -20 122 -15 58 4 83 2 70 -4 -33 -14 -211 -12 -250 4 -68 29 -82 91 -24 107 38 11 129 10 129 -1z m5318 -89 c3 -34 -1 -45 -24 -66 -34 -32 -65 -32 -102 0 -35 29 -45 31 -62 10 -7 -8 -17 -15 -22 -15 -14 0 99 102 135 122 44 25 71 6 75 -51z m-596 -43 c23 -16 38 -18 88 -12 33 4 60 4 60 1 0 -3 -32 -29 -70 -57 -77 -57 -89 -87 -35 -83 l30 2 -28 -24 c-33 -29 -49 -31 -67 -10 -19 23 2 56 67 104 l54 40 -55 -6 c-107 -11 -167 19 -115 57 24 19 27 19 71 -12z m-4168 -180 c3 -13 6 -42 6 -65 l0 -43 -55 0 -55 0 0 44 c0 24 -3 51 -6 59 -6 16 14 23 72 26 25 1 33 -4 38 -21z m201 -56 c6 -23 17 -35 35 -39 33 -7 60 -32 60 -53 0 -41 -79 -73 -114 -47 -13 9 -20 27 -20 51 -1 20 -2 36 -4 36 -11 0 -88 -47 -226 -140 -162 -108 -206 -135 -206 -126 0 7 191 152 275 208 38 27 92 55 118 64 50 17 50 17 29 72 -3 10 2 13 19 10 17 -2 27 -12 34 -36z m3276 4 c64 -28 356 -126 451 -151 57 -15 69 -22 84 -51 10 -18 16 -35 14 -37 -7 -6 -321 86 -453 134 -101 35 -122 47 -138 73 -17 28 -25 56 -15 56 2 0 28 -11 57 -24z m1513 -12 c25 -10 19 -32 -14 -49 -38 -20 -61 -19 -32 1 51 36 -15 46 -87 14 -24 -11 -46 -18 -49 -15 -4 4 40 25 98 48 21 8 65 8 84 1z m-4470 -46 c-22 -39 -124 -181 -162 -225 -32 -38 -52 -53 -69 -53 -25 0 -24 1 16 45 22 24 71 85 107 136 56 75 84 103 112 108 2 1 0 -5 -4 -11z m4970 -7 c33 -6 63 -8 68 -5 4 3 8 0 8 -5 0 -14 -103 -14 -154 0 -49 13 -58 4 -41 -44 12 -34 11 -38 -7 -48 -35 -19 -105 21 -93 53 11 27 97 69 130 63 17 -2 57 -9 89 -14z m-5065 -33 c-46 -68 -172 -219 -190 -228 -51 -28 -46 -6 13 63 35 39 83 98 107 129 38 50 53 62 84 67 5 0 -2 -14 -14 -31z m2935 -17 c17 -19 56 -111 56 -134 0 -6 -9 2 -19 19 -11 18 -24 35 -31 39 -20 12 -56 -4 -68 -30 -18 -40 -15 -74 18 -171 17 -49 29 -98 28 -109 -2 -11 -21 34 -43 100 -50 150 -55 238 -16 279 29 31 52 33 75 7z m-3834 5 c0 -3 -25 -39 -56 -80 -36 -49 -63 -76 -76 -76 -22 0 -23 0 45 93 31 42 56 67 68 67 10 0 19 -2 19 -4z m551 -97 c-23 -9 -23 -11 -8 -26 11 -12 32 -16 69 -16 l53 1 -50 -9 c-57 -10 -98 -4 -115 17 -21 24 -4 44 37 43 35 0 36 -1 14 -10z m136 -36 c-4 -3 -10 -3 -14 0 -3 4 0 7 7 7 7 0 10 -3 7 -7z m4497 -40 c23 -37 24 -38 4 -48 -21 -9 -21 -10 -63 50 -14 20 -15 19 -40 -10 -39 -45 -157 -291 -229 -476 -44 -113 -71 -168 -86 -178 -22 -15 -22 -14 -15 9 27 91 138 359 200 486 81 166 113 204 171 204 28 0 38 -6 58 -37z m204 -57 c11 -19 18 -37 15 -40 -16 -16 -43 -3 -63 29 -12 19 -27 35 -33 35 -33 0 -196 -297 -301 -547 -45 -105 -69 -144 -83 -130 -18 18 215 515 292 623 36 50 52 64 82 71 46 12 65 4 91 -41z m-5034 -26 c154 -22 284 -40 290 -40 6 0 -2 11 -19 25 -26 21 -27 24 -10 25 25 0 275 -82 275 -91 0 -14 -92 -39 -109 -30 -9 5 -52 12 -96 15 -101 9 -421 50 -585 76 -105 17 -289 37 -365 41 -11 1 0 7 25 15 72 22 278 9 594 -36z m4540 -46 c24 -9 19 -28 -15 -53 -31 -23 -52 -24 -24 -1 8 7 15 16 15 21 0 15 -49 10 -75 -7 -14 -9 -25 -14 -25 -11 0 8 83 57 97 57 6 0 18 -3 27 -6z m-1966 -47 c25 -25 41 -79 42 -138 0 -41 -21 -65 -88 -98 -34 -17 -42 -26 -37 -39 14 -33 26 -84 22 -88 -2 -2 -24 49 -48 113 -56 151 -60 221 -15 260 36 31 87 27 124 -10z m3122 -67 c-6 -27 -32 -82 -57 -122 -85 -137 -100 -189 -64 -222 16 -14 24 -15 43 -6 19 9 20 9 7 -2 -9 -7 -18 -35 -21 -61 -6 -52 -32 -88 -80 -113 -25 -13 -30 -12 -48 6 -26 26 -18 46 37 96 l45 41 -26 26 c-21 21 -25 32 -20 54 12 53 31 88 87 165 30 43 63 101 72 130 26 83 27 85 32 70 3 -7 0 -35 -7 -62z m-5813 43 c-4 -3 -10 -3 -14 0 -3 4 0 7 7 7 7 0 10 -3 7 -7z m-35 -15 c-19 -19 -14 -38 13 -48 18 -7 46 -3 110 15 47 14 109 25 138 25 50 0 128 -27 141 -48 13 -22 -28 -21 -67 2 -67 39 -96 40 -206 12 -120 -31 -142 -32 -172 -6 l-24 20 24 20 c26 22 64 29 43 8z m5150 -44 c71 -12 89 -66 32 -94 l-31 -16 20 -26 c27 -36 16 -64 -28 -72 -37 -7 -78 7 -125 44 l-25 20 25 0 c14 0 42 -11 63 -25 40 -27 57 -26 57 5 0 23 -41 56 -80 65 -43 10 -52 29 -9 21 91 -18 94 -18 114 4 20 22 20 22 -4 41 -13 10 -33 19 -45 19 -11 0 -32 3 -44 7 -18 4 -20 8 -10 15 7 4 22 6 33 3 11 -3 37 -8 57 -11z m-3693 -200 c-1 -143 2 -168 18 -196 10 -17 24 -33 31 -36 12 -4 59 39 78 73 10 17 12 14 16 -24 5 -51 -14 -95 -53 -124 -22 -16 -30 -17 -49 -7 -40 21 -53 74 -58 227 l-4 142 -30 -60 c-51 -101 -165 -209 -221 -209 -9 0 -19 17 -26 44 -22 87 -21 88 81 119 32 9 48 11 51 4 5 -16 80 88 116 161 18 34 36 60 41 57 6 -4 10 -74 9 -171z m-960 117 c36 -11 93 -27 126 -36 l60 -17 -45 -23 c-41 -20 -53 -21 -130 -14 -127 11 -1015 32 -1074 24 -41 -5 -47 -4 -32 6 10 6 42 18 70 26 70 20 459 28 736 15 191 -9 249 -8 214 5 -6 2 -20 10 -30 18 -18 14 -17 14 10 15 16 0 59 -9 95 -19z m-262 -158 c-9 -34 -8 -45 6 -67 23 -35 40 -33 35 4 -3 23 0 31 15 36 10 3 23 2 27 -3 14 -14 -17 -71 -48 -87 -28 -14 -32 -14 -56 5 -25 20 -28 20 -51 5 -35 -23 -42 -20 -17 7 12 13 29 44 38 70 13 39 50 84 60 74 1 -1 -2 -21 -9 -44z m187 -5 c-40 -219 -94 -426 -116 -439 -21 -14 -31 -10 -24 8 15 37 67 245 86 341 22 115 25 122 45 122 11 0 13 -8 9 -32z m-794 -8 c11 -11 17 -26 14 -34 -6 -17 -87 -49 -149 -61 l-39 -7 53 -19 c109 -38 156 -101 80 -107 -33 -3 -37 0 -45 30 -8 28 -18 36 -72 57 -34 14 -62 27 -62 31 0 4 36 15 80 25 45 10 88 23 96 30 19 13 9 42 -17 50 -11 4 -17 11 -14 16 10 16 54 10 75 -11z m232 -5 c-23 -10 -32 -20 -30 -32 5 -28 50 -27 132 1 41 14 85 26 98 25 18 -1 15 -3 -12 -11 -19 -6 -69 -21 -110 -34 -41 -13 -84 -24 -95 -24 -29 0 -65 28 -59 44 7 18 62 46 89 45 14 0 10 -4 -13 -14z m735 -65 c99 -264 163 -473 163 -532 0 -69 -51 -135 -122 -158 -50 -15 -72 -7 -138 54 -103 96 -94 92 -120 51 -22 -35 -22 -36 -4 -57 66 -74 317 -268 265 -205 -19 24 -5 34 22 17 12 -8 46 -27 75 -43 28 -16 52 -32 52 -36 0 -4 -17 -13 -37 -20 -33 -11 -49 -10 -117 9 -118 31 -167 61 -283 173 l-52 51 -48 -40 c-37 -31 -111 -84 -141 -100 -11 -5 -62 -346 -57 -381 7 -47 29 -75 38 -46 3 10 15 50 26 90 28 97 64 176 103 225 l31 40 -24 18 -24 18 27 7 c14 4 35 2 45 -3 12 -7 25 -7 34 -1 18 11 70 11 88 0 31 -20 -19 -101 -63 -101 -11 0 -32 12 -47 26 l-27 26 -26 -39 c-22 -33 -136 -314 -136 -335 0 -13 69 -9 106 7 48 20 100 65 96 83 -6 28 20 70 74 116 56 49 68 52 34 9 -39 -50 -18 -93 45 -93 37 0 61 15 139 87 39 36 79 69 90 75 37 18 -175 -176 -223 -205 -39 -24 -53 -27 -93 -22 -44 5 -50 3 -112 -44 -61 -46 -142 -81 -189 -81 -42 0 -85 31 -102 73 -19 47 -17 63 22 265 14 73 23 135 20 138 -3 3 -30 0 -60 -6 -80 -18 -220 -9 -282 19 -58 26 -119 81 -145 131 -106 205 61 580 298 670 154 59 274 18 332 -113 12 -26 35 -107 51 -180 21 -94 37 -143 57 -171 34 -50 45 -53 67 -20 14 22 15 31 6 46 -9 15 -8 18 9 18 23 0 43 40 78 155 29 96 72 292 72 325 0 29 52 84 73 77 5 -1 20 -32 34 -67z m4364 21 c10 -27 34 -60 60 -83 l44 -39 -75 6 c-41 3 -82 8 -90 10 -8 3 -22 0 -30 -5 -12 -8 -12 -11 3 -28 23 -25 21 -32 -5 -32 -24 0 -58 27 -58 46 0 20 76 36 134 29 l51 -7 -34 28 c-19 16 -47 46 -63 68 -31 43 -25 58 22 54 19 -2 28 -13 41 -47z m-400 -346 c33 -41 80 -69 139 -81 l55 -12 -44 -1 c-24 -1 -61 4 -83 11 -38 11 -128 81 -128 99 0 19 43 8 61 -16z m1247 13 c21 -21 13 -39 -23 -54 -46 -19 -52 -18 -25 4 21 17 22 19 5 36 -12 11 -26 15 -39 11 -12 -3 -37 -8 -56 -10 l-35 -5 40 14 c50 18 117 20 133 4z m-4300 -141 c3 -41 0 -45 -52 -87 -31 -25 -52 -49 -49 -56 16 -43 448 -275 747 -402 194 -82 232 -101 248 -127 10 -16 18 -33 18 -37 0 -20 -307 105 -535 219 -380 190 -493 266 -496 330 -1 15 -2 40 -3 56 -3 42 15 73 64 111 25 20 48 36 51 36 3 0 6 -19 7 -43z m2607 -59 c20 -37 34 -72 30 -78 -4 -6 -42 -36 -86 -66 l-79 -56 19 -26 c22 -32 61 -108 61 -119 0 -8 -163 -143 -173 -143 -9 0 -87 137 -87 152 0 7 25 30 55 52 29 21 66 51 80 66 l26 28 -36 72 c-20 40 -35 74 -32 76 25 25 173 122 178 116 4 -4 24 -37 44 -74z m-977 -38 c54 -32 78 -52 80 -68 l3 -22 -45 22 c-44 21 -46 21 -85 3 -46 -20 -50 -29 -20 -45 16 -9 24 -8 39 5 17 15 18 15 25 -15 8 -38 -5 -55 -37 -46 -35 10 -56 30 -73 70 -16 37 -16 37 16 67 17 16 27 29 21 29 -12 0 -36 36 -47 70 l-7 25 26 -25 c15 -14 62 -45 104 -70z m-554 -39 c22 -67 39 -154 72 -356 4 -25 21 -41 101 -94 144 -97 278 -230 350 -350 5 -8 93 51 112 76 l21 28 -2 -60 c-3 -60 -3 -60 -49 -90 l-47 -30 5 -60 c9 -97 -41 -178 -97 -160 -47 15 -88 64 -101 120 -15 69 -1 94 78 134 l57 28 -69 73 c-55 56 -225 201 -332 283 -10 7 -13 -29 -12 -174 l0 -184 45 -35 c25 -19 82 -81 128 -138 127 -156 211 -332 283 -592 9 -33 10 -30 17 45 11 120 51 311 80 390 82 216 228 347 436 391 196 41 364 -25 455 -180 65 -111 115 -305 115 -449 0 -112 -16 -190 -97 -462 -109 -369 -144 -497 -137 -504 2 -3 29 19 58 48 60 59 82 60 71 5 -3 -19 -55 -137 -114 -262 -60 -125 -118 -251 -131 -279 -12 -29 -26 -53 -30 -53 -8 0 -59 123 -110 268 l-23 62 25 19 c26 21 38 63 59 201 22 145 79 379 173 708 52 184 100 361 107 395 12 71 13 71 -85 118 -135 65 -273 63 -411 -5 -92 -46 -143 -101 -200 -221 -68 -142 -97 -295 -115 -605 -17 -302 -50 -529 -110 -770 -31 -124 -63 -215 -76 -215 -9 0 -119 196 -140 252 -16 41 -15 46 19 190 68 278 90 527 68 759 -15 164 -46 267 -107 355 -52 76 -174 198 -222 223 l-29 15 -7 -217 c-4 -119 -13 -397 -21 -617 -27 -739 -44 -1237 -60 -1715 -8 -261 -16 -492 -18 -513 -1 -20 0 -37 3 -37 3 0 23 28 44 63 21 34 50 79 63 100 13 20 27 37 32 37 16 0 23 -39 16 -83 -10 -57 -101 -393 -165 -607 -29 -96 -57 -192 -63 -213 -13 -50 -18 -44 -97 122 l-63 133 22 44 c18 38 21 62 21 162 0 64 5 234 10 377 22 562 87 2411 94 2695 4 124 9 251 12 282 l6 57 -43 11 c-90 24 -187 -11 -286 -103 -71 -66 -121 -157 -149 -267 -28 -108 -22 -285 16 -465 58 -281 72 -376 73 -510 2 -118 0 -134 -21 -172 -32 -61 -59 -58 -128 12 -161 165 -249 373 -343 810 -72 336 -152 570 -222 649 -72 82 -171 101 -245 48 -127 -92 -234 -299 -276 -532 -21 -118 -16 -448 9 -587 18 -107 17 -151 -6 -128 -36 36 -91 373 -91 562 0 519 237 992 498 993 198 0 343 -282 438 -855 52 -318 106 -478 195 -579 23 -26 43 -45 45 -43 7 6 -21 194 -67 449 -66 377 -56 581 37 759 101 192 270 294 474 288 49 -2 91 -1 93 1 2 3 7 93 11 201 l6 197 -82 66 c-44 36 -78 66 -75 66 4 0 39 -20 79 -45 39 -24 73 -43 75 -42 2 3 13 275 13 357 1 40 2 43 14 27 7 -9 25 -53 40 -96z m-309 16 c16 -25 47 -119 40 -125 -2 -2 -10 10 -19 26 -22 43 -46 49 -73 17 -36 -41 -35 -118 3 -235 25 -80 25 -106 -1 -44 -46 111 -68 268 -46 327 22 57 69 74 96 34z m2308 -63 c3 -4 -20 -25 -51 -48 -31 -24 -86 -68 -122 -99 -41 -36 -74 -57 -89 -57 l-25 0 30 31 c16 17 70 64 119 105 81 66 120 85 138 68z m142 -75 c30 -17 57 -39 60 -50 10 -30 -14 -51 -52 -47 -38 5 -37 5 -21 -22 27 -42 -25 -74 -81 -50 -30 12 -105 107 -76 96 9 -3 20 -6 24 -6 5 0 20 -18 35 -40 30 -45 41 -49 56 -20 9 17 4 27 -36 70 -48 51 -36 59 20 13 36 -30 80 -28 84 4 3 17 -6 27 -37 42 -40 21 -61 41 -41 41 5 0 35 -14 65 -31z m996 1 c21 -17 22 -21 9 -30 -8 -5 -23 -10 -32 -10 -9 0 -25 -2 -35 -5 -10 -3 -8 -1 5 6 40 21 19 34 -52 32 -76 -1 -80 3 -15 16 71 14 95 12 120 -9z m-4865 -84 c-38 -47 -71 -65 -88 -48 -8 8 -4 21 11 44 16 24 21 27 16 11 -10 -37 29 -29 62 12 15 19 29 32 32 30 2 -3 -13 -25 -33 -49z m3632 -35 c12 -33 62 -99 89 -116 15 -11 55 -27 88 -37 l60 -18 -50 6 c-59 7 -130 41 -166 81 -27 28 -69 92 -69 105 0 13 42 -5 48 -21z m-2730 -201 c6 -69 16 -138 23 -153 18 -39 51 -35 87 9 l30 37 13 -42 c14 -47 2 -82 -38 -108 -67 -44 -107 29 -129 231 l-6 58 -33 -76 c-87 -201 -215 -262 -215 -102 0 31 4 35 53 57 28 12 58 22 65 22 7 0 21 12 32 27 19 27 70 131 85 175 12 37 22 -4 33 -135z m2600 129 c2 -6 50 -39 105 -76 56 -36 202 -136 325 -222 335 -236 395 -275 485 -322 89 -46 90 -60 0 -34 -118 35 -258 120 -628 384 -220 158 -234 166 -215 132 6 -13 8 -26 5 -29 -8 -8 -175 166 -175 181 0 12 94 -2 98 -14z m-1014 -189 c112 -44 143 -60 163 -87 14 -19 24 -35 22 -37 -8 -8 -296 105 -407 159 -98 48 -115 59 -127 90 -8 19 -15 36 -15 39 0 2 51 -22 113 -53 61 -31 174 -81 251 -111z m-3493 130 c43 -24 16 -64 -79 -117 l-53 -30 56 -6 c60 -6 130 -36 130 -56 0 -7 -13 -20 -28 -29 -28 -17 -29 -17 -57 17 -26 30 -35 34 -94 38 -36 3 -66 9 -66 12 0 4 20 17 45 29 75 36 125 71 125 88 0 8 -14 21 -31 28 -29 12 -30 14 -13 24 24 14 40 15 65 2z m5716 -142 c46 -22 40 -58 -10 -58 -24 0 -28 3 -17 10 30 19 -2 44 -64 51 -31 4 -60 9 -64 13 -10 11 130 -4 155 -16z m-47 -53 c0 -3 -2 -5 -5 -5 -3 0 -5 2 -5 5 0 3 2 5 5 5 3 0 5 -2 5 -5z m-5647 -185 c-52 -51 -95 -65 -106 -36 -6 16 28 66 45 66 7 0 6 -5 -2 -15 -13 -16 -6 -35 14 -35 6 0 27 16 46 35 19 19 39 35 44 35 6 0 -12 -23 -41 -50z m281 -97 c-99 -139 -141 -169 -216 -154 -27 5 -34 12 -36 35 -4 29 30 88 71 123 l21 18 -17 -27 c-27 -44 -22 -75 13 -83 58 -13 82 1 144 85 33 44 61 78 64 76 2 -3 -17 -36 -44 -73z m5138 47 c68 -8 87 -14 108 -35 21 -22 23 -27 10 -35 -21 -14 -77 -12 -86 2 -5 7 -2 9 8 6 8 -4 21 -2 28 2 11 7 11 11 1 24 -8 9 -20 16 -29 16 -39 0 -142 23 -142 32 0 5 4 6 10 3 5 -3 46 -10 92 -15z m-3537 -28 c19 -12 53 -78 59 -113 l7 -34 -16 27 c-8 15 -24 32 -34 38 -16 8 -23 5 -40 -16 -29 -37 -27 -88 9 -185 17 -45 29 -87 27 -93 -8 -23 -81 201 -84 259 -6 84 33 145 72 117z m-415 -886 c5 -96 14 -193 19 -214 10 -37 43 -82 61 -82 13 0 50 50 56 77 9 35 20 28 31 -21 12 -54 -9 -119 -49 -149 -24 -18 -30 -19 -59 -7 -57 24 -78 113 -91 385 l-3 50 -33 -69 c-60 -127 -192 -291 -254 -317 -28 -12 -32 -11 -49 10 -23 28 -27 132 -6 149 6 5 31 15 53 21 23 6 47 18 54 26 16 20 28 19 32 -2 5 -28 93 100 155 225 36 73 59 110 65 104 6 -6 14 -89 18 -186z m2334 162 c23 -36 56 -144 55 -180 0 -31 -1 -30 -21 20 -12 30 -32 60 -44 69 -50 32 -115 -44 -129 -152 -5 -42 20 -263 50 -437 2 -16 0 -28 -5 -28 -5 0 -12 21 -15 48 -3 26 -17 120 -31 209 -40 264 -31 369 38 440 39 40 80 44 102 11z m-2654 -767 c34 -22 152 -86 263 -142 372 -188 449 -238 566 -366 60 -65 146 -197 157 -240 8 -29 16 -29 62 1 40 25 83 69 99 100 10 17 11 16 18 -12 15 -70 -14 -127 -88 -177 l-50 -34 -2 -78 c-1 -88 -27 -158 -72 -193 -35 -27 -63 -25 -110 9 -74 53 -102 184 -52 237 13 14 59 44 102 65 42 22 77 45 77 52 0 23 -56 102 -111 157 -84 84 -241 195 -466 331 -269 161 -379 233 -425 277 -34 32 -47 52 -33 52 2 0 32 -18 65 -39z m477 -631 c12 -25 25 -65 28 -90 l6 -45 -20 36 c-34 61 -77 63 -105 5 -22 -47 -21 -55 23 -185 38 -113 59 -191 48 -181 -9 8 -88 227 -103 285 -23 86 -13 161 27 204 34 36 69 25 96 -29z m1629 -56 c36 -17 68 -72 80 -137 l7 -39 29 61 c37 77 95 117 159 108 49 -6 67 -21 90 -72 31 -68 25 -116 -31 -236 -28 -60 -53 -122 -56 -139 -9 -43 -24 -48 -26 -8 -5 88 1 112 60 242 35 76 36 79 17 92 -10 8 -38 14 -62 14 -33 0 -50 -7 -77 -30 -43 -38 -63 -88 -88 -220 -11 -57 -25 -114 -31 -125 -10 -18 -12 -14 -23 32 -9 41 -9 64 2 110 20 85 18 162 -5 197 -39 59 -106 73 -145 31 -31 -33 -36 -70 -25 -180 9 -82 7 -116 -7 -167 -16 -55 -50 31 -38 95 4 23 8 99 8 169 1 142 11 167 77 200 42 22 43 22 85 2z m56 -720 c16 -117 0 -224 -46 -319 -31 -63 -106 -165 -126 -173 -4 -1 -10 18 -14 44 -6 43 -3 49 38 102 89 115 120 209 119 361 -1 122 12 116 29 -15z m-1092 66 c12 -6 27 -37 40 -79 25 -85 25 -94 1 -54 -35 56 -75 53 -107 -8 -21 -42 -17 -92 16 -218 17 -62 29 -118 27 -124 -5 -15 -63 200 -78 288 -15 84 -7 134 27 175 27 32 44 36 74 20z"></path>  <path d="M4043 9933 c4 -3 10 -3 14 0 3 4 0 7 -7 7 -7 0 -10 -3 -7 -7z"></path>  <path d="M3304 9926 c11 -9 29 -16 40 -16 28 0 8 17 -29 25 -29 6 -29 6 -11 -9z"></path>  <path d="M3409 8724 c-62 -18 -77 -37 -44 -52 23 -11 30 -8 63 22 20 19 35 36 32 39 -3 2 -26 -2 -51 -9z"></path>  <path d="M4495 8640 c-13 -21 26 -50 67 -50 45 0 49 14 11 33 -45 23 -71 29 -78 17z"></path>  <path d="M5637 8188 c-40 -67 -38 -76 14 -104 36 -18 58 -18 65 1 7 18 -24 165 -35 165 -4 0 -24 -28 -44 -62z"></path>  <path d="M5475 8050 c-4 -6 1 -22 9 -35 14 -21 25 -25 64 -25 l47 0 -49 35 c-53 38 -61 41 -71 25z"></path>  <path d="M2722 7810 c-24 -32 -19 -42 16 -29 12 5 22 17 22 28 0 32 -15 32 -38 1z"></path>  <path d="M1780 7295 c0 -14 2 -25 4 -25 2 0 12 -3 21 -6 16 -6 16 -5 1 25 -20 38 -26 39 -26 6z"></path>  <path d="M1770 7225 c0 -25 4 -35 15 -35 21 0 29 24 15 49 -16 32 -30 25 -30 -14z"></path>  <path d="M1987 7073 c-4 -3 -7 -21 -7 -40 0 -31 2 -33 20 -23 11 6 20 19 20 29 0 21 -23 44 -33 34z"></path>  <path d="M1295 6999 c-57 -30 -58 -31 -24 -72 22 -27 38 -37 59 -37 26 0 60 22 60 38 0 12 -42 92 -49 92 -3 0 -24 -9 -46 -21z"></path>  <path d="M1062 6730 c-14 -38 -16 -100 -4 -100 17 0 53 43 48 57 -3 8 -6 20 -6 27 0 7 -6 20 -13 31 -13 17 -15 16 -25 -15z"></path>  <path d="M5687 6503 c-16 -15 -6 -43 18 -49 40 -10 48 -1 25 29 -22 28 -32 32 -43 20z"></path>  <path d="M6546 6059 c-27 -17 -82 -63 -122 -102 -80 -80 -96 -118 -75 -186 15 -52 64 -123 99 -143 28 -17 30 -17 50 5 33 35 91 166 107 242 21 98 18 215 -4 215 -4 0 -29 -14 -55 -31z"></path>  <path d="M6485 5583 c-49 -17 -105 -19 -134 -4 -18 10 -27 7 -61 -20 -22 -18 -37 -35 -35 -39 5 -9 103 -36 161 -45 39 -6 44 -4 67 27 24 31 51 88 45 93 -2 1 -21 -4 -43 -12z"></path>  <path d="M5933 5434 c-13 -24 -7 -41 18 -54 16 -9 19 -7 19 13 0 13 -6 32 -14 42 -13 18 -14 18 -23 -1z"></path>  <path d="M2680 8839 c0 -5 5 -7 10 -4 6 3 10 8 10 11 0 2 -4 4 -10 4 -5 0 -10 -5 -10 -11z"></path>  <path d="M4853 8793 c-7 -3 -13 -20 -13 -40 0 -34 1 -34 33 -28 40 9 49 17 42 37 -7 18 -45 37 -62 31z"></path>  <path d="M4426 7947 c-27 -12 -28 -14 -12 -29 19 -19 42 -14 56 13 18 33 7 37 -44 16z"></path>  <path d="M2783 8294 c-17 -7 -16 -44 1 -66 12 -16 15 -15 46 17 19 19 31 37 29 40 -9 8 -63 15 -76 9z"></path>  <path d="M4740 7991 c0 -5 5 -13 10 -16 6 -3 10 -2 10 4 0 5 -4 13 -10 16 -5 3 -10 2 -10 -4z"></path>  <path d="M4026 7259 c-23 -117 -33 -157 -62 -244 -19 -54 -34 -106 -34 -113 0 -22 69 -80 117 -98 64 -25 174 -15 303 28 l105 34 3 146 c2 132 1 146 -15 153 -108 44 -308 107 -354 112 -55 5 -58 5 -63 -18z"></path>  <path d="M3878 7230 c-53 -44 -96 -137 -108 -235 -33 -267 -42 -333 -46 -361 l-6 -31 74 -6 c189 -16 381 -99 588 -255 40 -30 45 -31 51 -15 3 10 9 92 13 182 7 155 6 163 -11 157 -72 -28 -195 -56 -247 -56 -110 0 -203 59 -275 175 -67 107 -70 199 -13 363 25 70 36 112 28 112 -6 0 -28 -14 -48 -30z"></path>  <path d="M4570 7002 l0 -99 130 41 c71 22 130 43 130 46 -1 5 -208 97 -242 107 -16 5 -18 -4 -18 -95z"></path>  <path d="M2736 6835 c11 -29 -7 -84 -41 -125 -19 -23 -35 -49 -35 -57 0 -24 56 -73 83 -73 39 0 56 10 72 41 28 53 12 120 -48 201 -22 30 -40 38 -31 13z"></path>  <path d="M3050 6473 c-30 -16 -56 -33 -58 -40 -5 -18 44 -46 68 -38 21 7 37 31 50 76 11 36 7 36 -60 2z"></path>  <path d="M3993 5834 c-55 -27 -173 -144 -173 -171 0 -13 11 -15 73 -11 88 6 171 45 241 115 71 70 61 93 -38 93 -36 0 -68 -8 -103 -26z"></path>  <path d="M5132 5849 c-49 -14 -52 -36 -9 -76 54 -49 77 -44 150 27 l62 60 -85 -1 c-47 0 -100 -5 -118 -10z"></path>  <path d="M3040 5539 c-58 -11 -120 -39 -120 -54 0 -23 49 -57 90 -62 40 -6 43 -4 96 51 30 32 54 62 54 67 0 11 -58 10 -120 -2z"></path>  <path d="M3800 5393 c0 -23 27 -99 65 -183 23 -52 50 -113 60 -135 l17 -40 29 100 c16 55 29 110 29 122 0 12 -14 33 -32 48 -36 30 -168 99 -168 88z"></path>  <path d="M1766 7514 c-3 -9 -6 -27 -6 -41 0 -19 4 -24 21 -21 35 5 47 33 25 57 -23 25 -32 26 -40 5z"></path>  <path d="M6053 7008 l-22 -21 36 -29 c20 -15 40 -28 44 -28 12 0 11 57 -1 81 -14 25 -30 24 -57 -3z"></path>  <path d="M1607 6646 c-9 -23 -1 -51 14 -51 19 0 23 39 6 54 -12 9 -16 8 -20 -3z"></path>  <path d="M6700 6615 c0 -3 2 -5 5 -5 3 0 5 2 5 5 0 3 -2 5 -5 5 -3 0 -5 -2 -5 -5z"></path>  <path d="M3736 6181 c-15 -17 -18 -30 -13 -71 3 -28 11 -58 16 -68 8 -13 9 -10 5 14 -5 28 -2 32 35 48 22 10 49 29 61 41 18 19 19 24 6 34 -8 7 -32 15 -53 18 -30 4 -42 1 -57 -16z"></path>  <path d="M6801 5756 c-24 -25 -25 -56 -3 -64 7 -2 19 12 27 32 26 61 16 74 -24 32z"></path>  <path d="M912 5743 c-61 -30 -142 -161 -186 -301 -32 -102 -33 -152 -4 -239 44 -135 154 -203 328 -203 50 0 81 4 88 13 5 6 15 39 22 72 17 86 45 140 86 164 34 20 34 21 20 50 -9 16 -31 92 -50 170 -37 148 -59 202 -98 238 -54 51 -144 67 -206 36z m67 -65 c-56 -59 -90 -208 -55 -237 12 -10 26 -2 75 43 67 61 87 68 100 33 13 -33 2 -74 -24 -91 -22 -15 -22 -15 -17 30 5 50 -7 57 -33 18 -18 -28 -86 -63 -122 -64 -43 0 -55 62 -27 143 15 45 95 147 115 147 6 0 0 -10 -12 -22z m75 -364 c9 -8 16 -19 16 -23 0 -20 -62 -56 -145 -85 -16 -6 -8 -12 39 -31 73 -30 112 -64 94 -81 -32 -30 -54 -26 -81 15 -22 33 -37 43 -83 57 -31 9 -52 19 -47 24 4 4 33 15 63 25 111 36 135 60 83 84 -22 10 -24 14 -12 22 22 14 56 11 73 -7z"></path>  <path d="M1657 5670 c-2 -8 -11 -46 -20 -83 -10 -38 -29 -96 -43 -130 -38 -92 -38 -94 -14 -102 12 -4 58 -39 102 -77 43 -39 81 -68 84 -65 31 30 15 137 -48 322 -47 139 -55 157 -61 135z"></path>  <path d="M1256 5144 c-10 -47 -15 -88 -12 -92 7 -6 136 117 136 129 0 12 -66 49 -87 49 -16 0 -22 -14 -37 -86z"></path>  <path d="M1450 4935 c28 -30 40 -32 40 -6 0 19 -18 31 -48 31 -12 0 -11 -5 8 -25z"></path>  <path d="M4163 4337 c-68 -34 -75 -47 -41 -71 34 -24 64 -20 86 12 21 30 39 92 25 91 -4 0 -36 -14 -70 -32z"></path>  <path d="M3041 2010 c-99 -53 -110 -63 -87 -89 30 -33 73 -46 101 -31 40 21 99 161 68 160 -5 0 -41 -18 -82 -40z"></path>  </g> </svg>