<!DOCTYPE svg PUBLIC "-//W3C//DTD SVG 20010904//EN" "http://www.w3.org/TR/2001/REC-SVG-20010904/DTD/svg10.dtd">
<svg version="1.0" xmlns="http://www.w3.org/2000/svg" width="736px" height="661px" viewBox="0 0 7360 6610" preserveAspectRatio="xMidYMid meet">
<g id="layer101" fill="#020226" stroke="none">
 <path d="M0 3305 l0 -3305 3680 0 3680 0 0 3305 0 3305 -3680 0 -3680 0 0 -3305z"/>
 </g>
<g id="layer102" fill="#f1c406" stroke="none">
 <path d="M3089 5979 c-34 -13 -54 -52 -52 -103 l1 -42 -58 4 c-52 4 -59 2 -70 -17 -6 -12 -8 -31 -5 -42 6 -19 8 -20 26 -4 16 16 25 16 84 5 36 -7 68 -16 71 -22 10 -16 -43 -73 -85 -93 -47 -21 -48 -24 -22 -56 l20 -24 37 35 c49 47 78 111 69 157 -4 22 -13 37 -25 40 -23 6 -32 38 -18 68 19 43 89 58 151 32 63 -27 62 -23 27 -271 -28 -193 -33 -292 -14 -274 2 3 13 65 24 137 21 143 35 179 77 209 92 66 356 79 463 23 33 -17 36 -17 75 0 55 24 88 16 80 -20 -7 -31 23 -82 68 -115 29 -21 29 -21 44 -1 13 18 14 64 2 115 -3 11 7 16 44 18 40 3 47 0 47 -15 0 -10 -7 -28 -14 -39 -14 -20 -12 -64 4 -64 13 0 30 51 30 90 0 27 -8 48 -24 67 l-24 27 -54 -17 c-53 -16 -55 -16 -107 5 l-52 22 -43 -22 -42 -23 -58 27 c-113 51 -354 41 -446 -20 l-36 -24 4 53 c6 70 -12 119 -54 151 -38 29 -103 40 -145 23z m951 -299 c0 -28 -18 -34 -46 -15 -24 16 -25 17 -9 35 21 23 55 11 55 -20z"/>
 <path d="M3583 5948 c-26 -13 -28 -25 -9 -51 12 -15 18 -16 40 -6 29 13 31 21 16 50 -12 21 -16 22 -47 7z"/>
 <path d="M4663 5945 c-19 -13 -21 -19 -11 -40 13 -29 20 -30 53 -9 21 13 22 19 13 40 -13 28 -25 30 -55 9z"/>
 <path d="M2350 5935 c0 -3 26 -18 59 -34 32 -16 72 -42 90 -56 30 -26 31 -26 31 -6 0 12 -8 29 -19 40 -29 29 -161 75 -161 56z"/>
 <path d="M4795 5904 c-22 -8 -47 -22 -55 -31 -14 -14 -13 -15 10 -8 66 20 109 17 154 -9 53 -31 90 -78 81 -105 -3 -10 -14 -26 -25 -36 -21 -19 -27 -69 -11 -80 5 -3 20 9 33 27 46 66 20 187 -52 236 -38 25 -77 27 -135 6z"/>
 <path d="M4134 5899 c-17 -5 -38 -17 -45 -26 -13 -15 -12 -16 6 -8 11 5 41 10 67 13 58 5 129 -31 171 -85 32 -43 38 -76 9 -50 -22 20 -53 22 -70 5 -17 -17 -15 -61 5 -102 27 -58 57 -56 90 8 32 61 -9 187 -76 235 -31 23 -99 27 -157 10z m186 -214 c0 -8 -7 -15 -15 -15 -16 0 -20 12 -8 23 11 12 23 8 23 -8z"/>
 <path d="M2663 5848 c-18 -5 -40 -20 -49 -33 -22 -34 -68 -398 -55 -434 8 -22 10 -23 11 -6 0 11 11 100 24 197 17 136 27 182 41 198 25 28 31 25 31 -15 0 -41 28 -82 73 -108 30 -18 32 -18 63 0 46 27 48 43 3 36 -37 -6 -115 21 -115 39 0 5 14 23 30 40 34 34 63 33 113 -3 34 -24 41 -21 28 12 -10 27 -88 73 -136 81 -16 3 -45 1 -62 -4z"/>
 <path d="M2390 5833 c0 -3 7 -14 16 -24 14 -15 13 -18 -16 -27 -39 -14 -45 -32 -26 -70 31 -59 106 -87 106 -39 0 30 -10 40 -26 26 -9 -7 -19 -7 -33 1 -31 16 -26 28 19 40 33 9 47 8 72 -5 71 -35 37 22 -41 69 -60 37 -71 41 -71 29z"/>
 <path d="M4528 5820 c-10 -6 -23 -20 -29 -32 -15 -28 -48 -356 -39 -388 10 -35 17 -12 25 80 11 141 28 245 42 268 18 30 93 31 142 1 32 -19 36 -19 72 -5 57 23 69 21 69 -12 0 -16 7 -37 15 -48 13 -18 14 -16 15 24 0 24 -7 57 -16 74 -17 33 -35 34 -101 7 -30 -12 -35 -11 -64 10 -36 26 -105 37 -131 21z"/>
 <path d="M1918 5803 c-10 -2 -18 -9 -18 -14 0 -5 -7 -9 -16 -9 -27 0 -9 -24 25 -32 36 -10 33 -28 -5 -28 -23 0 -36 -28 -14 -31 6 -1 15 -3 20 -4 6 -1 15 -3 20 -4 24 -3 7 -20 -22 -23 -31 -3 -53 -28 -25 -28 9 0 17 -4 19 -9 2 -4 14 -12 26 -16 21 -6 23 -4 18 13 -4 12 -2 24 5 28 8 4 9 3 5 -4 -4 -7 -2 -12 3 -12 6 0 11 -7 11 -15 0 -20 6 -19 41 6 16 11 29 30 30 42 0 19 2 19 11 -5 5 -16 13 -28 18 -28 13 0 21 33 10 44 -15 15 -12 26 5 20 10 -4 15 0 15 11 0 11 -5 15 -15 11 -21 -8 -19 11 3 23 9 6 11 11 5 11 -7 0 -13 7 -13 15 0 25 -18 17 -28 -12 -9 -25 -11 -25 -11 -6 -1 12 -14 31 -31 43 l-30 21 -12 -27 c-12 -25 -10 -29 20 -54 l33 -28 -31 -22 c-17 -12 -33 -20 -36 -17 -2 2 7 12 21 21 21 14 24 20 14 32 -6 8 -18 14 -25 14 -13 0 -19 23 -16 63 2 17 0 18 -30 10z m97 -54 c11 -17 -1 -21 -15 -4 -8 9 -8 15 -2 15 6 0 14 -5 17 -11z m-43 -51 c-9 -9 -15 -9 -24 0 -9 9 -7 12 12 12 19 0 21 -3 12 -12z m43 -37 c-3 -6 -11 -11 -17 -11 -6 0 -6 6 2 15 14 17 26 13 15 -4z"/>
 <path d="M5348 5787 c-16 -13 -28 -32 -29 -42 0 -15 -3 -13 -11 8 -10 29 -28 37 -28 12 0 -8 -6 -15 -12 -15 -7 0 -5 -5 5 -11 21 -12 23 -33 2 -25 -9 3 -15 0 -15 -10 0 -10 6 -14 15 -10 17 6 20 -5 5 -20 -11 -11 -3 -44 10 -44 5 0 13 12 18 28 9 24 11 24 11 5 1 -12 14 -31 30 -42 35 -25 41 -26 41 -6 0 8 5 15 11 15 5 0 7 5 3 12 -4 7 -3 8 5 4 7 -4 9 -16 5 -28 -5 -17 -3 -19 18 -13 12 4 25 12 26 16 2 5 10 9 19 9 28 0 6 25 -25 28 -29 3 -46 20 -22 23 6 1 15 3 20 4 6 1 15 3 20 4 22 3 9 31 -14 31 -14 0 -28 5 -31 10 -5 8 8 15 18 8 1 -1 12 4 25 11 25 13 29 31 8 31 -8 0 -16 4 -18 9 -1 4 -13 11 -25 15 -19 6 -23 4 -22 -16 3 -35 -4 -51 -25 -63 -29 -15 -29 -30 0 -44 15 -6 24 -14 21 -17 -3 -4 -20 4 -37 16 l-32 23 31 24 c34 27 38 40 19 66 -12 15 -15 14 -40 -6z m12 -42 c-7 -9 -15 -13 -17 -11 -7 7 7 26 19 26 6 0 6 -6 -2 -15z m52 -47 c-9 -9 -15 -9 -24 0 -9 9 -7 12 12 12 19 0 21 -3 12 -12z m-46 -45 c-7 -7 -26 7 -26 19 0 6 6 6 15 -2 9 -7 13 -15 11 -17z"/>
 <path d="M1830 5740 c0 -5 -11 -10 -24 -10 -14 0 -27 -4 -30 -9 -3 -5 -32 -7 -64 -6 -32 2 -74 0 -93 -4 l-34 -8 41 -7 c22 -4 63 -7 90 -6 59 1 114 -9 114 -21 0 -12 47 -12 54 0 3 5 -11 16 -32 24 -25 11 -30 16 -17 17 11 0 28 7 38 14 16 12 16 14 1 20 -24 9 -44 7 -44 -4z m-33 -37 c-4 -3 -10 -3 -14 0 -3 4 0 7 7 7 7 0 10 -3 7 -7z"/>
 <path d="M5482 5743 c-17 -7 15 -32 43 -33 14 -1 8 -7 -18 -18 -21 -10 -35 -21 -31 -25 10 -10 54 -9 54 2 0 12 54 22 125 22 33 0 78 3 100 8 l40 9 -40 3 c-22 1 -68 3 -102 3 -34 1 -65 4 -69 9 -4 4 -18 7 -31 7 -12 0 -23 5 -23 10 0 10 -26 12 -48 3z m95 -40 c-4 -3 -10 -3 -14 0 -3 4 0 7 7 7 7 0 10 -3 7 -7z"/>
 <path d="M1508 5703 c7 -3 16 -2 19 1 4 3 -2 6 -13 5 -11 0 -14 -3 -6 -6z"/>
 <path d="M1540 5705 c0 -3 2 -5 5 -5 3 0 5 2 5 5 0 3 -2 5 -5 5 -3 0 -5 -2 -5 -5z"/>
 <path d="M1570 5705 c0 -3 2 -5 5 -5 3 0 5 2 5 5 0 3 -2 5 -5 5 -3 0 -5 -2 -5 -5z"/>
 <path d="M5810 5705 c0 -3 2 -5 5 -5 3 0 5 2 5 5 0 3 -2 5 -5 5 -3 0 -5 -2 -5 -5z"/>
 <path d="M5838 5703 c7 -3 16 -2 19 1 4 3 -2 6 -13 5 -11 0 -14 -3 -6 -6z"/>
 <path d="M4605 5638 c-11 -6 -21 -12 -23 -14 -3 -2 15 -42 23 -52 2 -2 17 4 35 13 29 15 31 18 17 38 -17 26 -27 29 -52 15z"/>
 <path d="M3474 5607 c-3 -9 0 -26 7 -39 11 -20 14 -20 17 -5 5 23 33 22 39 -3 6 -23 18 -26 27 -7 4 7 8 8 11 2 26 -50 43 -44 25 9 -14 43 -13 42 -72 51 -38 6 -49 4 -54 -8z"/>
 <path d="M1032 5578 c-7 -7 -12 -20 -12 -30 0 -11 -12 -30 -27 -43 l-28 -24 26 -1 c27 0 49 -16 49 -37 0 -22 -45 -58 -86 -68 -30 -8 -40 -16 -44 -35 -3 -17 -13 -26 -30 -28 -14 -2 -36 -11 -49 -20 -13 -9 -33 -22 -45 -29 -33 -19 -59 -55 -45 -63 17 -11 -10 -24 -45 -22 -28 2 -29 2 -23 -37 3 -27 1 -41 -8 -45 -7 -2 -20 -30 -29 -60 -11 -38 -26 -62 -45 -77 l-29 -21 34 -34 c23 -23 36 -48 40 -75 4 -22 14 -45 23 -52 11 -8 16 -26 16 -52 0 -39 1 -40 32 -37 17 2 34 -1 38 -7 3 -6 2 -11 -3 -11 -20 0 2 -42 27 -53 14 -7 33 -20 43 -29 9 -9 35 -22 57 -29 32 -9 41 -17 41 -34 0 -23 21 -34 65 -35 25 -1 68 -54 63 -77 -2 -12 -14 -19 -35 -21 -29 -3 -31 -5 -20 -23 6 -10 17 -19 24 -19 7 0 13 -9 13 -21 0 -11 5 -29 11 -40 8 -16 13 -18 25 -8 8 6 14 21 14 32 0 11 12 31 28 46 l27 26 -25 3 c-31 5 -49 19 -46 37 4 28 48 63 87 69 33 5 39 10 39 30 0 20 7 26 43 34 24 6 52 21 62 32 10 11 24 20 31 20 8 0 21 12 30 26 14 20 15 27 5 34 -19 11 3 22 37 18 26 -3 27 -1 26 40 0 26 4 42 11 42 14 0 35 43 35 71 0 12 16 37 36 57 l35 35 -30 28 c-19 17 -35 45 -42 74 -6 26 -19 51 -28 57 -12 7 -15 21 -13 49 4 38 3 39 -25 37 -35 -2 -61 11 -43 22 17 10 -3 47 -31 55 -12 4 -29 15 -40 26 -10 10 -31 21 -46 25 -49 10 -53 13 -53 38 0 20 -6 25 -39 31 -37 6 -95 52 -91 72 4 19 24 33 46 33 28 0 23 26 -7 35 -10 4 -19 15 -19 25 0 23 -10 50 -19 50 -4 0 -12 -5 -19 -12z m28 -39 c0 -10 -7 -19 -15 -19 -16 0 -19 9 -9 34 8 20 24 11 24 -15z m30 -39 c0 -12 -43 -20 -68 -14 -12 4 -20 10 -17 14 6 10 85 10 85 0z m40 -137 c26 -7 36 -15 38 -34 2 -13 12 -33 22 -44 22 -25 35 -52 44 -87 6 -26 4 -28 -23 -28 -20 0 -34 -7 -41 -21 -15 -28 -5 -37 12 -10 17 28 48 28 48 0 0 -31 -18 -59 -38 -59 -10 0 -23 -5 -30 -12 -20 -20 -40 7 -24 32 10 17 8 22 -16 37 -52 34 -72 56 -67 74 3 10 1 20 -5 24 -6 4 -10 -4 -10 -18 0 -24 -28 -56 -68 -76 -19 -10 -22 -17 -16 -47 5 -27 3 -34 -9 -34 -9 0 -19 5 -22 10 -3 6 -15 10 -26 10 -19 0 -39 34 -39 66 0 22 29 17 51 -8 15 -19 18 -20 19 -6 0 25 -29 50 -51 43 -15 -5 -19 -1 -19 15 0 25 23 72 43 89 8 6 18 27 21 45 6 29 11 34 42 39 21 4 43 16 56 32 l21 26 26 -25 c14 -13 42 -28 61 -33z m-252 -93 c-25 -34 -26 -34 -51 -16 -16 12 -15 15 15 29 51 25 62 21 36 -13z m370 14 c35 -15 36 -16 18 -30 -26 -18 -27 -18 -54 17 -27 33 -18 36 36 13z m-423 -54 c1 -8 7 -14 14 -12 8 2 11 -8 8 -30 -2 -25 -8 -33 -23 -33 -10 0 -20 7 -20 15 -1 8 -2 21 -3 29 0 7 -7 11 -14 8 -8 -3 -20 -1 -27 3 -12 7 -12 11 0 25 16 20 65 16 65 -5z m509 1 c15 -17 15 -19 1 -25 -9 -3 -25 -2 -34 4 -16 8 -18 5 -15 -19 4 -32 -22 -65 -30 -40 -10 33 -12 68 -4 63 5 -3 12 3 15 15 7 27 44 28 67 2z m-572 -69 c-23 -31 -44 -104 -41 -135 4 -31 -22 -67 -47 -67 -30 0 -53 -28 -33 -41 8 -5 23 -9 34 -9 23 0 45 -40 45 -80 0 -37 28 -116 47 -132 11 -9 9 0 -6 31 -12 24 -17 40 -11 36 6 -4 17 -1 25 5 12 10 15 9 15 -4 0 -10 8 -16 21 -16 17 0 20 5 17 23 -2 13 2 29 10 36 12 12 12 15 -3 23 -9 6 -19 7 -22 4 -3 -3 -15 1 -27 9 -29 21 -33 19 -32 -12 0 -14 -5 -28 -13 -31 -11 -4 -13 5 -7 49 4 30 14 60 21 68 13 13 20 9 56 -30 23 -24 45 -55 50 -68 13 -31 -7 -95 -27 -87 -14 5 -23 -2 -48 -38 -12 -18 -14 -18 -39 -1 -15 9 -33 15 -42 12 -23 -9 -27 10 -10 43 15 29 15 30 -5 30 -21 0 -34 21 -44 71 -3 14 -17 38 -31 53 l-25 28 25 30 c14 16 28 42 31 56 11 52 23 72 44 72 20 0 20 1 6 22 -24 33 -20 48 13 48 16 0 34 7 41 15 22 27 32 16 12 -13z m621 -2 c31 0 34 -15 11 -48 -14 -20 -14 -22 3 -22 24 0 43 -19 43 -42 0 -26 38 -98 56 -105 11 -4 8 -13 -16 -39 -16 -19 -32 -47 -35 -62 -9 -42 -20 -57 -44 -60 -20 -3 -20 -5 -6 -25 22 -31 20 -56 -5 -50 -11 3 -31 -2 -45 -11 l-26 -17 21 41 c12 23 24 65 27 93 7 63 28 97 58 97 12 0 28 6 34 14 10 12 8 17 -8 25 -11 6 -26 11 -34 11 -23 0 -43 40 -50 97 -6 51 -33 120 -44 110 -3 -3 2 -16 11 -29 16 -22 23 -48 9 -35 -3 4 -12 2 -19 -4 -10 -8 -15 -8 -19 3 -9 24 -42 20 -41 -5 1 -12 -4 -28 -11 -35 -18 -18 -6 -35 21 -30 12 3 28 -1 34 -9 20 -21 35 -15 30 11 -3 16 0 27 10 31 12 4 13 -4 7 -52 -8 -66 -11 -73 -30 -73 -14 0 -88 84 -98 112 -3 9 -1 32 5 51 8 25 15 33 28 30 10 -3 26 7 41 26 21 26 25 28 40 15 8 -7 28 -14 42 -14z m-550 -27 c13 5 19 -3 28 -33 11 -38 10 -42 -27 -96 -21 -31 -45 -59 -52 -62 -22 -8 -40 19 -47 71 -6 38 -4 47 7 47 10 0 14 -8 13 -25 -4 -29 -2 -29 28 -13 12 7 32 11 45 9 25 -3 29 12 9 31 -8 6 -11 22 -9 35 5 26 -10 30 -32 8 -8 -9 -17 -11 -21 -6 -3 6 -13 7 -21 4 -14 -5 -15 -3 -4 18 25 49 32 52 51 28 10 -14 22 -20 32 -16z m239 17 c7 -11 20 -20 30 -20 20 0 32 -16 18 -25 -17 -11 -11 -44 10 -55 14 -7 26 -8 39 0 30 15 40 12 47 -15 3 -14 10 -25 15 -25 5 0 20 -18 34 -41 l26 -40 -35 -44 c-20 -24 -36 -48 -36 -53 0 -5 -7 -15 -15 -22 -13 -10 -19 -10 -33 4 -16 14 -21 14 -38 1 -22 -17 -54 -20 -54 -5 0 6 9 10 20 10 21 0 27 14 11 25 -10 6 -7 36 5 58 4 6 4 9 -1 5 -4 -4 -14 -3 -21 2 -6 6 -18 9 -25 8 -7 -2 -14 4 -14 12 -2 24 6 32 20 20 14 -12 28 9 30 45 0 11 4 26 9 33 5 9 1 15 -13 19 -23 6 -29 23 -8 24 10 0 10 2 0 6 -7 2 -13 11 -13 18 0 8 -9 19 -19 25 -16 8 -23 5 -39 -15 -23 -29 -37 -32 -46 -9 -8 20 1 34 19 34 8 0 19 9 25 20 6 11 17 20 25 20 8 0 20 -9 27 -20z m1 -84 c-5 -7 -9 -5 -11 7 -2 9 -7 17 -12 17 -5 0 -14 -8 -19 -17 -10 -16 -10 -16 -11 3 0 11 6 26 13 33 10 10 15 8 29 -10 10 -11 15 -26 11 -33z m-273 -2 c0 -8 -4 -12 -10 -9 -5 3 -10 10 -10 16 0 5 5 9 10 9 6 0 10 -7 10 -16z m164 -10 c28 18 46 21 46 7 0 -5 -9 -11 -21 -14 -14 -4 -18 -10 -13 -19 5 -7 9 -22 10 -33 2 -34 14 -53 32 -48 12 3 18 -2 19 -17 1 -16 -2 -20 -14 -16 -9 4 -20 1 -24 -6 -6 -9 -12 -8 -26 2 -17 14 -17 14 -1 -5 17 -20 19 -48 5 -61 -13 -13 -7 -24 13 -24 11 0 20 -4 20 -10 0 -15 -17 -12 -46 6 -23 15 -26 15 -44 -1 -22 -20 -40 -13 -40 16 0 10 -4 19 -10 19 -5 0 -22 19 -38 43 l-29 42 24 35 c14 19 31 39 39 43 8 4 14 16 14 27 0 25 21 31 42 12 16 -13 20 -13 42 2z m94 -65 c-16 -10 -33 5 -23 21 5 8 11 8 21 -1 12 -10 12 -14 2 -20z m-328 -29 c11 -20 4 -70 -10 -70 -5 0 -8 20 -8 45 0 50 2 54 18 25z m650 -27 c-1 -46 -1 -47 -14 -24 -10 19 -11 31 -3 48 5 13 12 23 14 23 1 0 3 -21 3 -47z m-680 2 c0 -16 -35 -21 -44 -6 -8 12 4 21 26 21 10 0 18 -7 18 -15z m734 9 c22 -9 10 -24 -20 -24 -15 0 -24 6 -24 15 0 16 17 19 44 9z m-90 -33 c3 -4 9 -35 12 -67 6 -51 5 -56 -8 -44 -8 8 -12 24 -10 37 5 27 -10 30 -32 7 -9 -8 -20 -12 -26 -9 -5 3 -17 2 -26 -3 -14 -8 -14 -10 0 -24 8 -9 12 -24 9 -37 -7 -27 23 -29 43 -3 9 12 13 13 14 3 0 -7 6 -11 15 -7 19 7 19 2 0 -34 -18 -35 -19 -36 -45 -10 -11 11 -26 17 -33 14 -9 -3 -17 8 -25 32 -11 38 -8 59 15 84 7 8 23 27 34 43 20 26 52 36 63 18z m-281 -47 c-3 -8 -9 -14 -13 -14 -13 0 -22 19 -15 30 9 14 34 0 28 -16z m-263 -64 c0 -5 -4 -10 -10 -10 -5 0 -10 5 -10 10 0 6 5 10 10 10 6 0 10 -4 10 -10z m155 -30 c0 -22 6 -36 19 -44 42 -24 66 -51 66 -73 0 -15 4 -22 11 -18 6 4 8 14 5 22 -6 14 35 63 51 63 4 0 14 7 24 16 14 13 16 20 6 35 -18 29 6 48 31 26 10 -9 22 -14 26 -10 11 11 36 -27 36 -53 0 -36 -20 -39 -46 -8 -16 20 -23 24 -24 13 0 -25 35 -52 60 -44 19 6 20 4 14 -22 -9 -38 -29 -77 -48 -92 -9 -8 -16 -26 -16 -41 0 -24 -5 -29 -37 -35 -21 -4 -48 -18 -61 -32 l-23 -25 -27 25 c-15 14 -41 28 -59 32 -22 4 -33 13 -37 30 -3 13 -20 44 -36 69 -35 52 -41 101 -11 91 22 -7 51 18 51 43 -1 13 -6 11 -23 -10 -15 -19 -26 -25 -36 -18 -22 13 -1 76 25 73 10 -1 23 5 27 13 14 25 32 10 32 -26z m100 13 c14 20 46 13 63 -13 10 -17 8 -21 -11 -31 -12 -6 -32 -20 -43 -31 -22 -19 -22 -19 -35 0 -8 10 -24 22 -36 26 -24 8 -27 14 -17 40 8 22 31 20 39 -3 12 -39 66 -32 64 8 0 13 -2 14 -6 1 -14 -35 -53 -28 -53 9 1 13 3 13 12 -3 10 -18 12 -18 23 -3z m-208 -101 c3 -24 0 -32 -11 -32 -9 0 -15 -6 -13 -12 3 -17 -41 -22 -59 -8 -23 20 -16 33 14 28 26 -4 29 -1 26 21 -3 32 4 43 24 39 9 -2 17 -16 19 -36z m443 8 c4 -18 13 -26 34 -28 27 -3 27 -4 10 -23 -21 -23 -64 -26 -64 -4 0 8 -6 15 -13 15 -9 0 -12 11 -9 36 5 41 33 44 42 4z m-412 -91 c19 -24 21 -29 7 -29 -9 0 -30 7 -46 16 -29 15 -30 16 -12 29 24 19 24 19 51 -16z m389 -6 c-7 -7 -27 -15 -45 -19 l-32 -7 26 31 c23 25 30 28 45 19 15 -9 16 -14 6 -24z m-194 -217 c17 -13 14 -14 -30 -14 -46 0 -47 0 -23 13 31 17 31 17 53 1z m-13 -52 c0 -31 -23 -28 -28 4 -2 15 2 22 12 22 11 0 16 -9 16 -26z"/>
 <path d="M1027 5349 c-17 -20 -17 -23 -3 -37 14 -15 13 -19 -12 -46 -36 -40 3 -11 46 34 23 23 29 36 20 39 -7 2 -18 10 -23 18 -8 11 -14 10 -28 -8z"/>
 <path d="M970 5308 c0 -18 18 -34 28 -24 3 4 -2 14 -11 23 -16 16 -17 16 -17 1z"/>
 <path d="M1102 5308 c-16 -16 -15 -28 3 -28 8 0 15 9 15 20 0 23 -2 24 -18 8z"/>
 <path d="M1088 5251 c18 -18 30 -37 26 -42 -3 -6 -12 -3 -20 8 -7 10 -13 13 -14 6 0 -7 11 -20 25 -29 21 -14 28 -14 42 -3 9 8 19 13 22 11 3 -2 7 1 9 6 5 16 -29 43 -47 37 -10 -3 -31 4 -47 16 -27 20 -26 19 4 -10z"/>
 <path d="M908 5243 c6 -3 12 -12 12 -21 0 -22 39 -47 52 -34 5 5 8 20 6 33 -3 21 -9 24 -43 25 -22 1 -34 -1 -27 -3z"/>
 <path d="M1180 5245 c0 -3 2 -5 5 -5 3 0 5 2 5 5 0 3 -2 5 -5 5 -3 0 -5 -2 -5 -5z"/>
 <path d="M997 5223 c-4 -3 -7 -11 -7 -17 0 -6 5 -5 12 2 6 6 9 14 7 17 -3 3 -9 2 -12 -2z"/>
 <path d="M1160 5015 c0 -8 -6 -15 -14 -15 -9 0 -12 -7 -9 -20 8 -31 23 -35 46 -11 12 12 16 21 9 21 -6 0 -12 9 -12 20 0 11 -4 20 -10 20 -5 0 -10 -7 -10 -15z"/>
 <path d="M1120 4956 c0 -2 8 -10 18 -17 15 -13 16 -12 3 4 -13 16 -21 21 -21 13z"/>
 <path d="M1210 4945 c0 -3 2 -5 5 -5 3 0 5 2 5 5 0 3 -2 5 -5 5 -3 0 -5 -2 -5 -5z"/>
 <path d="M1130 4915 c0 -3 2 -5 5 -5 3 0 5 2 5 5 0 3 -2 5 -5 5 -3 0 -5 -2 -5 -5z"/>
 <path d="M1142 4895 c-10 -20 -9 -25 3 -25 8 0 15 -7 15 -15 0 -8 5 -15 10 -15 6 0 10 9 10 20 0 11 5 20 11 20 14 0 2 18 -20 30 -15 7 -20 4 -29 -15z"/>
 <path d="M1230 4915 c0 -3 2 -5 5 -5 3 0 5 2 5 5 0 3 -2 5 -5 5 -3 0 -5 -2 -5 -5z"/>
 <path d="M910 5010 c0 -11 -5 -20 -11 -20 -14 0 -2 -18 22 -30 29 -16 43 26 17 52 -23 23 -28 23 -28 -2z"/>
 <path d="M949 4943 c-13 -16 -12 -17 4 -4 9 7 17 15 17 17 0 8 -8 3 -21 -13z"/>
 <path d="M880 4945 c0 -3 2 -5 5 -5 3 0 5 2 5 5 0 3 -2 5 -5 5 -3 0 -5 -2 -5 -5z"/>
 <path d="M909 4900 c-13 -10 -18 -19 -11 -20 6 0 12 -9 12 -20 0 -25 5 -25 28 -2 13 13 16 25 11 40 -10 27 -11 27 -40 2z"/>
 <path d="M950 4681 c0 -6 -6 -11 -14 -11 -8 0 -17 -4 -21 -9 -8 -14 23 -41 46 -41 17 0 20 6 17 32 -3 28 -28 55 -28 29z"/>
 <path d="M1117 4683 c-2 -5 -4 -20 -5 -35 -2 -32 21 -38 54 -13 19 14 18 15 -6 35 -27 21 -37 24 -43 13z"/>
 <path d="M995 4650 c3 -5 8 -10 11 -10 2 0 4 5 4 10 0 6 -5 10 -11 10 -5 0 -7 -4 -4 -10z"/>
 <path d="M1080 4650 c0 -5 5 -10 10 -10 6 0 10 5 10 10 0 6 -4 10 -10 10 -5 0 -10 -4 -10 -10z"/>
 <path d="M1013 4599 c24 -18 25 -22 13 -42 -12 -19 -12 -24 5 -41 17 -17 19 -17 25 -2 3 9 13 16 22 16 11 0 1 15 -28 45 -24 25 -48 45 -53 45 -6 0 2 -9 16 -21z"/>
 <path d="M1069 4603 c-13 -17 -13 -17 6 -3 11 8 22 16 24 17 2 2 0 3 -6 3 -6 0 -17 -8 -24 -17z"/>
 <path d="M973 4575 c-3 -9 -3 -18 0 -21 9 -9 27 6 27 22 0 19 -19 18 -27 -1z"/>
 <path d="M1090 4582 c0 -5 7 -16 16 -23 14 -12 16 -11 13 5 -4 20 -29 35 -29 18z"/>
 <path d="M1280 4655 c0 -3 2 -5 5 -5 3 0 5 2 5 5 0 3 -2 5 -5 5 -3 0 -5 -2 -5 -5z"/>
 <path d="M6291 5564 c-6 -14 -9 -30 -6 -35 4 -5 -1 -9 -9 -9 -8 0 -20 -9 -26 -20 -9 -17 -8 -20 13 -20 21 0 55 -25 50 -37 -8 -24 -62 -63 -94 -68 -33 -6 -39 -11 -39 -31 0 -25 -4 -28 -53 -38 -15 -4 -36 -15 -46 -25 -11 -11 -28 -22 -40 -26 -26 -8 -50 -47 -32 -53 22 -7 -1 -22 -36 -22 -35 0 -35 0 -31 -39 2 -28 -1 -42 -13 -49 -9 -6 -22 -32 -28 -58 -7 -29 -23 -56 -41 -72 l-29 -26 34 -38 c19 -21 35 -47 35 -58 0 -30 22 -70 38 -70 9 0 12 -6 7 -17 -8 -21 -8 -21 -6 -51 1 -19 5 -21 26 -16 33 8 66 -3 46 -16 -12 -7 -12 -12 3 -34 9 -14 22 -26 30 -26 7 0 21 -9 31 -20 10 -11 38 -26 62 -32 35 -8 43 -15 43 -34 0 -19 7 -24 38 -30 50 -9 93 -49 83 -78 -5 -12 -20 -23 -37 -26 l-29 -5 25 -25 c13 -13 26 -33 27 -44 2 -11 9 -26 15 -34 10 -12 14 -11 25 4 7 10 13 28 13 41 0 13 6 23 13 23 7 0 18 9 24 19 11 18 9 20 -20 23 -22 2 -33 9 -35 21 -5 23 45 77 71 77 29 0 57 19 57 40 0 13 10 21 32 25 36 8 68 26 68 38 0 4 -14 0 -31 -8 -46 -24 -63 -16 -33 18 22 26 25 27 48 12 19 -13 29 -13 49 -4 26 12 55 59 36 59 -6 0 -7 5 -4 11 4 6 21 9 38 7 31 -3 32 -2 32 37 0 26 5 44 16 52 9 7 19 30 23 52 4 27 17 51 41 74 l35 34 -30 21 c-21 16 -34 39 -46 78 -9 30 -22 58 -29 60 -9 4 -11 18 -8 45 6 39 5 39 -23 37 -35 -2 -62 11 -45 22 13 7 -23 60 -41 60 -5 0 -23 11 -40 25 -16 14 -42 25 -58 25 -24 0 -29 5 -32 27 -2 23 -10 29 -41 36 -39 10 -87 48 -87 70 0 21 22 37 50 37 l25 1 -27 24 c-16 13 -28 32 -28 43 0 18 -18 42 -30 42 -4 0 -12 -12 -19 -26z m39 -31 c0 -7 -7 -13 -15 -13 -15 0 -21 31 -8 43 8 8 23 -12 23 -30z m30 -32 c3 -1 -5 -6 -18 -12 -25 -9 -72 -2 -72 11 0 7 73 7 90 1z m35 -138 c30 -5 35 -10 41 -39 3 -18 13 -39 21 -45 20 -17 43 -64 43 -89 0 -14 -6 -20 -23 -20 -27 0 -47 -17 -47 -39 1 -12 5 -10 19 7 22 25 51 29 51 7 0 -28 -23 -65 -41 -65 -10 0 -21 -4 -24 -10 -3 -5 -13 -10 -22 -10 -12 0 -14 7 -9 34 6 30 3 37 -16 47 -40 20 -68 52 -68 76 0 14 -4 22 -10 18 -6 -4 -8 -14 -5 -24 5 -18 -15 -40 -67 -74 -24 -15 -26 -20 -16 -37 16 -25 -4 -52 -24 -32 -7 7 -20 12 -30 12 -20 0 -38 28 -38 59 0 28 27 27 51 -1 15 -19 18 -20 19 -6 0 23 -36 47 -61 41 -18 -5 -19 -2 -13 23 9 39 29 78 48 93 9 8 16 26 16 41 0 24 5 28 38 34 22 3 48 16 62 32 l25 25 22 -26 c14 -15 38 -29 58 -32z m-247 -92 c-27 -35 -28 -35 -53 -17 -18 13 -17 14 11 29 16 9 37 16 47 17 17 0 16 -3 -5 -29z m368 13 c32 -15 33 -18 17 -30 -25 -18 -26 -18 -51 16 -25 34 -16 38 34 14z m-423 -55 c3 -12 10 -19 14 -16 5 3 7 -10 5 -29 -5 -44 -35 -44 -40 -1 -2 20 -8 27 -18 23 -8 -3 -21 -3 -29 1 -14 5 -14 8 1 24 23 26 60 25 67 -2z m508 5 c10 -13 10 -17 -1 -24 -8 -5 -21 -5 -30 0 -13 7 -16 3 -16 -23 1 -25 -3 -32 -18 -32 -15 0 -21 8 -23 33 -3 22 0 32 8 30 7 -2 14 3 15 10 1 6 2 14 3 17 3 12 50 4 62 -11z m-581 -87 c-11 -19 -23 -59 -27 -88 -7 -59 -27 -99 -50 -99 -8 0 -23 -5 -34 -11 -16 -8 -18 -13 -8 -25 6 -8 22 -14 34 -14 31 0 51 -34 58 -99 4 -29 15 -69 27 -88 26 -44 25 -47 -5 -27 -14 9 -32 13 -45 9 -25 -8 -28 20 -4 53 14 20 14 22 -4 22 -25 0 -38 16 -47 58 -4 19 -20 49 -36 67 -24 27 -27 35 -16 42 21 12 57 75 57 99 0 25 18 44 43 44 17 0 17 2 3 22 -22 32 -20 48 7 48 13 0 32 6 43 14 27 20 28 14 4 -27z m590 28 c7 -8 26 -15 42 -15 26 0 29 -3 22 -22 -3 -13 -11 -29 -16 -35 -8 -10 -5 -13 11 -13 22 0 34 -20 45 -72 3 -14 17 -40 31 -56 l25 -30 -25 -28 c-14 -15 -28 -39 -31 -53 -10 -50 -23 -71 -44 -71 -20 0 -20 -1 -5 -30 17 -33 13 -52 -10 -43 -9 3 -27 -3 -42 -12 -25 -17 -27 -17 -39 1 -7 11 -18 24 -24 31 -14 17 -13 23 5 23 8 0 15 8 15 17 0 13 3 14 11 6 6 -6 18 -9 26 -6 11 4 9 -5 -8 -38 -16 -33 -18 -40 -5 -30 17 14 46 100 46 136 0 36 23 75 45 75 11 0 26 4 34 9 20 13 -3 41 -33 41 -29 0 -48 33 -51 90 -1 29 -12 66 -28 94 -25 44 -23 62 3 31z m-542 -26 c8 -13 19 -18 31 -14 14 4 20 -3 29 -31 13 -44 9 -57 -41 -116 -59 -72 -76 -65 -84 34 -4 52 -3 59 9 47 8 -7 12 -23 10 -36 -5 -25 10 -30 30 -10 6 8 22 12 34 9 27 -5 39 12 21 30 -7 7 -12 23 -11 36 1 24 -22 27 -41 6 -5 -7 -18 -9 -27 -5 -15 5 -15 10 -3 39 16 37 25 40 43 11z m272 1 c6 -11 17 -20 25 -20 18 0 27 -14 19 -34 -9 -23 -23 -20 -46 9 -16 20 -23 23 -39 15 -10 -6 -19 -17 -19 -25 0 -8 -6 -15 -12 -16 -10 0 -10 -2 0 -6 19 -8 14 -23 -8 -23 -21 0 -27 -14 -11 -25 6 -3 8 -15 6 -26 -6 -32 13 -63 30 -49 14 12 22 4 20 -20 0 -8 -8 -14 -17 -12 -9 1 -19 -2 -23 -8 -5 -8 -12 -7 -23 2 -15 11 -15 11 -4 -3 17 -22 23 -57 11 -64 -13 -9 -11 -25 4 -25 7 0 23 -9 35 -20 24 -23 38 -25 45 -7 4 7 6 6 6 -4 1 -21 -21 -40 -35 -31 -6 4 -13 15 -17 25 -3 9 -14 17 -23 17 -10 0 -26 7 -36 17 -17 15 -19 15 -38 -2 -16 -15 -22 -15 -35 -5 -8 7 -15 17 -15 22 0 5 -16 30 -36 54 l-37 44 27 40 c14 22 31 40 36 40 6 0 10 8 10 19 0 10 7 24 15 31 13 11 18 10 29 -5 8 -12 19 -15 34 -11 25 8 38 42 23 60 -12 15 -5 26 18 26 9 0 22 9 29 20 7 11 19 20 27 20 8 0 19 -9 25 -20z m266 -22 c14 -28 14 -30 0 -25 -8 3 -18 2 -21 -4 -4 -5 -13 -3 -21 6 -22 22 -37 18 -32 -8 2 -13 -1 -29 -9 -35 -20 -19 -16 -34 10 -31 12 2 32 -2 44 -9 30 -16 32 -16 28 13 -1 17 3 25 13 25 11 0 13 -9 7 -47 -12 -84 -40 -95 -81 -33 -15 22 -30 40 -34 40 -15 0 -21 52 -10 85 8 25 15 32 30 28 12 -3 22 3 30 16 13 26 25 20 46 -21z m-269 -38 c3 -11 13 -20 22 -20 9 -1 30 -12 46 -26 27 -22 28 -26 14 -37 -12 -9 -14 -18 -8 -35 10 -27 21 -28 44 -2 10 11 13 20 7 20 -7 0 -12 9 -12 19 0 11 -6 21 -12 24 -10 3 -10 7 0 20 17 20 42 11 42 -14 0 -10 6 -22 14 -26 8 -4 25 -24 39 -43 l24 -35 -29 -42 c-16 -24 -33 -43 -38 -43 -6 0 -10 -9 -10 -19 0 -28 -18 -36 -39 -17 -15 14 -20 14 -45 1 -33 -18 -46 -19 -46 -5 0 6 9 10 20 10 11 0 20 5 20 10 0 6 -4 10 -9 10 -15 0 -9 43 8 65 15 18 15 19 -2 5 -14 -10 -20 -11 -26 -2 -4 7 -15 10 -24 6 -13 -5 -17 0 -17 20 0 23 3 25 19 17 21 -11 33 4 35 44 1 11 5 26 9 33 6 9 -1 16 -21 23 -17 6 -33 17 -36 25 -7 19 -26 18 -26 -2 0 -8 -5 -12 -10 -9 -14 9 7 45 26 45 9 0 18 -9 21 -20z m-272 -20 c3 -5 1 -10 -4 -10 -6 0 -11 5 -11 10 0 6 2 10 4 10 3 0 8 -4 11 -10z m261 -79 c-4 -5 -13 -8 -22 -4 -11 4 -12 8 -3 20 14 16 36 2 25 -16z m-328 -76 c-17 -32 -18 -31 -18 21 1 47 1 48 14 24 11 -18 11 -30 4 -45z m650 15 c1 -43 -12 -54 -22 -17 -6 27 3 69 14 62 4 -3 8 -23 8 -45z m-678 5 c0 -16 -17 -19 -45 -9 -13 5 -14 8 -3 15 21 14 48 10 48 -6z m724 9 c20 -8 11 -24 -15 -24 -10 0 -19 7 -19 15 0 16 9 19 34 9z m-618 -48 c13 -17 30 -38 37 -46 23 -25 26 -46 15 -84 -8 -24 -16 -35 -25 -32 -7 3 -22 -3 -33 -14 -26 -26 -27 -25 -45 10 -19 36 -19 41 0 34 9 -4 15 0 15 7 1 9 4 8 11 -3 15 -26 49 -24 44 3 -2 12 3 28 11 37 14 14 14 16 -1 24 -10 6 -21 5 -31 -2 -11 -10 -14 -9 -14 3 0 13 -19 27 -37 27 -3 0 -3 -10 -1 -23 2 -13 -2 -29 -10 -37 -12 -11 -14 -5 -9 48 3 34 8 66 11 70 11 18 38 8 62 -22z m538 16 c3 -5 8 -32 12 -61 6 -44 4 -53 -7 -49 -8 3 -13 17 -13 31 1 31 -8 34 -30 11 -9 -8 -20 -13 -25 -10 -5 4 -16 3 -25 0 -12 -5 -13 -11 -6 -24 12 -22 13 -80 2 -80 -4 0 -14 15 -23 33 -17 37 -12 50 39 115 31 39 64 53 76 34z m-292 -54 c-15 -15 -26 -4 -18 18 5 13 9 15 18 6 9 -9 9 -15 0 -24z m248 -43 c0 -3 -2 -5 -5 -5 -3 0 -5 2 -5 5 0 3 2 5 5 5 3 0 5 -2 5 -5z m-500 -15 c0 -5 -4 -10 -10 -10 -5 0 -10 5 -10 10 0 6 5 10 10 10 6 0 10 -4 10 -10z m157 -6 c3 -8 1 -20 -6 -27 -8 -8 -6 -15 6 -29 9 -10 20 -18 24 -18 18 0 59 -48 53 -63 -3 -8 -1 -18 5 -22 7 -4 11 3 11 18 0 23 29 55 70 77 17 9 20 17 15 40 -7 32 12 51 29 29 6 -8 18 -13 27 -11 15 3 39 -35 39 -63 0 -25 -25 -23 -47 4 -22 25 -22 26 -23 4 0 -24 33 -48 56 -39 26 10 16 -49 -16 -92 -16 -22 -32 -52 -35 -65 -5 -18 -16 -27 -38 -31 -17 -4 -43 -18 -57 -31 l-27 -26 -24 25 c-14 13 -41 27 -62 31 -32 6 -37 11 -37 35 0 15 -7 33 -16 41 -19 15 -39 54 -48 92 -6 26 -5 28 14 22 25 -8 60 19 60 44 -1 11 -7 8 -23 -11 -15 -19 -26 -25 -36 -18 -22 13 -1 76 25 73 10 -1 23 5 27 13 11 19 26 18 34 -2z m53 -19 c0 -24 36 -37 54 -19 9 8 16 20 16 25 0 15 27 10 34 -7 10 -26 7 -32 -16 -40 -13 -4 -29 -16 -37 -26 -13 -19 -13 -19 -35 0 -11 11 -31 25 -43 31 -20 10 -21 14 -10 31 14 23 37 26 37 5z m-168 -90 c3 -24 0 -35 -9 -35 -7 0 -13 -7 -13 -15 0 -23 -44 -18 -66 6 l-19 22 36 -5 c31 -3 35 -1 31 14 -6 24 4 48 22 48 8 0 15 -13 18 -35z m444 15 c1 -8 2 -21 3 -27 0 -7 12 -13 26 -13 14 0 25 -4 25 -8 0 -17 -25 -32 -53 -32 -22 0 -28 4 -23 15 3 9 0 15 -9 15 -16 0 -22 50 -8 64 11 11 38 2 39 -14z m-408 -128 c-11 -2 -31 4 -44 13 -24 16 -25 17 -7 30 16 12 21 11 44 -13 24 -25 25 -27 7 -30z m192 -197 c24 -13 23 -13 -25 -13 -46 0 -48 1 -31 14 24 17 25 17 56 -1z m-12 -47 c-5 -32 -28 -35 -28 -4 0 17 5 26 16 26 10 0 14 -7 12 -22z"/>
 <path d="M6304 5357 c-3 -10 -13 -17 -20 -17 -12 0 -11 -5 3 -26 17 -26 17 -27 -11 -49 -16 -12 -36 -20 -46 -18 -9 3 -25 -3 -34 -12 -17 -17 -17 -40 0 -40 5 0 15 -4 22 -8 16 -11 35 2 28 19 -3 9 16 35 51 68 l56 53 -21 23 c-19 20 -22 21 -28 7z"/>
 <path d="M6240 5301 c0 -12 6 -21 15 -21 8 0 15 4 15 9 0 5 -7 14 -15 21 -13 10 -15 9 -15 -9z"/>
 <path d="M6371 5306 c-8 -9 -11 -19 -7 -23 9 -9 29 13 24 27 -2 8 -8 7 -17 -4z"/>
 <path d="M6320 5281 c0 -5 12 -17 28 -26 l27 -18 -24 27 c-26 28 -31 31 -31 17z"/>
 <path d="M6170 5245 c0 -3 2 -5 5 -5 3 0 5 2 5 5 0 3 -2 5 -5 5 -3 0 -5 -2 -5 -5z"/>
 <path d="M6385 5242 c-3 -3 -5 -14 -5 -26 0 -20 0 -20 -15 0 -8 10 -15 13 -15 7 0 -7 11 -20 24 -28 30 -20 61 -7 68 27 4 19 0 23 -24 24 -15 1 -30 -1 -33 -4z"/>
 <path d="M6267 5223 c-4 -3 -7 -11 -7 -17 0 -6 5 -5 12 2 6 6 9 14 7 17 -3 3 -9 2 -12 -2z"/>
 <path d="M6180 5020 c0 -5 0 -13 1 -16 0 -4 -4 -10 -10 -14 -8 -4 -5 -12 8 -24 22 -20 36 -16 44 14 3 13 0 20 -9 20 -8 0 -14 7 -14 15 0 8 -4 15 -10 15 -5 0 -10 -4 -10 -10z"/>
 <path d="M6220 4945 c-7 -9 -11 -17 -9 -20 3 -2 10 5 17 15 14 24 10 26 -8 5z"/>
 <path d="M6140 4915 c0 -3 2 -5 5 -5 3 0 5 2 5 5 0 3 -2 5 -5 5 -3 0 -5 -2 -5 -5z"/>
 <path d="M6170 4895 c-9 -10 -9 -15 -1 -15 6 0 10 -3 10 -7 -3 -19 2 -33 11 -33 6 0 10 7 10 15 0 8 7 15 15 15 13 0 14 4 5 20 -13 24 -33 26 -50 5z"/>
 <path d="M6390 4955 c0 -3 2 -5 5 -5 3 0 5 2 5 5 0 3 -2 5 -5 5 -3 0 -5 -2 -5 -5z"/>
 <path d="M6470 4945 c0 -3 2 -5 5 -5 3 0 5 2 5 5 0 3 -2 5 -5 5 -3 0 -5 -2 -5 -5z"/>
 <path d="M6413 4928 c2 -7 1 -22 -3 -32 -4 -13 0 -26 12 -38 23 -23 28 -23 28 1 0 11 5 21 10 23 6 2 -4 16 -21 31 -17 15 -29 21 -26 15z"/>
 <path d="M6205 4674 c-33 -25 -27 -49 12 -52 33 -2 34 -1 31 30 -4 37 -15 43 -43 22z"/>
 <path d="M6387 4683 c-4 -3 -7 -19 -7 -35 0 -28 12 -34 44 -22 20 8 21 44 1 44 -8 0 -15 5 -15 10 0 11 -13 13 -23 3z"/>
 <path d="M6260 4656 c0 -9 5 -16 10 -16 6 0 10 4 10 9 0 6 -4 13 -10 16 -5 3 -10 -1 -10 -9z"/>
 <path d="M6350 4649 c0 -5 5 -7 10 -4 6 3 10 8 10 11 0 2 -4 4 -10 4 -5 0 -10 -5 -10 -11z"/>
 <path d="M6284 4599 l27 -21 -22 -24 c-19 -20 -20 -24 -6 -24 9 0 17 -7 17 -15 0 -20 12 -19 32 4 14 17 14 22 2 39 -13 19 -12 22 12 41 15 12 22 21 17 21 -5 0 -18 -9 -28 -20 l-18 -20 -22 20 c-12 11 -25 20 -29 20 -5 0 3 -10 18 -21z"/>
 <path d="M6247 4583 c-4 -3 -7 -13 -7 -21 0 -12 3 -12 15 -2 8 7 15 16 15 21 0 11 -14 12 -23 2z"/>
 <path d="M6362 4574 c1 -9 9 -19 16 -22 9 -3 13 2 10 14 -1 9 -9 19 -16 22 -9 3 -13 -2 -10 -14z"/>
 <path d="M4734 5566 c-3 -8 -1 -23 5 -33 6 -10 11 -12 11 -5 0 18 21 15 36 -5 8 -11 13 -13 14 -5 0 20 16 14 28 -10 l11 -23 0 26 c1 36 -18 56 -62 63 -28 5 -39 3 -43 -8z"/>
 <path d="M2890 5552 c0 -4 16 -17 35 -30 39 -25 46 -57 15 -65 -26 -7 -26 -38 0 -68 20 -24 20 -24 35 -5 8 11 15 26 15 33 0 7 11 15 26 19 33 9 28 40 -7 37 -19 -1 -29 7 -44 35 -13 22 -30 39 -47 43 -16 4 -28 4 -28 1z m70 -132 c0 -5 -5 -10 -11 -10 -5 0 -7 5 -4 10 3 6 8 10 11 10 2 0 4 -4 4 -10z"/>
 <path d="M3807 5544 c-23 -13 -26 -18 -16 -35 13 -26 37 -35 52 -20 17 17 44 13 60 -10 14 -20 16 -20 41 -4 30 20 33 37 11 55 -12 10 -21 10 -41 1 -36 -16 -52 -14 -59 9 -7 24 -11 24 -48 4z"/>
 <path d="M4085 5540 c-17 -19 -17 -21 0 -40 17 -19 16 -29 -7 -62 -11 -15 -9 -21 8 -38 l20 -20 24 25 c23 24 23 25 5 45 -16 17 -17 24 -7 38 22 31 24 42 12 57 -17 20 -33 19 -55 -5z"/>
 <path d="M2650 5536 c0 -3 21 -17 48 -30 26 -13 71 -40 100 -59 28 -20 52 -34 52 -33 0 2 -5 17 -11 33 -8 24 -23 37 -67 56 -59 26 -122 43 -122 33z"/>
 <path d="M4910 5530 c0 -6 4 -10 8 -10 5 0 37 -18 72 -41 34 -22 64 -39 66 -37 1 2 -3 15 -9 28 -9 17 -32 32 -75 47 -34 12 -62 18 -62 13z"/>
 <path d="M4670 5435 c0 -2 19 -14 43 -26 23 -12 68 -39 100 -60 31 -22 57 -38 57 -36 0 2 -5 18 -10 34 -11 32 -30 43 -119 74 -56 20 -71 23 -71 14z"/>
 <path d="M4276 5391 c29 -15 66 -38 84 -51 l32 -23 -7 24 c-10 30 -28 44 -84 64 -70 24 -81 17 -25 -14z"/>
 <path d="M4516 5411 c-3 -4 12 -16 32 -25 20 -10 56 -31 80 -47 42 -28 56 -21 30 14 -15 20 -136 69 -142 58z"/>
 <path d="M2600 5385 c0 -6 9 -25 20 -43 14 -23 26 -32 38 -28 79 24 126 18 172 -21 41 -34 51 -21 14 18 -47 50 -80 62 -150 56 -48 -3 -66 -1 -78 11 -9 9 -16 12 -16 7z"/>
 <path d="M3400 5384 c0 -5 14 -15 31 -23 18 -8 61 -33 96 -57 65 -43 65 -44 58 -16 -10 39 -21 49 -81 71 -72 27 -104 35 -104 25z"/>
 <path d="M3070 5341 c0 -7 7 -14 15 -17 26 -10 17 -27 -10 -20 -26 7 -26 6 -10 -23 21 -41 29 -44 73 -30 52 18 54 21 32 57 -14 22 -27 32 -44 32 -13 0 -31 3 -40 6 -9 3 -16 1 -16 -5z"/>
 <path d="M3816 5294 c32 -19 67 -43 77 -51 18 -17 22 -7 10 22 -7 19 -97 65 -127 65 -12 0 4 -14 40 -36z"/>
 <path d="M4020 5315 c0 -2 19 -14 43 -26 23 -12 57 -33 76 -47 27 -20 33 -22 28 -8 -4 10 -7 22 -7 27 0 12 -98 59 -122 59 -10 0 -18 -2 -18 -5z"/>
 <path d="M3390 4749 c-652 -57 -1283 -274 -1753 -603 -297 -207 -703 -635 -821 -864 -18 -34 -68 -264 -59 -272 2 -3 9 4 16 15 36 65 219 326 292 418 468 583 1190 993 1995 1131 238 41 351 50 630 51 278 0 380 -8 630 -51 661 -112 1246 -403 1678 -834 156 -155 271 -322 369 -535 l32 -70 -48 -6 c-95 -13 -170 -70 -223 -171 -28 -53 -37 -197 -15 -238 15 -28 28 -29 124 -10 67 14 98 7 149 -33 49 -38 111 -164 128 -261 l7 -39 -52 5 c-47 5 -57 10 -91 49 -122 140 -112 132 -166 127 -27 -3 -61 -13 -75 -24 -67 -50 -110 -172 -83 -237 20 -49 55 -68 130 -74 47 -4 67 -10 71 -22 10 -24 19 -302 11 -342 -6 -33 -7 -34 -51 -31 -41 4 -46 2 -65 -30 -24 -40 -26 -81 -4 -102 14 -14 18 -14 44 -1 16 8 38 28 50 45 14 19 30 30 45 30 14 0 29 8 35 19 14 26 13 34 -3 28 -32 -12 -38 7 -26 81 11 68 5 167 -17 297 -5 29 -4 30 46 42 95 23 211 106 260 186 27 43 25 103 -5 192 -13 41 -22 81 -19 90 4 9 26 27 51 41 94 56 181 -3 203 -139 11 -70 -3 -146 -41 -226 -46 -97 -57 -242 -21 -290 29 -39 113 -36 208 8 63 29 72 37 102 92 l34 61 -41 38 c-54 52 -119 89 -172 99 -24 4 -43 12 -42 17 1 5 18 53 38 107 53 148 47 243 -20 309 -69 69 -174 55 -273 -37 l-59 -54 -24 26 c-45 49 -97 64 -193 57 l-86 -7 -16 39 c-12 28 -14 54 -10 92 9 72 19 89 65 103 54 16 106 2 241 -66 59 -30 121 -55 137 -55 22 0 41 12 71 42 23 23 42 47 42 53 0 7 -19 17 -42 24 -66 20 -136 61 -173 103 -19 21 -59 87 -90 148 -167 333 -373 572 -715 828 -99 75 -345 225 -465 285 -342 170 -719 281 -1135 333 -141 18 -596 26 -740 13z m2812 -2316 c14 -16 33 -40 43 -55 l17 -28 -36 0 c-73 0 -123 100 -55 109 3 1 17 -11 31 -26z m704 -194 c43 -26 39 -41 -14 -53 -34 -7 -46 -6 -61 8 -17 16 -33 70 -24 80 8 7 63 -12 99 -35z m-681 -479 c-10 -11 -29 -20 -42 -20 -16 0 -23 6 -23 20 0 17 7 20 42 20 40 0 41 0 23 -20z"/>
 <path d="M3560 4596 c0 -3 62 -51 137 -108 270 -201 394 -360 418 -535 9 -71 -5 -170 -90 -643 l-74 -405 16 -67 c8 -38 19 -68 23 -68 19 0 128 518 185 880 43 273 78 375 156 445 117 106 279 48 353 -126 l28 -67 47 49 c59 61 77 62 91 7 74 -286 154 -434 260 -481 83 -37 231 -19 306 38 49 38 75 94 81 181 3 41 9 74 13 74 16 0 157 -139 174 -172 l19 -35 -83 -144 c-148 -259 -444 -750 -468 -776 -18 -20 -25 -42 -29 -97 l-6 -71 69 61 c178 158 246 241 154 189 -14 -8 -30 -14 -37 -15 -6 0 48 98 121 218 254 417 304 520 313 652 5 65 2 82 -17 120 -65 128 -347 323 -585 405 -59 20 -107 29 -181 32 l-102 6 -6 48 c-11 79 -35 54 -36 -36 -1 -35 -7 -45 -46 -79 -25 -21 -46 -37 -47 -35 -1 2 -15 30 -30 62 -36 76 -98 142 -153 163 -85 32 -192 0 -254 -77 -34 -43 -100 -174 -100 -201 0 -9 -4 -20 -10 -23 -6 -3 -10 4 -10 17 0 46 -41 193 -72 257 -39 82 -137 182 -228 231 -106 58 -300 139 -300 126z m1485 -598 c53 -13 168 -72 230 -116 69 -50 164 -141 181 -174 14 -27 14 -28 -40 -63 -162 -108 -324 -80 -415 70 -37 61 -100 218 -108 273 l-6 35 59 -7 c32 -4 77 -12 99 -18z"/>
 <path d="M2995 4345 c-52 -18 -110 -83 -124 -139 -22 -87 -9 -194 35 -294 13 -29 20 -50 15 -48 -4 3 -58 43 -119 89 -121 90 -256 166 -341 191 -121 35 -202 9 -255 -84 -29 -51 -31 -62 -31 -152 l0 -98 -60 0 c-57 0 -63 2 -98 38 -36 37 -47 74 -26 87 5 4 20 -1 31 -12 16 -13 20 -14 16 -3 -7 22 -67 60 -84 53 -8 -3 -14 -19 -14 -38 0 -24 11 -44 45 -81 25 -26 45 -49 45 -49 0 -1 -42 -5 -92 -8 -162 -11 -255 -56 -274 -132 -9 -36 17 -119 56 -176 16 -24 26 -47 22 -50 -4 -4 -29 -12 -57 -18 -118 -29 -381 -143 -469 -204 -40 -27 -329 -327 -322 -334 2 -3 47 24 98 60 288 199 633 365 876 420 69 16 97 19 110 11 9 -6 49 -74 88 -150 125 -245 119 -237 174 -261 59 -26 57 -30 35 95 -17 101 -24 114 -40 76 -12 -29 -12 -29 -57 66 -54 113 -94 156 -191 210 -62 34 -81 40 -133 40 -68 0 -78 8 -102 79 -15 42 5 89 48 114 41 25 157 45 297 53 l118 6 34 -58 c46 -79 121 -173 182 -228 45 -40 49 -47 39 -67 -23 -42 -51 -135 -61 -204 -6 -38 -15 -75 -21 -82 -6 -7 2 -28 22 -62 18 -28 35 -51 38 -51 4 0 17 16 30 35 l22 35 53 -26 c62 -32 187 -115 206 -137 10 -13 9 -21 -9 -45 -15 -21 -19 -36 -14 -55 8 -34 51 -69 78 -65 22 3 23 17 15 113 -1 17 0 37 4 45 4 8 3 22 -3 30 -8 13 -11 12 -23 -4 -14 -19 -17 -17 -73 29 -32 26 -95 65 -139 87 -44 21 -79 44 -77 50 1 6 14 25 27 43 23 29 33 65 19 65 -3 0 -19 -9 -35 -21 -28 -19 -29 -19 -29 -2 0 25 67 163 120 247 48 76 80 153 80 194 0 71 -67 185 -129 217 -19 9 -82 16 -194 21 l-167 7 0 51 c0 101 60 166 155 166 137 0 279 -77 593 -322 132 -104 303 -222 387 -268 33 -19 62 -35 64 -36 2 -2 -33 -42 -77 -89 -45 -47 -111 -126 -148 -174 -36 -49 -74 -91 -84 -94 -14 -3 -19 -19 -25 -66 -4 -34 -5 -65 -2 -67 10 -10 251 139 278 172 13 16 10 17 -39 10 -41 -5 -53 -4 -50 5 2 7 61 66 130 131 l125 118 69 -26 c38 -14 71 -27 73 -29 2 -2 -3 -22 -12 -43 -32 -80 27 -192 102 -192 37 0 118 50 175 108 l49 51 -19 58 c-22 63 -11 57 -151 93 -37 9 -43 15 -49 46 -7 38 -27 41 -32 6 -2 -12 -9 -22 -15 -22 -15 0 -85 24 -92 31 -3 3 51 56 120 118 179 161 256 263 300 395 25 74 33 146 17 146 -5 0 -15 -19 -23 -42 -35 -108 -146 -235 -388 -446 l-145 -125 -65 34 c-36 18 -104 59 -151 90 -81 53 -87 59 -119 128 -28 61 -32 77 -22 97 13 30 25 30 45 2 24 -33 20 0 -4 40 -31 51 -80 38 -80 -22 0 -17 13 -59 30 -93 16 -35 27 -63 23 -63 -20 0 -174 130 -188 160 -78 158 -71 288 17 351 43 31 143 38 219 15 108 -31 285 -131 389 -219 27 -23 32 -32 23 -45 -13 -22 -68 -41 -120 -41 -61 -1 -121 -28 -138 -62 -42 -80 16 -201 116 -243 132 -55 251 160 194 351 -24 81 -72 141 -169 214 -206 155 -382 216 -501 174z m555 -574 c-25 -47 -94 -67 -120 -36 -19 23 -1 36 61 45 30 4 58 8 62 9 4 0 3 -8 -3 -18z m-923 -87 c10 -27 -16 -95 -75 -194 -31 -52 -57 -97 -59 -99 -9 -12 -193 211 -224 272 l-19 37 185 0 c160 0 186 -2 192 -16z m1202 -431 c17 -12 -82 -73 -119 -73 -27 0 -25 17 5 61 24 36 24 36 67 26 24 -6 45 -12 47 -14z m-1019 -483 c0 -32 -23 -51 -42 -32 -7 7 -4 18 7 36 23 34 35 33 35 -4z"/>
 <path d="M3560 4335 c-20 -24 -6 -76 40 -155 60 -102 64 -85 6 24 -30 57 -32 69 -10 87 14 11 18 10 30 -6 24 -33 25 -10 1 26 -26 39 -48 47 -67 24z"/>
 <path d="M3811 4240 c-7 -33 -21 -85 -31 -116 -11 -32 -20 -69 -20 -84 0 -30 27 -60 53 -60 19 0 23 -15 6 -25 -5 -4 -19 1 -30 11 -25 23 -24 4 2 -30 26 -34 41 -33 72 4 37 43 27 66 -32 74 -27 3 -50 9 -53 11 -3 3 6 36 19 73 22 60 44 202 31 202 -3 0 -11 -27 -17 -60z"/>
 <path d="M2665 4250 c-3 -11 -3 -30 1 -42 8 -28 114 -162 121 -154 3 3 -16 31 -41 64 -45 57 -57 94 -35 107 5 4 19 -1 30 -11 29 -26 23 -4 -8 28 -31 33 -59 36 -68 8z"/>
 <path d="M3001 4099 c7 -14 75 -52 183 -104 94 -46 173 -81 175 -79 15 14 -31 44 -185 118 -97 47 -179 86 -181 86 -2 0 1 -10 8 -21z"/>
 <path d="M4410 3992 c0 -11 9 -31 21 -46 29 -37 288 -276 298 -276 28 0 -18 54 -160 190 -112 107 -159 146 -159 132z"/>
 <path d="M4370 3762 c-56 -56 -65 -219 -19 -351 l22 -63 -59 -54 c-33 -29 -69 -56 -80 -60 -17 -4 -24 -18 -34 -66 -6 -33 -9 -62 -6 -65 7 -8 196 57 196 68 0 5 -11 9 -25 9 -14 0 -25 4 -25 9 0 9 61 51 73 51 6 0 62 -174 79 -250 12 -51 13 -53 19 -25 14 62 8 143 -15 226 l-23 87 47 35 c83 62 129 200 101 303 -21 77 -132 174 -200 174 -12 0 -35 -13 -51 -28z m82 -123 c50 -26 140 -117 136 -138 -3 -17 -134 -111 -153 -111 -28 0 -91 241 -68 263 12 13 43 7 85 -14z"/>
 <path d="M4775 3620 c-20 -22 -34 -85 -34 -150 1 -61 17 -23 18 41 1 31 7 51 19 62 24 22 32 21 32 -3 0 -11 5 -20 10 -20 6 0 10 16 10 35 0 45 -29 64 -55 35z"/>
 <path d="M2810 3583 c-25 -19 -53 -41 -64 -48 -18 -13 -17 -16 19 -64 20 -28 41 -51 46 -51 12 0 128 83 128 93 1 9 -71 107 -79 106 -3 0 -25 -16 -50 -36z"/>
 <path d="M3769 3532 c7 -14 44 -31 118 -56 58 -20 109 -33 112 -31 11 11 -22 29 -111 60 -51 18 -101 36 -112 40 -16 7 -17 5 -7 -13z"/>
 <path d="M2102 3528 c-19 -19 -14 -62 9 -92 27 -34 183 -153 177 -135 -2 8 -31 36 -64 62 -63 51 -88 86 -78 111 7 18 39 22 49 6 3 -5 11 -10 17 -10 16 0 -22 40 -54 56 -33 17 -41 17 -56 2z"/>
 <path d="M5898 3493 c-42 -42 -52 -47 -87 -45 -32 2 -42 -1 -52 -19 -9 -18 -9 -25 5 -34 25 -19 62 -6 111 37 25 22 45 38 45 36 0 -1 -9 -32 -20 -67 -28 -87 -13 -131 37 -108 31 14 31 46 -1 40 -36 -7 -38 18 -10 103 14 43 24 83 22 91 -2 8 -21 -5 -50 -34z"/>
 <path d="M1433 3462 c-148 -50 -188 -72 -130 -72 30 0 327 100 327 110 0 7 -29 23 -33 18 -1 -1 -75 -26 -164 -56z"/>
 <path d="M3038 3504 c-3 -5 -9 -25 -13 -44 -12 -58 -36 -109 -48 -104 -7 2 -25 -6 -40 -19 -25 -20 -27 -25 -18 -50 6 -15 17 -27 24 -27 25 0 64 45 82 96 9 27 20 56 23 64 3 8 11 -13 17 -47 23 -120 56 -162 95 -123 22 22 23 29 14 55 -6 14 -9 14 -29 -5 l-23 -22 -16 24 c-9 13 -22 58 -30 101 -16 80 -29 116 -38 101z"/>
 <path d="M6089 3392 c-95 -147 -192 -271 -563 -724 -53 -65 -112 -133 -131 -152 -26 -26 -39 -51 -49 -96 -9 -37 -10 -60 -4 -60 13 0 242 157 264 181 23 26 12 34 -27 20 -18 -6 -34 -9 -36 -7 -3 2 65 88 151 190 184 219 320 400 372 493 62 110 110 243 88 243 -5 0 -34 -40 -65 -88z"/>
 <path d="M6551 3419 c-11 -28 -18 -55 -16 -60 3 -4 33 -18 66 -30 33 -12 62 -25 64 -29 2 -4 -5 -30 -15 -59 l-20 -51 54 -24 c94 -42 93 -42 111 1 34 80 32 86 -27 107 -93 33 -90 29 -68 82 11 25 20 51 20 57 0 11 -110 57 -136 57 -6 0 -21 -23 -33 -51z"/>
 <path d="M5444 3434 c-11 -17 -18 -51 -20 -102 l-3 -77 12 65 c7 36 16 71 20 78 13 20 37 14 38 -10 l0 -23 11 23 c8 16 8 29 0 47 -15 32 -37 32 -58 -1z"/>
 <path d="M4852 3417 c-6 -7 -16 -35 -22 -62 -6 -27 -15 -54 -21 -61 -5 -7 -6 -21 -1 -35 9 -23 9 -23 20 -2 6 11 14 39 18 62 7 44 24 64 50 59 26 -5 33 -40 17 -83 -40 -108 -23 -123 27 -24 25 48 35 59 55 59 37 0 39 -17 6 -62 -19 -25 -31 -54 -31 -72 0 -30 2 -28 40 29 57 85 54 155 -7 155 -12 0 -31 -10 -43 -22 l-20 -22 0 25 c0 53 -59 91 -88 56z"/>
 <path d="M710 3286 c-5 -15 -10 -33 -10 -41 0 -7 -10 -15 -22 -17 -33 -5 -35 -28 -1 -28 26 0 29 4 41 52 13 56 9 77 -8 34z"/>
 <path d="M472 3278 c2 -13 -3 -28 -11 -34 -11 -9 -11 -15 4 -38 10 -14 20 -24 23 -22 3 3 -1 13 -9 22 -11 13 -11 18 -1 21 6 3 12 16 12 30 0 22 3 24 28 19 26 -6 26 -6 8 9 -30 23 -58 20 -54 -7z"/>
 <path d="M568 3275 c-3 -16 -9 -40 -13 -52 -6 -18 -4 -21 14 -16 12 3 21 1 21 -4 0 -5 9 -9 20 -9 22 0 24 4 11 24 -4 7 -14 12 -22 10 -9 -2 -15 10 -19 37 -6 39 -6 40 -12 10z"/>
 <path d="M416 3245 c-10 -25 -16 -48 -13 -51 9 -9 38 56 35 77 -2 14 -9 6 -22 -26z"/>
 <path d="M2670 3276 c0 -3 39 -25 88 -48 96 -45 93 -53 -20 -46 -37 2 -68 1 -68 -3 0 -4 15 -29 33 -55 l32 -49 108 -3 c124 -3 124 -3 76 80 -56 96 -74 107 -196 123 -29 4 -53 4 -53 1z"/>
 <path d="M1683 3199 l-32 -70 -50 26 c-28 14 -53 25 -56 25 -7 0 -65 -124 -65 -138 0 -9 84 -52 103 -52 8 0 26 28 42 63 16 34 30 63 31 65 0 1 26 -9 56 -22 l55 -24 31 64 c18 35 32 69 32 75 0 8 -102 61 -113 59 -1 -1 -16 -32 -34 -71z"/>
 <path d="M4610 3249 c0 -25 47 -77 149 -163 148 -126 376 -306 386 -306 3 0 5 9 5 19 0 12 -32 44 -87 87 -98 76 -357 292 -415 347 -31 28 -38 31 -38 16z"/>
 <path d="M5207 3194 c-42 -46 -51 -51 -91 -52 -57 0 -66 -6 -66 -43 0 -26 3 -29 34 -29 34 0 88 35 134 88 25 28 25 27 -2 -55 -10 -28 -16 -71 -14 -95 3 -38 6 -43 30 -46 18 -2 31 4 42 20 23 32 20 38 -16 36 -43 -4 -46 15 -18 108 12 40 20 84 18 96 -3 21 -7 19 -51 -28z"/>
 <path d="M512 3128 c-7 -7 -12 -20 -12 -31 0 -18 -1 -17 -26 2 -37 29 -54 27 -54 -8 0 -24 -5 -29 -32 -35 -67 -13 -91 -71 -43 -102 55 -36 215 17 223 74 3 16 -1 20 -12 16 -17 -7 -22 11 -6 21 12 7 51 -12 66 -33 6 -8 16 -12 22 -8 20 12 13 25 -20 40 l-33 13 48 8 c26 4 47 11 47 15 0 7 -43 18 -103 24 -15 1 -30 6 -34 9 -9 10 -17 9 -31 -5z m72 -22 c12 3 3 -4 -19 -15 -46 -21 -60 -18 -45 10 8 14 15 17 27 11 9 -5 25 -8 37 -6z m-84 -64 c0 -18 -4 -23 -15 -18 -13 4 -14 2 -5 -14 16 -29 30 -24 30 9 0 17 5 33 11 36 6 4 9 0 7 -11 -2 -13 2 -18 15 -16 32 5 17 -15 -32 -41 -67 -37 -129 -45 -159 -20 -24 19 -24 19 -4 43 15 19 31 24 80 28 34 2 59 8 56 13 -3 5 -14 9 -24 9 -22 0 -34 15 -25 30 11 18 65 -22 65 -48z"/>
 <path d="M3418 3070 c-4 -19 -10 -51 -13 -71 -7 -45 -33 -80 -91 -120 -32 -22 -44 -37 -44 -54 0 -32 8 -31 57 4 75 54 107 124 101 221 -3 51 -4 52 -10 20z"/>
 <path d="M1920 3051 c0 -12 -65 -37 -120 -46 -56 -9 -136 -51 -160 -84 -51 -73 -43 -151 30 -265 31 -50 46 -84 43 -97 -9 -31 -90 -97 -149 -119 -150 -56 -179 6 -110 230 46 148 46 182 3 225 -59 59 -165 72 -254 31 -160 -75 -422 -295 -522 -440 -143 -207 -110 -448 78 -573 120 -81 313 -120 485 -99 85 11 57 26 -48 26 -122 0 -196 15 -276 55 -77 39 -122 86 -158 163 -89 195 12 409 310 658 89 75 246 184 265 184 28 0 25 -51 -13 -172 -43 -143 -50 -227 -21 -272 11 -15 43 -39 74 -53 105 -48 277 -30 379 40 61 42 97 93 89 125 -3 13 -28 53 -55 88 -73 95 -78 162 -18 230 38 43 71 61 162 85 145 40 158 56 60 76 -73 15 -74 15 -74 4z"/>
 <path d="M5576 3021 c-18 -20 -48 -107 -60 -176 -12 -62 10 -30 28 44 19 76 30 91 63 91 22 0 24 -3 18 -27 -5 -22 -4 -25 6 -16 7 7 13 32 13 55 1 39 -1 43 -25 46 -15 2 -32 -5 -43 -17z"/>
 <path d="M586 3011 c-4 -5 -2 -12 3 -15 5 -4 12 -2 15 3 4 5 2 12 -3 15 -5 4 -12 2 -15 -3z"/>
 <path d="M3607 2966 c-10 -30 -24 -59 -32 -66 -8 -7 -15 -10 -15 -6 0 4 -11 -1 -25 -10 -15 -10 -25 -26 -25 -40 0 -61 60 -27 98 54 l26 57 8 -63 c7 -66 29 -112 51 -112 20 0 37 22 37 47 0 24 -14 31 -25 13 -10 -16 -33 -12 -39 8 -3 9 -10 48 -15 86 -6 38 -14 73 -19 78 -4 4 -16 -15 -25 -46z"/>
 <path d="M4157 2979 c-34 -17 -57 -35 -54 -42 39 -97 39 -98 61 -91 11 4 42 17 68 30 l47 24 22 -50 c12 -27 26 -50 31 -50 10 0 128 59 128 64 0 4 -41 99 -45 104 -1 1 -32 -11 -69 -28 l-67 -30 -21 50 c-11 28 -26 50 -32 50 -6 -1 -37 -15 -69 -31z"/>
 <path d="M3798 2964 c-10 -20 -8 -39 11 -102 23 -80 28 -89 36 -80 3 3 -2 24 -10 48 -20 56 -19 106 0 114 10 4 19 -2 25 -17 6 -16 9 -18 9 -5 1 30 -22 68 -41 68 -10 0 -24 -11 -30 -26z"/>
 <path d="M2940 2941 c-5 -11 -10 -26 -10 -35 0 -24 52 -156 61 -156 5 0 0 24 -11 53 -22 58 -26 102 -8 113 6 4 17 -1 25 -11 19 -28 17 4 -3 33 -19 27 -40 28 -54 3z"/>
 <path d="M4710 2921 c0 -5 -17 -30 -39 -57 -33 -42 -43 -48 -79 -50 -53 -3 -62 -9 -62 -45 0 -24 4 -29 25 -29 41 0 81 26 116 75 18 25 34 43 36 41 2 -2 -1 -23 -6 -47 -16 -67 -14 -144 4 -159 20 -16 61 3 71 32 8 26 0 32 -25 18 -45 -24 -47 -8 -25 178 5 36 3 52 -5 52 -6 0 -11 -4 -11 -9z"/>
 <path d="M660 2879 c0 -24 -3 -60 -6 -79 l-6 -35 -57 3 -58 4 -7 -32 c-3 -18 -6 -54 -6 -81 l0 -49 44 0 c24 0 51 -3 60 -6 19 -7 23 2 31 88 l7 68 57 -7 58 -6 6 39 c4 22 7 58 7 82 0 34 -3 42 -19 42 -10 0 -39 3 -65 6 l-46 7 0 -44z"/>
 <path d="M2502 2808 c-12 -40 -18 -76 -14 -79 15 -13 106 -39 113 -32 4 5 16 39 27 76 15 49 17 69 9 72 -55 20 -101 35 -107 35 -4 0 -16 -33 -28 -72z"/>
 <path d="M2322 2848 c-7 -7 -12 -23 -12 -37 0 -23 -1 -23 -18 -8 -23 21 -56 22 -73 1 -10 -13 -8 -24 17 -70 32 -60 54 -86 54 -63 0 8 -11 32 -24 54 -25 40 -21 65 9 65 18 0 55 -48 55 -70 0 -18 27 -47 35 -38 2 2 -3 28 -12 57 -12 37 -14 57 -7 68 19 31 32 24 39 -19 8 -48 21 -78 34 -78 14 0 -15 109 -34 130 -20 23 -45 26 -63 8z"/>
 <path d="M1985 2826 c-8 -13 -13 -31 -9 -40 5 -14 2 -15 -17 -7 -34 12 -69 -3 -69 -31 0 -20 61 -89 98 -112 26 -16 10 18 -24 49 -39 36 -43 67 -9 74 13 2 32 -12 62 -45 23 -27 44 -46 47 -43 3 3 -8 27 -25 54 -21 33 -29 55 -25 71 8 31 32 31 40 1 7 -28 43 -77 57 -77 15 0 -38 97 -63 114 -31 22 -45 20 -63 -8z"/>
 <path d="M5963 2828 c-24 -26 -87 -167 -79 -176 3 -3 17 21 32 54 31 70 50 94 77 94 15 0 18 -5 14 -26 -4 -23 -3 -24 10 -11 8 8 16 30 16 48 2 29 -1 34 -23 37 -17 2 -33 -5 -47 -20z"/>
 <path d="M4921 2743 c-17 -14 -25 -35 -31 -88 -12 -91 -12 -107 0 -100 6 3 10 27 10 53 0 77 40 130 59 80 9 -21 10 -19 10 13 1 48 -19 65 -48 42z"/>
 <path d="M5776 2728 c-4 -16 20 -78 75 -200 45 -98 87 -185 94 -195 13 -17 14 -17 20 0 5 11 -18 73 -68 180 -41 89 -82 179 -91 200 -17 43 -22 45 -30 15z"/>
 <path d="M2165 2544 c-82 -7 -166 -13 -185 -13 l-34 -1 23 -17 c22 -15 39 -15 205 -3 100 7 183 14 185 16 7 6 -21 34 -33 33 -6 -1 -78 -8 -161 -15z"/>
 <path d="M1083 2473 c-20 -7 -15 -51 7 -73 22 -22 160 -94 167 -87 2 3 -23 20 -57 38 -34 18 -66 41 -71 51 -15 28 -4 51 21 43 30 -9 24 2 -10 20 -30 16 -37 17 -57 8z"/>
 <path d="M5657 2460 c-22 -17 -87 -160 -87 -191 0 -24 19 5 39 60 25 68 43 91 73 91 18 0 20 -4 14 -30 -8 -44 11 -28 25 20 9 31 9 43 -1 55 -17 20 -32 19 -63 -5z"/>
 <path d="M1866 2335 c-10 -41 -21 -75 -24 -75 -4 0 -31 7 -60 14 -40 11 -54 12 -57 3 -10 -30 -35 -140 -33 -142 4 -4 110 -35 119 -35 4 0 15 34 24 75 10 41 21 75 24 75 3 0 28 -7 55 -15 28 -8 53 -12 57 -8 5 7 39 132 39 146 0 3 -21 10 -47 16 -27 7 -55 14 -64 17 -12 3 -19 -12 -33 -71z"/>
 <path d="M3527 2396 c-47 -17 -99 -57 -133 -101 -31 -42 -64 -142 -64 -197 l0 -41 -82 7 c-46 3 -207 9 -358 12 -381 9 -446 -5 -445 -98 1 -66 48 -128 127 -167 33 -17 67 -31 75 -31 39 0 113 -53 162 -114 91 -116 121 -121 166 -25 16 33 37 65 47 70 26 14 86 11 118 -6 36 -19 36 -14 15 -300 -8 -110 -15 -211 -15 -225 -1 -20 -11 -30 -52 -50 -67 -32 -90 -65 -96 -134 -3 -43 1 -65 21 -110 14 -31 31 -56 37 -56 6 0 5 11 -5 30 -18 34 -20 99 -4 134 11 23 74 66 82 56 2 -3 0 -45 -5 -94 -7 -65 -6 -101 2 -132 23 -80 32 -59 59 136 l16 115 50 3 c106 8 241 -30 471 -129 91 -39 132 -52 174 -53 52 -1 55 0 58 25 4 38 -33 111 -86 170 -38 42 -44 54 -35 69 9 14 6 24 -16 51 l-28 33 -40 -34 -41 -34 25 -33 c29 -38 31 -38 53 -18 15 14 19 12 44 -23 14 -21 40 -51 56 -67 35 -34 38 -51 10 -60 -26 -8 -67 5 -215 70 -199 87 -331 125 -438 125 -33 0 -37 2 -33 23 3 12 8 72 11 132 11 200 34 281 101 348 19 19 53 42 75 53 40 17 41 17 51 0 6 -10 26 -36 46 -58 19 -21 33 -40 31 -41 -2 -2 -23 -11 -47 -22 -84 -36 -153 -130 -154 -209 -3 -151 182 -240 347 -167 64 28 61 37 -13 33 -98 -6 -292 50 -292 84 0 81 138 194 238 194 42 0 106 -33 237 -120 67 -44 65 -44 49 2 -11 33 -25 50 -59 71 -54 35 -58 61 -15 102 38 37 117 45 211 21 71 -18 279 -98 279 -107 0 -15 -157 -51 -241 -55 -51 -2 -95 -7 -98 -10 -3 -3 3 -22 14 -42 18 -34 25 -38 75 -44 47 -6 71 -2 162 28 59 19 113 34 119 34 8 0 10 -17 6 -57 -3 -32 -14 -139 -23 -238 -9 -99 -20 -189 -24 -199 -7 -20 17 -96 30 -96 8 0 80 179 80 199 0 11 -5 10 -20 -4 -18 -16 -20 -17 -20 -1 0 27 40 409 43 413 7 6 147 23 200 23 31 0 57 3 57 6 0 4 -5 25 -12 47 l-12 39 -63 -6 c-35 -4 -85 -4 -112 0 l-48 6 -6 107 c-6 100 -19 164 -38 185 -5 6 -9 -46 -9 -120 0 -71 -4 -134 -8 -140 -5 -8 -38 2 -107 33 -157 70 -264 103 -334 103 -108 0 -156 -36 -169 -126 l-7 -44 -95 64 c-92 62 -169 130 -159 141 8 8 233 25 332 25 49 0 108 5 131 11 59 15 113 61 127 109 l12 40 402 0 c221 0 409 2 418 6 15 5 14 10 -5 44 l-22 38 -121 -5 c-66 -3 -245 -2 -397 2 l-277 7 -16 53 c-33 115 -137 228 -265 288 -53 26 -80 32 -150 34 -55 2 -98 -2 -123 -11z m234 -96 c80 -24 148 -67 213 -134 50 -51 95 -120 85 -130 -5 -6 -690 22 -696 28 -8 8 31 108 56 143 76 105 198 138 342 93z m-864 -316 c45 -12 33 -91 -23 -153 -36 -40 -43 -61 -21 -61 38 0 87 91 87 160 l0 50 58 0 c31 0 121 -3 198 -7 l142 -6 18 -61 c10 -34 20 -67 22 -73 2 -7 -2 -13 -8 -13 -23 0 -103 -64 -133 -106 -17 -24 -34 -44 -37 -44 -3 0 -12 20 -19 45 -19 65 -59 95 -125 95 -60 0 -74 -11 -116 -88 -34 -63 -56 -65 -106 -10 -97 106 -121 125 -190 148 -77 25 -139 55 -149 69 -11 19 48 45 119 51 94 9 256 11 283 4z m788 -29 c88 -3 200 -6 248 -6 99 -2 105 -10 38 -48 -39 -21 -60 -24 -244 -32 -110 -5 -226 -13 -256 -19 -30 -5 -56 -10 -57 -10 -4 0 -44 110 -44 121 0 7 27 8 78 5 42 -3 149 -8 237 -11z"/>
 <path d="M3577 2187 l-37 -32 26 -33 26 -32 40 29 41 30 20 -27 c12 -15 22 -29 24 -31 5 -7 83 52 83 63 -1 6 -11 23 -23 39 l-23 27 -41 -30 -41 -30 -22 30 c-12 16 -24 30 -28 30 -4 0 -24 -15 -45 -33z"/>
 <path d="M1007 2304 c72 -55 119 -102 174 -176 63 -84 101 -101 155 -68 20 11 39 19 41 16 11 -11 -8 -36 -27 -36 -11 0 -20 -4 -20 -10 0 -5 20 -10 45 -10 42 0 47 -3 84 -50 35 -44 39 -55 34 -87 -5 -28 -2 -39 12 -49 27 -20 44 -17 50 9 8 32 -8 69 -51 116 -20 23 -33 41 -30 41 4 0 34 -12 67 -26 75 -31 123 -29 127 4 4 26 -13 52 -35 52 -11 0 -13 -7 -9 -25 10 -40 -15 -40 -109 -3 -62 24 -85 38 -85 51 0 10 -7 33 -14 52 -19 46 -46 45 -92 0 -19 -19 -41 -35 -48 -35 -8 0 -30 21 -49 48 -65 88 -220 222 -258 222 -6 0 11 -16 38 -36z"/>
 <path d="M6593 2318 c-29 -32 -95 -138 -86 -138 4 0 20 20 35 43 36 57 63 81 83 73 11 -4 14 -13 10 -28 -6 -23 -6 -23 15 1 45 52 -10 100 -57 49z"/>
 <path d="M5745 2283 c-11 -26 -21 -51 -23 -55 -3 -6 47 -33 136 -74 2 -1 -8 -26 -21 -56 l-25 -55 64 -31 c36 -18 69 -32 74 -32 10 0 60 91 60 108 0 5 -29 21 -65 37 -36 15 -68 31 -71 36 -2 4 7 31 21 59 l26 51 -67 29 c-36 17 -71 30 -77 30 -7 0 -21 -21 -32 -47z"/>
 <path d="M890 2112 c0 -17 10 -38 23 -51 26 -23 186 -95 195 -86 3 3 -29 21 -71 40 -77 36 -102 60 -91 89 7 19 9 19 35 6 13 -8 19 -7 19 0 0 14 -44 30 -81 30 -25 0 -29 -4 -29 -28z"/>
 <path d="M6640 2090 c-8 -6 -38 -19 -67 -30 -47 -17 -55 -18 -80 -5 -41 21 -62 18 -75 -11 -10 -21 -9 -27 3 -35 24 -15 92 -10 138 11 24 11 45 20 48 20 2 0 -16 -25 -42 -56 -67 -83 -73 -134 -16 -134 20 0 34 7 41 19 9 17 6 20 -17 23 -43 5 -39 30 15 94 68 82 91 129 52 104z"/>
 <path d="M6089 2009 c-23 -23 -83 -148 -76 -156 3 -2 20 24 39 59 24 47 39 64 57 66 21 3 23 1 17 -23 -4 -15 -3 -24 2 -21 15 9 35 65 28 81 -8 22 -42 19 -67 -6z"/>
 <path d="M4545 1804 c-8 -45 -26 -85 -35 -79 -12 8 -50 -26 -50 -45 0 -57 61 -21 88 51 l19 52 8 -49 c8 -57 30 -104 48 -104 19 0 37 21 37 42 0 21 -11 23 -29 6 -10 -11 -15 -9 -27 6 -8 11 -14 28 -14 37 0 33 -22 119 -30 119 -4 0 -11 -16 -15 -36z"/>
 <path d="M4156 1794 l-38 -36 29 -29 28 -29 38 27 c20 14 37 30 37 35 0 11 -42 68 -49 68 -3 0 -23 -17 -45 -36z"/>
 <path d="M4760 1805 c-7 -9 -10 -29 -7 -48 6 -38 55 -152 62 -145 3 3 -4 26 -15 52 -33 77 -22 134 18 94 16 -16 15 -3 -3 32 -17 33 -36 38 -55 15z"/>
 <path d="M2657 1653 c-16 -15 -5 -82 22 -138 34 -69 41 -61 10 11 -19 46 -19 94 1 94 5 0 13 -8 19 -17 16 -29 20 -10 6 25 -13 30 -41 43 -58 25z"/>
 <path d="M1991 1606 c-7 -8 -13 -24 -14 -35 -1 -18 -6 -19 -42 -14 -31 4 -46 1 -58 -12 -20 -19 -22 -46 -5 -63 17 -17 48 -15 48 4 0 12 -6 15 -21 11 -15 -4 -19 -1 -17 11 2 9 13 18 26 20 16 3 27 -6 43 -32 12 -20 26 -36 32 -36 6 0 2 -10 -11 -22 -14 -14 -34 -22 -57 -22 -19 0 -35 -3 -35 -6 0 -10 35 -40 47 -40 6 0 13 -11 15 -25 5 -22 0 -26 -31 -35 -52 -14 -72 -12 -109 10 -46 28 -60 62 -38 95 16 24 45 33 59 18 4 -3 2 -12 -4 -19 -6 -7 -8 -18 -4 -24 9 -15 32 -12 39 6 7 17 -35 64 -57 64 -23 0 -64 -38 -71 -65 -15 -61 35 -145 96 -160 21 -5 30 -16 38 -44 9 -35 42 -73 103 -119 16 -12 23 -23 17 -27 -5 -3 -10 -15 -10 -25 0 -10 -8 -24 -17 -29 -17 -10 -14 -12 20 -15 6 -1 14 -10 17 -20 8 -30 28 -31 36 -2 3 14 10 23 15 20 18 -11 29 7 14 22 -8 9 -13 20 -9 25 3 6 1 16 -5 23 -9 10 -3 20 24 40 56 43 85 78 91 113 4 19 12 33 21 33 48 0 113 79 113 138 0 36 -21 70 -51 83 -24 9 -33 9 -54 -5 -28 -18 -35 -66 -11 -66 21 0 30 19 16 35 -9 10 -7 15 8 19 28 9 51 -3 58 -31 16 -62 -55 -112 -135 -97 -58 11 -66 39 -21 72 37 28 39 43 2 36 -19 -4 -36 1 -55 16 -25 20 -26 24 -12 34 9 6 21 23 28 36 9 18 21 25 42 25 20 0 30 -5 30 -15 0 -10 -8 -14 -22 -12 -16 2 -23 -2 -23 -12 0 -19 31 -21 48 -4 17 17 15 53 -3 68 -9 8 -30 11 -54 7 -36 -4 -39 -3 -50 29 -13 37 -22 41 -40 20z m49 -231 c0 -17 -6 -21 -35 -21 -40 0 -43 11 -19 58 l16 31 19 -24 c10 -13 19 -33 19 -44z m-20 -59 c0 -8 -4 -18 -10 -21 -5 -3 -10 -4 -10 -1 0 2 -3 11 -6 20 -4 11 -1 16 10 16 9 0 16 -6 16 -14z m-24 -65 c-4 -6 -16 -11 -27 -11 -23 0 -25 -13 -4 -30 8 -7 15 -20 15 -29 0 -10 7 -26 15 -37 13 -16 16 -17 25 -4 5 8 10 24 10 34 0 11 10 30 22 43 l21 23 -26 0 c-34 0 -43 17 -21 41 22 25 28 24 42 -6 21 -46 15 -107 -17 -157 -38 -60 -44 -62 -68 -30 -54 74 -68 146 -37 191 16 23 17 23 36 3 11 -11 17 -25 14 -31z"/>
 <path d="M5380 1601 c-5 -11 -10 -27 -10 -35 0 -13 -8 -14 -44 -10 -37 6 -45 3 -59 -16 -20 -29 -8 -65 22 -65 11 0 20 5 19 10 -2 6 -11 10 -21 9 -26 -1 -17 30 11 34 16 3 27 -5 39 -27 10 -16 27 -34 38 -39 19 -8 17 -11 -15 -31 -19 -12 -45 -20 -57 -18 -32 6 -30 -20 2 -35 14 -6 25 -15 25 -19 0 -4 3 -14 6 -22 6 -17 -41 -37 -86 -37 -33 0 -90 37 -101 66 -11 31 11 69 41 69 21 0 25 -4 22 -27 -3 -20 1 -28 13 -28 29 0 30 32 1 57 -34 29 -51 29 -81 -2 -30 -29 -34 -89 -10 -136 17 -32 69 -69 98 -69 12 0 17 -8 17 -31 0 -24 12 -42 55 -85 31 -30 60 -54 66 -54 6 0 5 -7 -1 -20 -5 -11 -14 -29 -20 -40 -10 -20 2 -36 19 -26 5 3 12 -6 15 -20 8 -29 28 -28 36 2 3 10 11 19 18 20 33 3 36 5 20 15 -10 5 -18 18 -18 27 0 10 -5 23 -10 28 -7 7 4 21 34 42 49 35 86 87 86 121 0 13 6 21 18 21 56 0 112 72 112 145 0 41 -36 85 -70 85 -26 0 -62 -36 -58 -58 5 -26 38 -28 38 -3 0 12 -6 21 -12 21 -7 0 -5 5 6 11 28 17 66 -4 66 -36 0 -37 -16 -62 -50 -80 -35 -18 -66 -19 -109 -4 -26 9 -30 15 -25 33 4 11 11 23 16 24 13 5 38 32 38 41 0 5 -10 6 -22 4 -13 -2 -37 5 -55 16 l-32 20 38 41 c40 44 73 51 79 17 3 -15 -1 -17 -22 -11 -28 7 -37 -12 -11 -22 35 -14 61 46 33 74 -7 7 -26 12 -43 12 -17 0 -36 -5 -43 -12 -9 -9 -12 -7 -12 11 0 27 -17 61 -30 61 -5 0 -14 -9 -20 -19z m50 -225 c0 -18 -6 -23 -30 -23 -25 0 -30 4 -30 24 0 13 6 32 13 43 12 21 12 21 30 -1 9 -12 17 -31 17 -43z m-10 -55 c0 -5 -7 -14 -15 -21 -8 -7 -15 -10 -15 -7 0 3 -3 12 -6 21 -4 12 0 16 15 16 12 0 21 -4 21 -9z m-40 -36 c16 -20 5 -45 -20 -45 -23 0 -27 -18 -6 -26 8 -3 16 -17 20 -32 3 -15 10 -34 16 -42 9 -13 11 -13 20 0 6 8 13 26 17 40 3 14 13 32 22 40 13 13 12 15 -8 18 -12 2 -25 10 -28 18 -5 15 13 44 28 44 13 0 39 -56 39 -82 -1 -30 -36 -107 -62 -135 l-20 -22 -23 27 c-28 34 -55 96 -55 129 0 27 26 83 39 83 5 0 14 -7 21 -15z"/>
 <path d="M3002 1538 c-19 -19 -15 -54 13 -108 26 -51 39 -64 33 -32 -2 9 7 25 19 35 26 20 30 63 11 90 -18 22 -60 31 -76 15z m68 -38 c13 -9 11 -13 -9 -31 -30 -25 -45 -20 -49 14 -3 22 1 27 20 27 13 0 30 -5 38 -10z"/>
 <path d="M2847 1445 c-20 -14 -37 -29 -37 -33 0 -4 11 -20 24 -37 l24 -29 41 28 c22 16 41 31 41 33 0 9 -41 63 -48 63 -4 0 -24 -11 -45 -25z"/>
 <path d="M3455 1441 c11 -6 65 -27 120 -47 201 -73 415 -191 522 -288 l47 -43 -58 -119 c-32 -66 -62 -126 -66 -134 -8 -17 -1 -80 9 -80 4 0 29 23 56 51 39 41 45 50 28 46 -13 -3 -23 -4 -23 -2 0 1 16 32 35 69 29 57 35 78 35 132 0 36 -6 79 -14 97 -26 62 -166 172 -311 244 -83 42 -115 51 -230 63 -55 6 -116 13 -135 15 -28 4 -31 3 -15 -4z"/>
 <path d="M4517 1353 c-15 -14 -6 -76 20 -138 33 -80 44 -78 13 4 -13 35 -19 68 -15 80 7 25 23 27 31 6 9 -21 25 -19 17 3 -14 39 -49 63 -66 45z"/>
 <path d="M4167 1313 c-14 -14 -6 -66 18 -113 24 -47 45 -70 31 -34 -4 10 3 25 19 40 30 28 32 67 5 94 -19 19 -60 27 -73 13z m68 -44 c7 -10 -21 -49 -35 -49 -10 0 -30 47 -23 54 10 10 51 7 58 -5z"/>
 <path d="M2932 1288 c-18 -18 -14 -52 15 -123 33 -81 44 -77 13 5 -19 50 -20 63 -9 76 12 14 14 14 26 -2 20 -27 17 6 -3 34 -17 25 -25 27 -42 10z"/>
 <path d="M3359 963 c7 -15 61 -40 178 -83 93 -34 172 -64 176 -67 5 -3 7 2 5 12 -2 12 -51 36 -168 80 -91 35 -173 66 -184 70 -16 7 -17 5 -7 -12z"/>
 <path d="M3407 823 c-11 -10 -8 -111 3 -118 6 -4 10 11 10 39 0 49 12 65 36 45 10 -8 14 -25 12 -48 -4 -48 16 -52 22 -5 4 33 31 66 44 54 2 -3 -1 -24 -7 -47 -6 -23 -8 -46 -4 -49 13 -14 20 6 21 63 1 48 -2 58 -17 61 -10 2 -26 -3 -36 -12 -15 -14 -18 -13 -29 4 -12 20 -42 27 -55 13z"/>
 <path d="M3789 809 c-9 -17 -6 -35 16 -95 15 -41 31 -74 36 -74 5 0 2 17 -7 38 -22 49 -29 98 -14 107 6 4 18 -1 25 -11 19 -25 19 -10 0 26 -18 35 -40 38 -56 9z"/>
 </g>

</svg>