<svg xmlns="http://www.w3.org/2000/svg" width="485" height="492" viewBox="0 0 485 492" version="1.1">
	<rect x="0" y="0" width="100%" height="100%" fill="#ffffff" />
	<path d="M 357 98.070 C 321.591 114.466, 313.902 118.451, 305 125.021 C 280.733 142.931, 260.223 171.925, 236.761 221.490 C 234.155 226.995, 232.018 230.589, 232.011 229.475 C 231.996 226.674, 237.425 204.701, 240.059 196.909 C 248.258 172.650, 263.890 148.461, 282.563 131.137 C 291.295 123.035, 291.175 122.987, 276.500 128.707 C 243.844 141.434, 214.765 159.980, 198.035 178.750 C 184.434 194.009, 171.099 219.581, 165.053 242 C 158.699 265.558, 157.883 290.251, 162.603 316.185 L 164.184 324.869 174.842 316.044 C 194.418 299.835, 205.893 292.524, 231.500 279.945 C 270.736 260.671, 293.592 245.467, 311.894 226.464 C 322.633 215.314, 325.637 211.317, 331.784 200 C 335.868 192.480, 357.339 140.006, 356.625 139.291 C 356.415 139.082, 353.623 142.418, 350.419 146.705 C 322.597 183.931, 294.923 209.438, 267.219 223.390 C 258.567 227.747, 258.251 227.134, 263.740 216.646 C 268.678 207.210, 276.609 199.443, 297.006 184.067 C 328.506 160.322, 341.510 147.843, 357.903 125.625 C 365.066 115.916, 381.030 87.942, 379.341 88.058 C 378.878 88.089, 368.825 92.595, 357 98.070 M 204.620 200.227 C 190.621 225.909, 184.850 246.696, 184.872 271.359 C 184.879 278.981, 185.179 285.506, 185.540 285.859 C 186.755 287.047, 192.111 279.562, 196.586 270.423 C 202.227 258.901, 203.814 250.623, 204.582 228.718 C 205.056 215.199, 205.706 209.481, 207.609 202.100 C 208.942 196.929, 209.842 192.509, 209.609 192.276 C 209.376 192.043, 207.131 195.621, 204.620 200.227 M 323.694 225.857 C 316.409 235.129, 299.380 251.565, 288.753 259.580 C 276.739 268.641, 264.419 275.949, 247.480 284.064 C 195.386 309.021, 190.693 311.514, 178.500 320.717 C 162.867 332.517, 138.311 353.689, 110.903 379 C 109.648 380.159, 109.132 383.344, 108.635 392.995 L 107.990 405.491 127.745 385.877 C 158.733 355.112, 163.906 350.764, 177.500 344.056 C 186.153 339.786, 195.965 337.012, 213.386 333.908 C 231.723 330.641, 242.835 327.255, 255.885 320.959 C 290.616 304.202, 310.178 280.549, 323.256 239.500 C 327.967 224.713, 329.275 220, 328.667 220 C 328.462 220, 326.224 222.636, 323.694 225.857 " stroke="none" fill="#aafa59" fill-rule="evenodd"/>
</svg>