<svg xmlns="http://www.w3.org/2000/svg" width="485" height="492" viewBox="0 0 485 492" version="1.1">
	<rect x="0" y="0" width="100%" height="100%" fill="#a3a3a3" />
	<path d="M 0 246 L 0 492 84.035 492 L 168.071 492 167.961 422.525 C 167.901 384.313, 168.137 352.588, 168.485 352.025 C 168.833 351.461, 168.641 351, 168.059 351 C 167.477 351, 167 351.450, 167 352 C 167 352.550, 166.495 353, 165.878 353 C 165.102 353, 165.140 352.536, 166 351.500 C 166.685 350.675, 168.090 350, 169.122 350 C 170.155 350, 171 349.602, 171 349.115 C 171 348.628, 172.238 347.477, 173.750 346.556 L 176.500 344.881 174.139 346.941 C 172.841 348.073, 172.200 349, 172.715 349 C 173.230 349, 174.674 347.911, 175.924 346.581 C 178.338 344.011, 185.948 340.349, 190.041 339.787 C 191.393 339.601, 192.980 339.148, 193.566 338.779 C 194.152 338.411, 203.655 336.300, 214.683 334.088 C 225.710 331.876, 236.931 329.323, 239.617 328.414 C 258.106 322.158, 277.629 310.325, 290.468 297.595 C 304.431 283.748, 313.417 269.180, 320.492 248.916 C 324.512 237.402, 330.083 218.750, 329.636 218.303 C 329.479 218.145, 326.500 221.635, 323.017 226.057 C 310.316 242.182, 288.482 260.856, 269 272.257 C 259.825 277.627, 243.380 285.926, 232 290.931 C 222.790 294.981, 202.173 305.057, 194.764 309.130 C 190.917 311.245, 187.359 312.722, 186.859 312.413 C 186.360 312.104, 186.074 312.447, 186.225 313.176 C 186.376 313.904, 185.744 314.506, 184.821 314.513 C 183.897 314.520, 182.772 314.929, 182.321 315.423 C 181.839 315.950, 182.120 315.968, 183 315.468 C 184.276 314.744, 184.302 314.860, 183.177 316.249 C 181.729 318.035, 178.601 317.496, 179.678 315.645 C 180.044 315.015, 179.366 315.357, 178.172 316.405 C 175.844 318.447, 175.102 319.990, 177.342 318.131 C 178.080 317.519, 178.966 317.299, 179.310 317.643 C 179.654 317.988, 178.263 319.578, 176.218 321.177 C 174.173 322.776, 171.707 324.740, 170.739 325.542 C 169.770 326.344, 168.584 327, 168.104 327 C 167.623 327, 166.483 328.139, 165.571 329.532 C 164.543 331.101, 163.453 331.772, 162.706 331.297 C 162.043 330.876, 161.200 330.524, 160.833 330.515 C 160.467 330.507, 159.843 330.177, 159.448 329.781 C 159.053 329.386, 159.590 329.228, 160.642 329.431 C 161.693 329.634, 163.343 329.223, 164.306 328.518 C 165.974 327.299, 165.973 327.199, 164.279 326.455 C 163.301 326.025, 162.200 325.634, 161.833 325.586 C 160.234 325.379, 160.165 324.332, 161.750 324.318 C 162.713 324.309, 163.825 324.797, 164.222 325.401 C 164.689 326.113, 165.506 325.702, 166.540 324.233 C 167.418 322.987, 168.556 322.226, 169.068 322.542 C 169.581 322.859, 170 322.680, 170 322.146 C 170 320.531, 182.101 310.944, 183.245 311.652 C 183.830 312.013, 184.024 311.848, 183.676 311.285 C 182.974 310.149, 190.454 304.046, 202.218 296.158 C 206.462 293.312, 219.962 286.080, 232.218 280.089 C 270.333 261.453, 292.577 246.683, 311.353 227.544 C 327.623 210.958, 331.281 204.633, 346.516 166.742 C 352.756 151.224, 357.766 138.433, 357.651 138.318 C 357.086 137.753, 354.850 140.258, 348.563 148.500 C 321.442 184.052, 295.869 207.896, 270.798 221.007 C 265.336 223.864, 260.667 226.001, 260.423 225.756 C 260.178 225.512, 261.634 221.979, 263.658 217.906 C 268.432 208.298, 277.994 198.714, 296.500 184.990 C 304.200 179.279, 314.268 171.433, 318.872 167.553 C 323.477 163.674, 328.231 159.736, 329.435 158.803 C 332.732 156.249, 350.418 136.123, 356.672 127.810 C 365.340 116.288, 381.156 88.656, 379.763 87.468 C 379.618 87.345, 370.697 91.352, 359.938 96.372 C 349.179 101.392, 335.534 107.711, 329.617 110.412 C 293.629 126.844, 270.063 153.544, 241.917 209.775 C 237.038 219.524, 233.035 227.039, 233.023 226.475 C 233.010 225.911, 234.317 220.061, 235.928 213.475 C 244.147 179.854, 258.121 155.425, 282.389 132.250 C 287.717 127.163, 291.912 123, 291.713 123 C 288.843 123, 262.153 133.908, 249.574 140.221 C 231.118 149.485, 204.114 169.429, 197.200 178.903 C 195.837 180.770, 194.410 181.775, 193.700 181.367 C 193.040 180.989, 192.808 181.022, 193.185 181.441 C 193.860 182.192, 182.627 199.805, 180.561 201.235 C 179.978 201.639, 179.866 201.976, 180.314 201.985 C 180.762 201.993, 180.127 203.782, 178.903 205.959 C 177.679 208.137, 176.270 209.667, 175.772 209.359 C 175.274 209.051, 174.991 209.407, 175.143 210.150 C 175.295 210.892, 174.920 212.400, 174.308 213.500 C 173.181 215.529, 173 216.160, 173 218.059 C 173 218.641, 172.480 218.797, 171.845 218.405 C 171.171 217.987, 170.961 218.128, 171.341 218.742 C 171.698 219.320, 171.335 221.302, 170.534 223.147 C 169.733 224.991, 169.027 226.275, 168.965 226 C 168.138 222.355, 168.148 220.973, 168.997 221.498 C 169.549 221.839, 170 221.416, 170 220.559 C 170 219.702, 169.561 219, 169.024 219 C 168.488 219, 168.111 216.863, 168.187 214.250 C 168.263 211.638, 168.252 162.363, 168.163 104.750 L 168 0 84 0 L 0 0 0 246 M 201 168.500 C 201 168.775, 201.225 169, 201.500 169 C 201.775 169, 202 168.775, 202 168.500 C 202 168.225, 201.775 168, 201.500 168 C 201.225 168, 201 168.225, 201 168.500 M 185 185.500 C 185 185.775, 185.225 186, 185.500 186 C 185.775 186, 186 185.775, 186 185.500 C 186 185.225, 185.775 185, 185.500 185 C 185.225 185, 185 185.225, 185 185.500 M 188 185.500 C 188 185.775, 188.225 186, 188.500 186 C 188.775 186, 189 185.775, 189 185.500 C 189 185.225, 188.775 185, 188.500 185 C 188.225 185, 188 185.225, 188 185.500 M 185 191.500 C 185 191.775, 185.225 192, 185.500 192 C 185.775 192, 186 191.775, 186 191.500 C 186 191.225, 185.775 191, 185.500 191 C 185.225 191, 185 191.225, 185 191.500 M 177 192.500 C 177 192.775, 177.225 193, 177.500 193 C 177.775 193, 178 192.775, 178 192.500 C 178 192.225, 177.775 192, 177.500 192 C 177.225 192, 177 192.225, 177 192.500 M 184 193.500 C 184 193.775, 184.225 194, 184.500 194 C 184.775 194, 185 193.775, 185 193.500 C 185 193.225, 184.775 193, 184.500 193 C 184.225 193, 184 193.225, 184 193.500 M 179 194.500 C 179 194.775, 179.225 195, 179.500 195 C 179.775 195, 180 194.775, 180 194.500 C 180 194.225, 179.775 194, 179.500 194 C 179.225 194, 179 194.225, 179 194.500 M 176 196 C 176 196.733, 176.300 197.033, 176.667 196.667 C 177.033 196.300, 177.033 195.700, 176.667 195.333 C 176.300 194.967, 176 195.267, 176 196 M 204.755 201.250 C 196.675 215.978, 190.385 232.594, 187.438 247 C 185.808 254.964, 184.898 277.270, 185.980 282.715 C 186.393 284.792, 186.534 284.827, 188.245 283.278 C 190.188 281.520, 191.139 279.936, 195.880 270.560 C 197.532 267.293, 198.658 264.256, 198.383 263.810 C 198.107 263.365, 198.322 263, 198.861 263 C 200.966 263, 203.218 248.144, 204.016 229 C 204.744 211.502, 205.836 203.714, 208.536 196.750 C 210.014 192.937, 208.001 195.332, 204.755 201.250 M 181 197 C 181 197.733, 181.300 198.033, 181.667 197.667 C 182.033 197.300, 182.033 196.700, 181.667 196.333 C 181.300 195.967, 181 196.267, 181 197 M 178 198.500 C 178 198.775, 178.225 199, 178.500 199 C 178.775 199, 179 198.775, 179 198.500 C 179 198.225, 178.775 198, 178.500 198 C 178.225 198, 178 198.225, 178 198.500 M 177 202 C 177 202.733, 177.300 203.033, 177.667 202.667 C 178.033 202.300, 178.033 201.700, 177.667 201.333 C 177.300 200.967, 177 201.267, 177 202 M 176.429 206.167 C 176.429 207.175, 176.541 208, 176.679 208 C 176.817 208, 177.371 207.175, 177.911 206.167 C 178.615 204.850, 178.545 204.333, 177.660 204.333 C 176.983 204.333, 176.429 205.158, 176.429 206.167 M 170.569 209.112 C 170.947 209.723, 170.676 210.582, 169.966 211.021 C 168.951 211.648, 169.040 212.183, 170.385 213.528 C 171.326 214.469, 172.411 214.898, 172.798 214.482 C 173.184 214.066, 172.938 213.525, 172.250 213.280 C 171.563 213.034, 171 212.373, 171 211.810 C 171 211.247, 171.762 211.079, 172.694 211.436 C 174.179 212.006, 174.159 211.834, 172.539 210.043 C 170.536 207.830, 169.464 207.323, 170.569 209.112 M 169.079 216.583 C 169.127 217.748, 169.364 217.985, 169.683 217.188 C 169.972 216.466, 169.936 215.603, 169.604 215.271 C 169.272 214.939, 169.036 215.529, 169.079 216.583 M 172 216.500 C 172 216.775, 172.225 217, 172.500 217 C 172.775 217, 173 216.775, 173 216.500 C 173 216.225, 172.775 216, 172.500 216 C 172.225 216, 172 216.225, 172 216.500 M 165.500 227 C 164.771 228.180, 165.717 230, 167.059 230 C 167.577 230, 168 229.100, 168 228 C 168 225.891, 166.545 225.309, 165.500 227 M 161.333 232.667 C 161.700 233.033, 162.300 233.033, 162.667 232.667 C 163.033 232.300, 162.733 232, 162 232 C 161.267 232, 160.967 232.300, 161.333 232.667 M 164 234 C 164 234.733, 164.300 235.033, 164.667 234.667 C 165.033 234.300, 165.033 233.700, 164.667 233.333 C 164.300 232.967, 164 233.267, 164 234 M 166 234.500 C 166 234.775, 166.225 235, 166.500 235 C 166.775 235, 167 234.775, 167 234.500 C 167 234.225, 166.775 234, 166.500 234 C 166.225 234, 166 234.225, 166 234.500 M 161.667 235.667 C 161.300 236.033, 161.029 237.271, 161.063 238.417 C 161.122 240.332, 161.204 240.307, 162.085 238.105 C 163.064 235.657, 162.861 234.472, 161.667 235.667 M 164 238 C 164 238.733, 164.300 239.033, 164.667 238.667 C 165.033 238.300, 165.033 237.700, 164.667 237.333 C 164.300 236.967, 164 237.267, 164 238 M 163.333 240.667 C 163.700 241.033, 164.300 241.033, 164.667 240.667 C 165.033 240.300, 164.733 240, 164 240 C 163.267 240, 162.967 240.300, 163.333 240.667 M 160.141 242 C 160.141 242.825, 160.483 244.376, 160.902 245.446 C 161.611 247.257, 161.708 247.225, 162.292 244.990 C 162.638 243.669, 162.714 242.380, 162.460 242.127 C 162.207 241.874, 161.968 242.304, 161.930 243.083 C 161.888 243.920, 161.508 243.681, 161 242.500 C 160.458 241.239, 160.141 241.055, 160.141 242 M 161 250 C 161 251.100, 161.173 252, 161.383 252 C 161.594 252, 162.002 251.100, 162.290 250 C 162.577 248.900, 162.405 248, 161.906 248 C 161.408 248, 161 248.900, 161 250 M 160 253.500 C 160 253.775, 160.225 254, 160.500 254 C 160.775 254, 161 253.775, 161 253.500 C 161 253.225, 160.775 253, 160.500 253 C 160.225 253, 160 253.225, 160 253.500 M 158.158 274 C 158.158 275.375, 158.385 275.938, 158.662 275.250 C 158.940 274.563, 158.940 273.438, 158.662 272.750 C 158.385 272.063, 158.158 272.625, 158.158 274 M 189 276.500 C 189 276.775, 189.225 277, 189.500 277 C 189.775 277, 190 276.775, 190 276.500 C 190 276.225, 189.775 276, 189.500 276 C 189.225 276, 189 276.225, 189 276.500 M 187 282.500 C 187 282.775, 187.225 283, 187.500 283 C 187.775 283, 188 282.775, 188 282.500 C 188 282.225, 187.775 282, 187.500 282 C 187.225 282, 187 282.225, 187 282.500 M 154 288.500 C 154 288.775, 154.225 289, 154.500 289 C 154.775 289, 155 288.775, 155 288.500 C 155 288.225, 154.775 288, 154.500 288 C 154.225 288, 154 288.225, 154 288.500 M 156 295 C 156 295.733, 156.300 296.033, 156.667 295.667 C 157.033 295.300, 157.033 294.700, 156.667 294.333 C 156.300 293.967, 156 294.267, 156 295 M 190.500 306 C 190.840 306.550, 191.343 307, 191.618 307 C 191.893 307, 191.840 306.550, 191.500 306 C 191.160 305.450, 190.657 305, 190.382 305 C 190.107 305, 190.160 305.450, 190.500 306 M 190 308.500 C 190 308.775, 190.225 309, 190.500 309 C 190.775 309, 191 308.775, 191 308.500 C 191 308.225, 190.775 308, 190.500 308 C 190.225 308, 190 308.225, 190 308.500 M 188 309.500 C 188 309.775, 188.225 310, 188.500 310 C 188.775 310, 189 309.775, 189 309.500 C 189 309.225, 188.775 309, 188.500 309 C 188.225 309, 188 309.225, 188 309.500 M 160.564 315.293 C 160.940 316.279, 161.499 316.834, 161.807 316.526 C 162.115 316.219, 161.808 315.412, 161.124 314.733 C 160.136 313.753, 160.022 313.868, 160.564 315.293 M 162 319.500 C 162 319.775, 162.225 320, 162.500 320 C 162.775 320, 163 319.775, 163 319.500 C 163 319.225, 162.775 319, 162.500 319 C 162.225 319, 162 319.225, 162 319.500 M 160 320.378 C 160 320.585, 160.787 321.373, 161.750 322.128 C 163.336 323.371, 163.371 323.336, 162.128 321.750 C 160.821 320.084, 160 319.555, 160 320.378 M 174.405 321.155 C 173.962 321.870, 174.130 322.038, 174.845 321.595 C 175.480 321.203, 176 320.684, 176 320.441 C 176 319.607, 175.117 320.002, 174.405 321.155 M 170.490 323.016 C 170.144 323.575, 169.465 323.788, 168.981 323.488 C 168.497 323.189, 167.594 323.891, 166.974 325.048 C 165.962 326.940, 166.041 327.049, 167.757 326.130 C 169.748 325.065, 172.660 322, 171.681 322 C 171.372 322, 170.835 322.457, 170.490 323.016 M 160 327.500 C 160 327.775, 160.225 328, 160.500 328 C 160.775 328, 161 327.775, 161 327.500 C 161 327.225, 160.775 327, 160.500 327 C 160.225 327, 160 327.225, 160 327.500 M 163.405 330.155 C 162.962 330.870, 163.130 331.038, 163.845 330.595 C 164.480 330.203, 165 329.684, 165 329.441 C 165 328.607, 164.117 329.002, 163.405 330.155 M 158.333 333.667 C 158.700 334.033, 159.300 334.033, 159.667 333.667 C 160.033 333.300, 159.733 333, 159 333 C 158.267 333, 157.967 333.300, 158.333 333.667 M 157 335.500 C 157 335.775, 157.225 336, 157.500 336 C 157.775 336, 158 335.775, 158 335.500 C 158 335.225, 157.775 335, 157.500 335 C 157.225 335, 157 335.225, 157 335.500 M 153.872 337.750 C 152.629 339.336, 152.664 339.371, 154.250 338.128 C 155.916 336.821, 156.445 336, 155.622 336 C 155.415 336, 154.627 336.788, 153.872 337.750 M 191 341.500 C 191 341.775, 191.225 342, 191.500 342 C 191.775 342, 192 341.775, 192 341.500 C 192 341.225, 191.775 341, 191.500 341 C 191.225 341, 191 341.225, 191 341.500 M 146.405 345.155 C 145.962 345.870, 146.130 346.038, 146.845 345.595 C 147.480 345.203, 148 344.684, 148 344.441 C 148 343.607, 147.117 344.002, 146.405 345.155 M 141 349.500 C 141 349.775, 141.225 350, 141.500 350 C 141.775 350, 142 349.775, 142 349.500 C 142 349.225, 141.775 349, 141.500 349 C 141.225 349, 141 349.225, 141 349.500 M 163 354.500 C 163 354.775, 163.225 355, 163.500 355 C 163.775 355, 164 354.775, 164 354.500 C 164 354.225, 163.775 354, 163.500 354 C 163.225 354, 163 354.225, 163 354.500 M 164.326 356.414 C 163.072 357.844, 164.364 360.015, 166.450 359.985 C 167.028 359.976, 166.825 359.492, 166 358.909 C 164.871 358.110, 164.809 357.722, 165.750 357.341 C 167.094 356.795, 167.490 354.975, 166.250 355.038 C 165.838 355.059, 164.972 355.678, 164.326 356.414 M 158.405 358.233 C 157.238 359.601, 157.117 359.991, 158.092 359.241 C 158.968 358.568, 160.052 358.351, 160.502 358.759 C 160.952 359.166, 161.021 358.976, 160.654 358.335 C 160.287 357.695, 160.553 356.943, 161.244 356.664 C 161.962 356.375, 162.031 356.124, 161.405 356.079 C 160.803 356.036, 159.453 357.005, 158.405 358.233 M 158 362.059 C 158 362.641, 158.450 362.840, 159 362.500 C 159.550 362.160, 160 361.684, 160 361.441 C 160 361.198, 159.550 361, 159 361 C 158.450 361, 158 361.477, 158 362.059 M 154 362.500 C 154 362.775, 154.225 363, 154.500 363 C 154.775 363, 155 362.775, 155 362.500 C 155 362.225, 154.775 362, 154.500 362 C 154.225 362, 154 362.225, 154 362.500 M 149.405 366.155 C 148.962 366.870, 149.130 367.038, 149.845 366.595 C 150.480 366.203, 151 365.684, 151 365.441 C 151 364.607, 150.117 365.002, 149.405 366.155 M 159 365.500 C 159 365.775, 159.225 366, 159.500 366 C 159.775 366, 160 365.775, 160 365.500 C 160 365.225, 159.775 365, 159.500 365 C 159.225 365, 159 365.225, 159 365.500 M 146 369.500 C 146 369.775, 146.225 370, 146.500 370 C 146.775 370, 147 369.775, 147 369.500 C 147 369.225, 146.775 369, 146.500 369 C 146.225 369, 146 369.225, 146 369.500 M 141 374.500 C 141 374.775, 141.225 375, 141.500 375 C 141.775 375, 142 374.775, 142 374.500 C 142 374.225, 141.775 374, 141.500 374 C 141.225 374, 141 374.225, 141 374.500 M 135 382.500 C 135 382.775, 135.225 383, 135.500 383 C 135.775 383, 136 382.775, 136 382.500 C 136 382.225, 135.775 382, 135.500 382 C 135.225 382, 135 382.225, 135 382.500 " stroke="none" fill="#181818" fill-rule="evenodd"/>
</svg>